<?xml version="1.0" standalone="no"?>
<!DOCTYPE svg PUBLIC "-//W3C//DTD SVG 1.1//EN" "http://www.w3.org/Graphics/SVG/1.1/DTD/svg11.dtd" >
<svg>
<metadata>
Created by FontForge 20110222 at Mon Dec 23 23:52:20 2013
 By Orthosie Webhosting
Copyright 1989,1990 URW Unternehmensberatunge and The Compa 
</metadata>
<defs>
<font id="GoudyBoldRegular" horiz-adv-x="278" >
  <font-face 
    font-family="GoudyBoldRegular"
    font-weight="400"
    font-stretch="normal"
    units-per-em="1000"
    panose-1="0 0 0 0 0 0 0 0 0 0"
    ascent="800"
    descent="-200"
    x-height="402"
    cap-height="671"
    bbox="-166 -237 1121 891"
    underline-thickness="50"
    underline-position="-55"
    unicode-range="U+0020-F002"
  />
<missing-glyph 
 />
    <glyph glyph-name=".notdef" 
 />
    <glyph glyph-name="glyph1" horiz-adv-x="0" 
 />
    <glyph glyph-name="glyph2" 
 />
    <glyph glyph-name="space" unicode=" " 
 />
    <glyph glyph-name="space" unicode="&#xa0;" 
 />
    <glyph glyph-name="exclam" unicode="!" horiz-adv-x="266" 
d="M73 71q0 6 8.5 16.5t20.5 21.5q3 4 7 7.5t7 6.5q15 13 27.5 22t15.5 9q6 0 17.5 -8t23.5 -20q4 -4 8 -7.5t8 -7.5q13 -13 21.5 -24.5t8.5 -16.5q0 -8 -5 -14t-10 -11l-3.5 -3.5t-3.5 -2.5q-5 -4 -10.5 -10.5t-12.5 -13.5l-7.5 -7.5t-7.5 -6.5q-6 -5 -12.5 -9t-12.5 -4
t-17.5 7.5t-24.5 18.5q-5 4 -10 9t-10 9q-11 12 -18.5 22.5t-7.5 16.5v0zM229 628l-52 -364q0 -1 -0.5 -2t-0.5 -2v-3t-1 -3q-1 -7 -3.5 -12.5t-10.5 -6.5h-1q-7 0 -9 4.5t-3 10.5v0.5v1.5l-42 355q0 3 -0.5 5.5t-0.5 4.5q-1 6 -1.5 11.5t-0.5 10.5q0 20 12.5 25t33.5 6
q7 1 14 1.5t14 1.5t14 1.5t14 1.5h3.5t2.5 -1q8 -1 14.5 -6t6.5 -14l-3 -27v0z" />
    <glyph glyph-name="quotedbl" unicode="&#x22;" horiz-adv-x="382" 
d="M124 399h-47l-30 268h108l-31 -268v0zM305 399h-47l-30 268h107l-30 -268v0z" />
    <glyph glyph-name="numbersign" unicode="#" horiz-adv-x="586" 
d="M390 228l-50 -228h-49l50 228h-136l-51 -228h-48l50 228h-115l8 45h119l27 134h-115l8 45h118l48 215h49l-48 -215h136l48 215h49l-47 -215h107l-7 -45h-112l-27 -134h108l-7 -45h-113v0zM353 273l27 134h-137l-26 -134h136v0z" />
    <glyph glyph-name="dollar" unicode="$" horiz-adv-x="500" 
d="M267 583v-157q0 -10 2.5 -17.5t13.5 -10.5q74 -25 125 -63t51 -127q0 -77 -47 -132t-125 -65q-13 -1 -16.5 -6t-3.5 -16v-86v-0.5v-1.5q0 -9 -2 -16.5t-11 -7.5t-13.5 4.5t-4.5 13.5v92q0 12 -3 17t-15 5q-11 0 -34 5.5t-49 13.5q-33 12 -61.5 29.5t-28.5 37.5q0 7 1 14
t3 14q1 2 1.5 5t1.5 6l2 8l2 8q1 3 1.5 6.5t0.5 8.5q0 4 1 10t1 11q2 16 6 28.5t12 12.5q5 0 8 -5t4 -11q0 -3 0.5 -6.5t0.5 -5.5q0 -23 5 -45t20 -42q19 -25 46.5 -46.5t59.5 -26.5q9 0 11.5 6t2.5 13v215q0 11 -3 18.5t-16 9.5q-63 17 -109.5 52.5t-46.5 108.5
q0 64 47 116t113 52q9 0 12 4t3 12v73q0 5 1.5 8.5t8.5 4.5q13 0 17 -4t4 -16v-58q0 -12 4.5 -18.5t17.5 -6.5q10 -1 27 -5.5t35 -11.5q25 -10 47 -23t26 -27q1 -2 1 -3.5v-2.5q0 -15 -3 -29.5t-7 -28.5q-3 -9 -5.5 -18.5t-3.5 -18.5v-2.5v-2.5q-1 -4 -3 -7t-7 -3
q-6 0 -9 4.5t-4 9.5v2v2q1 4 1 8v8q0 10 -3.5 21.5t-9.5 24.5q-12 24 -31.5 45.5t-41.5 29.5q-4 1 -8.5 2t-9.5 1q-7 0 -10 -5t-3 -12v-4v0zM267 261v-200v-4t1 -4q1 -5 3 -9t7 -6h5.5t4.5 1q15 2 29 9.5t25 15.5q1 1 2 1.5t2 1.5q21 18 32.5 41.5t11.5 51.5q0 35 -15.5 60
t-47.5 41q-3 2 -7 3.5t-8 3.5q-3 2 -6.5 3t-6.5 3q-6 2 -11.5 3.5t-10.5 1.5t-7 -3.5t-3 -8.5v-3v-3v0zM236 438v138v4v3.5v3.5q-1 7 -4 13t-11 6q-36 0 -62 -29t-27 -63v-1.5v-1.5v-5.5t1 -5.5q3 -21 16.5 -39.5t32.5 -26.5q3 -1 6 -2.5t6 -3.5q5 -2 10 -4.5t11 -3.5
q2 -1 5 -1.5t6 -0.5h1q5 0 7 4t2 9v7v0z" />
    <glyph glyph-name="percent" unicode="%" horiz-adv-x="758" 
d="M569 627l-361 -612l-3 -6q-3 -5 -8 -7t-11 -2h-2h-2q-3 1 -5 2.5t-2 4.5q0 2 1 4l2 4q1 0 1.5 0.5t0.5 1.5l375 637q1 1 1.5 2.5t1.5 3.5q2 3 4.5 6t5.5 3h3h3q5 -1 8.5 -2.5t3.5 -6.5v-1q-1 -6 -4 -11.5t-7 -11.5q-2 -2 -3.5 -4.5t-2.5 -4.5v0zM394 148q0 66 48.5 117
t115.5 51h1.5h1.5q61 -1 112.5 -43t51.5 -106q0 -69 -45 -118t-115 -49q-65 0 -118 39t-53 109v0zM472 162q0 -12 1.5 -25.5t5.5 -27.5q8 -34 28.5 -62.5t55.5 -28.5q41 0 61.5 30t25.5 66q2 8 2.5 16.5t0.5 16.5q0 12 -1.5 26.5t-4.5 28.5q-8 36 -29.5 66.5t-60.5 30.5
q-40 0 -58 -29t-24 -64q-2 -11 -2.5 -22.5t-0.5 -21.5v0zM34 499q0 67 48 117.5t116 50.5h1.5h1.5q61 -1 112.5 -42.5t51.5 -106.5q0 -68 -45 -117.5t-115 -49.5q-65 0 -118 39t-53 109v0zM112 513q0 -12 1.5 -25t5.5 -27q8 -35 28.5 -63.5t56.5 -28.5q39 0 59.5 29.5
t26.5 64.5q2 9 2.5 18t0.5 17q0 12 -1.5 26t-4.5 29q-8 36 -29.5 67t-60.5 31q-40 0 -58.5 -29.5t-23.5 -65.5q-2 -11 -2.5 -22t-0.5 -21v0z" />
    <glyph glyph-name="ampersand" unicode="&#x26;" horiz-adv-x="884" 
d="M33 226q0 59 31 111t86 77l4 2l4 2q5 3 9.5 7t4.5 10q0 10 -3 20.5t-6 21.5t-6 22.5t-3 23.5q0 67 47.5 108t111.5 41q21 0 40 -5t36 -11t31.5 -11t26.5 -5q5 0 8.5 2t6.5 5q1 0 1.5 0.5l0.5 0.5l6 4t7 2h1q7 0 9.5 -6.5t2.5 -13.5v-1.5v-1.5q0 -6 -0.5 -12.5t-0.5 -12.5
q0 -7 -0.5 -13.5t-0.5 -12.5q1 -11 3 -22.5t5 -22.5q0 -1 0.5 -2t0.5 -2q3 -12 5 -24.5t2 -24.5q-1 -3 -4 -4.5t-6 -2.5h-1.5h-1.5q-8 0 -18.5 26t-29.5 58q-19 31 -48.5 57t-76.5 26h-1.5h-1.5q-28 -1 -51 -18t-23 -48q0 -24 9.5 -49.5t24.5 -51.5q17 -28 38 -55t43 -52
q21 -22 40.5 -41.5t35.5 -34.5q7 -6 25.5 -23.5t40.5 -37.5q3 -2 6 -4.5t6 -5.5q25 -21 46.5 -37t30.5 -16h1q13 1 22 17t14 35q4 14 6 27t2 20q0 47 -18 65t-40 23q-7 1 -14.5 2t-14.5 1q-12 2 -20.5 4.5t-8.5 10.5q0 5 3 8t10 3q12 0 24.5 -0.5t25.5 -1.5q12 -1 24.5 -1.5
t24.5 -0.5q11 0 21 1l20 2q11 1 21 2t20 1q5 0 8 -2.5t4 -7.5q0 -6 -3 -10t-8 -6q-1 0 -1.5 -0.5t-1.5 -0.5q-16 -5 -19.5 -12.5t-4.5 -26.5q0 -28 -8 -52t-17 -45q-10 -21 -18 -39.5t-8 -34.5q0 -14 11.5 -25.5t25.5 -20.5q7 -5 14 -9t12 -7q24 -14 49.5 -24.5t54.5 -10.5
q10 0 19 2t19 5l18 4t19 2q4 0 6.5 -3t2.5 -7v-1q0 -1 -1 -2.5t-2 -3.5q-2 -2 -5.5 -5t-7.5 -5q-4 -3 -7.5 -4.5t-5.5 -2.5q-22 -11 -46 -18.5t-49 -10.5q-7 -1 -14 -1.5t-14 -0.5t-14.5 0.5t-14.5 1.5q-22 3 -43.5 9.5t-40.5 13.5q-25 9 -43 16.5t-24 7.5t-28.5 -9
t-56.5 -20q-32 -10 -71.5 -18.5t-79.5 -9.5h-3.5h-3.5q-106 0 -191 59.5t-85 174.5v0zM110 317q0 -14 4 -30t10 -31q9 -22 21 -43t25 -39q5 -6 10 -12.5t10 -11.5q43 -47 100.5 -77.5t121.5 -30.5q6 0 19 1t28 4q19 4 34.5 11.5t15.5 19.5q0 9 -6 15.5t-13 10.5q-2 1 -3.5 2
t-2.5 2q-24 16 -51 36.5t-55 44.5q-33 28 -65 58.5t-58 61.5q-13 16 -24 32t-20 31q-1 3 -2.5 6t-3.5 6q-4 7 -10 13t-13 6q-2 0 -4.5 -0.5t-5.5 -0.5q-16 -5 -31 -21t-23 -34q-4 -8 -6 -15.5t-2 -14.5v0z" />
    <glyph glyph-name="quotesingle" unicode="'" horiz-adv-x="216" 
d="M134 399h-51l-30 268h111l-30 -268v0z" />
    <glyph glyph-name="parenleft" unicode="(" horiz-adv-x="280" 
d="M71 285q0 123 44.5 224t121.5 194q1 1 1.5 2t1.5 2q3 3 6 5t6 2q4 -1 7.5 -4t4.5 -7v-1.5v-1.5q0 -2 -0.5 -4.5t-2.5 -4.5q-22 -44 -39.5 -82.5t-30.5 -76.5q-20 -56 -29.5 -114t-9.5 -131q0 -31 3 -64.5t9 -66.5q12 -65 36 -127.5t60 -113.5q0 -1 0.5 -1.5l1.5 -1.5
q0 -1 1 -2t1 -3q1 -1 1 -2v-2q0 -5 -4 -9t-9 -5q0 -1 -0.5 -1h-1.5l-1 -1q-4 1 -7.5 4t-6.5 7q-1 2 -2 3.5t-2 2.5l-63 84q-31 44 -54 97.5t-34 109.5q-4 23 -6.5 45.5t-2.5 44.5v0z" />
    <glyph glyph-name="parenright" unicode=")" horiz-adv-x="280" 
d="M213 285q0 -21 -2 -43.5t-7 -44.5q-11 -56 -33.5 -110t-54.5 -97l-63 -87q-1 0 -2.5 -2t-2.5 -4q-3 -3 -6.5 -6t-7.5 -3l-1 -1q-5 2 -9.5 6.5t-4.5 9.5v2t1 2q0 2 1 3t1 2l1.5 1.5t0.5 1.5q34 51 58 113t37 127q6 34 9.5 67.5t3.5 65.5q0 93 -19 176t-58 165
q-5 11 -11.5 22.5t-12.5 23.5q-1 2 -2 3.5t-2 3.5q-3 3 -5 7.5t-2 8.5v2v2q1 4 3.5 8t7.5 4q4 0 11 -6t14 -15q2 -2 4.5 -5t4.5 -6q7 -9 13 -18l8 -12q62 -83 94.5 -173t32.5 -194v0z" />
    <glyph glyph-name="asterisk" unicode="*" horiz-adv-x="347" 
d="M180 503q-4 0 -7 -3t-5 -7l-2 -4t-1 -3q-2 -6 -5 -17t-6 -23q-6 -17 -13.5 -31t-19.5 -15h-4.5t-4.5 1q-15 2 -27 12t-13 26v1q0 5 5.5 12.5t13.5 14.5q3 3 7 6.5t8 6.5q10 8 19.5 15t12.5 9q1 1 2.5 2t2.5 2q4 3 6.5 6t2.5 6q0 5 -4 7t-8 3h-5h-4h-52h-3.5h-3.5
q-13 1 -23.5 7.5t-10.5 21.5q0 3 0.5 6t0.5 6q3 13 10.5 23.5t19.5 10.5q14 0 24.5 -8t20.5 -17t21 -17t24 -8q5 0 7 3.5t2 7.5v0.5v1.5q-2 8 -4.5 15.5t-5.5 14.5q-5 14 -9 27.5t-4 27.5t10 20t22 7h1.5h1.5q20 0 28 -6t8 -20q0 -9 -2.5 -19.5t-5.5 -21.5q-1 -4 -2.5 -7.5
t-2.5 -7.5q-3 -8 -5.5 -15.5t-4.5 -14.5v-1.5v-0.5q0 -4 1.5 -7.5t6.5 -3.5q12 0 23.5 8t22.5 17q10 9 21.5 17t23.5 8q13 0 20.5 -11t8.5 -24q1 -2 1 -4.5v-4.5q0 -4 -0.5 -7.5t-1.5 -6.5q-3 -8 -9.5 -11.5t-14.5 -4.5q-4 -1 -7.5 -1h-6.5h-53h-4h-5q-4 -1 -7.5 -2.5
t-3.5 -5.5q0 -9 8.5 -16.5t20.5 -14.5q3 -2 5.5 -3.5t5.5 -3.5q15 -8 27.5 -18.5t12.5 -25.5v-1q-1 -14 -13.5 -25.5t-26.5 -13.5h-3.5h-2.5q-9 0 -18 13.5t-15 29.5q-7 16 -10.5 29t-3.5 14q-1 1 -1.5 3t-1.5 4q-2 4 -5 7t-8 3v0z" />
    <glyph glyph-name="plus" unicode="+" horiz-adv-x="500" 
d="M17 379h204v196h59v-196h204v-58h-204v-196h-59v196h-204v58v0z" />
    <glyph glyph-name="comma" unicode="," horiz-adv-x="249" 
d="M191 56q0 -41 -18.5 -78.5t-46.5 -66.5q-4 -5 -10.5 -11t-14.5 -13q-5 -5 -11 -9.5t-12 -8.5q-9 -6 -17.5 -10.5t-15.5 -5.5h-1h-1q-3 0 -5 1.5t-2 4.5q0 4 10 14.5t22 25.5q11 14 21 32.5t11 38.5q0 24 -10 39t-22 26q-9 8 -17 14.5t-12 12.5q-2 2 -3 4.5t-1 5.5
q0 6 7 16t17 21l9.5 9.5t9.5 8.5q12 11 23 18.5t16 7.5q27 0 45 -21t25 -47q2 -7 3 -14.5t1 -14.5v0z" />
    <glyph glyph-name="hyphen" unicode="-" horiz-adv-x="259" 
d="M227 293v-60q0 -15 -8 -21t-22 -11l-141 -48q-2 -1 -4.5 -1.5t-5.5 -1.5h-1q-5 0 -7 4t-3 10v2.5v2.5v56q0 15 4 21t15 10q2 1 4 1.5t4 1.5l147 49q1 0 2.5 0.5t2.5 0.5q1 1 2.5 1h2.5q5 0 6.5 -3.5t1.5 -7.5v-0.5v-1.5v-4v0z" />
    <glyph glyph-name="period" unicode="." horiz-adv-x="257" 
d="M42 71q0 6 8.5 16.5t21.5 22.5l6.5 6.5t7.5 6.5q14 13 26.5 22t15.5 9q5 0 17 -8.5t25 -19.5l8 -8l8 -8q12 -12 20.5 -23.5t8.5 -16.5q0 -8 -5 -14t-10 -11l-3.5 -3.5t-3.5 -2.5q-5 -4 -10.5 -10.5t-12.5 -13.5l-7.5 -7.5t-7.5 -6.5q-6 -5 -12.5 -9t-12.5 -4t-17.5 7.5
t-24.5 18.5q-5 4 -10 8.5t-9 9.5q-11 12 -19 22.5t-8 16.5v0z" />
    <glyph glyph-name="slash" unicode="/" horiz-adv-x="392" 
d="M389 691l-341 -784q-4 -7 -9.5 -13t-15.5 -6h-4.5t-5.5 1q-4 0 -8 2t-4 7q0 3 0.5 5.5t1.5 4.5l346 783q4 8 11 12t16 4h3h3q1 0 2.5 -0.5t2.5 -0.5q4 -1 4.5 -3t0.5 -5q0 -1 -0.5 -2l-0.5 -1q-1 -1 -1.5 -2t-0.5 -2v0z" />
    <glyph glyph-name="zero" unicode="0" horiz-adv-x="500" 
d="M21 278v12v12q3 66 22.5 130t60.5 116q29 38 71 64t91 26q88 0 139 -66.5t67 -146.5q3 -18 5 -36.5t2 -35.5q0 -29 -4.5 -62.5t-14.5 -67.5q-24 -89 -81 -162t-149 -73q-87 0 -135.5 65t-64.5 143q-5 21 -7 42t-2 40v0zM108 397q0 -29 4 -68t14 -80q18 -73 56 -134
t105 -64q54 0 78 40t31 89q3 18 4 36t1 34q0 27 -6 67t-19 83q-21 71 -60 129.5t-98 58.5q-50 0 -73 -37.5t-31 -82.5q-3 -19 -4.5 -37t-1.5 -34v0z" />
    <glyph glyph-name="one" unicode="1" horiz-adv-x="500" 
d="M318 533v-419l-1 -17q0 -40 26 -55t61 -17h2h2q6 0 11 -2.5t5 -8.5q0 -9 -6.5 -12t-13.5 -4h-5.5h-4.5h-4t-3 -1h-4h-4q-17 0 -34 1l-34 2q-18 1 -35 2t-34 1q-13 0 -26 -1l-26 -2q-13 0 -26 -1t-26 -1q-6 0 -8.5 3.5t-3.5 7.5v2v2q2 6 9.5 8.5t17.5 3.5q4 1 9 1.5
t10 1.5q18 4 32.5 18t14.5 53v5.5v5.5t-0.5 5.5t-0.5 5.5v353v19q0 20 -8 35.5t-31 15.5q-8 0 -14.5 -2t-12.5 -4q-3 -2 -5.5 -3t-4.5 -2q-3 -1 -6.5 -1.5t-6.5 -0.5q-5 0 -9 3.5t-4 8.5q0 10 10 16t22 10q9 3 17.5 4.5t12.5 2.5q27 6 53 14.5t47 27.5l4.5 4.5l4.5 4.5
q6 6 11.5 10.5t12.5 6.5q6 0 9 -3t4 -9q0 -12 -1 -24.5t-2 -24.5q-1 -13 -2 -25.5t-1 -24.5v0z" />
    <glyph glyph-name="two" unicode="2" horiz-adv-x="499" 
d="M400 507q0 -31 -11.5 -64t-29.5 -67q-19 -34 -43 -67.5t-49 -64.5q-22 -28 -43.5 -52.5t-39.5 -44.5l-4 -4t-4 -5t-5 -6.5t-4 -6.5q-2 -3 -2.5 -5.5t-0.5 -4.5q0 -9 7 -13t15 -5q3 -1 6 -1h6q11 0 22 0.5t22 0.5q10 0 21 0.5t22 0.5h6.5h7.5q3 -1 6.5 -1h6.5h8.5t8.5 1
q33 3 63 19t45 46l0.5 0.5t0.5 1.5q1 2 3 3.5t4 1.5q6 0 9.5 -2.5t3.5 -7.5q0 -11 -4.5 -22.5t-9.5 -22.5q-3 -5 -5.5 -10.5t-4.5 -10.5q-7 -15 -12.5 -28t-10.5 -24q-10 -22 -23.5 -32.5t-44.5 -10.5q-19 0 -38.5 0.5t-38.5 1.5q-20 0 -39 1t-39 1q-16 0 -31.5 -1t-31.5 -1
q-16 -1 -31.5 -1.5t-31.5 -0.5h-1.5h-0.5q-7 0 -12 2.5t-5 9.5v1q1 10 40.5 56t86.5 111q23 30 45 63.5t39 67.5q20 37 32 74.5t12 70.5q0 50 -28.5 80t-78.5 30h-3.5h-3.5q-32 -2 -62 -18.5t-49 -41.5l-1 -1l-1 -1l-2 -2l-2 -2h-2.5t-2.5 1q-4 1 -7 4t-3 7q0 5 6 14.5
t15 20.5q2 2 4.5 5t4.5 5q9 10 16.5 17.5t11.5 10.5q29 26 65 40t74 14q59 0 105 -34t46 -97v0z" />
    <glyph glyph-name="three" unicode="3" horiz-adv-x="500" 
d="M434 238q0 -105 -71 -177.5t-176 -72.5h-9t-9 1q-34 3 -66.5 16.5t-57.5 35.5l-4 4t-5 4q-4 5 -8 10.5t-4 10.5v1q0 4 3 7.5t6 4.5h0.5h1.5q3 0 14.5 -9t28.5 -20q17 -12 40.5 -21t50.5 -9q68 0 113.5 53t45.5 119v8.5t-1 8.5q-4 37 -27 67.5t-63 30.5q-7 0 -13.5 -1
t-13.5 -2t-13.5 -2t-13.5 -1q-5 0 -8.5 4.5t-3.5 9.5q0 4 20 16t45 32q24 20 44 48.5t20 66.5q0 40 -27 69.5t-68 29.5q-26 0 -46 -10t-35 -22q-14 -12 -24.5 -22t-17.5 -10h-1q-4 0 -6.5 3t-2.5 7q0 5 2.5 10l5.5 11l8 10t9 10q5 6 10 10.5t9 7.5q27 23 61.5 37.5
t70.5 14.5h7.5t6.5 -1q46 -4 84.5 -33t42.5 -77q0 -43 -25.5 -76.5t-57.5 -59.5l-0.5 -0.5t-1.5 -0.5l-2 -2t-1 -2v-1q0 -3 2.5 -4.5t5.5 -2.5q2 -1 4 -1h3q56 -4 87 -45t31 -94v0z" />
    <glyph glyph-name="four" unicode="4" horiz-adv-x="500" 
d="M376 128v-132v-4.5t1 -5.5v-5.5v-5.5q0 -11 -5 -14t-19 -3q-9 -2 -18 -3.5t-17 -2.5l-18 -4l-18 -4h-1.5h-0.5q-3 1 -6 3.5t-3 5.5q0 9 1 17.5t2 16.5l2 16t1 17v108l1 14q-1 9 -8 12.5t-15 4.5h-6h-6h-193h-8h-2.5h-2.5q-7 0 -13.5 3t-7.5 12q0 17 7.5 31.5t17.5 28.5
q1 3 2.5 5.5t3.5 4.5q11 17 53 76t92 127q4 6 8 11t8 11q54 72 101.5 129.5t59.5 57.5q5 0 6.5 -3.5t1.5 -8.5v-33v-33q-1 -17 -1 -33.5v-33.5v-230q0 -13 3.5 -23.5t19.5 -10.5q19 0 33 7t20 26q0 1 0.5 1.5l0.5 0.5q1 3 2.5 4.5t4.5 1.5q6 0 10.5 -3t4.5 -10v-2v-2
t-0.5 -2t-0.5 -2q-1 -6 -1.5 -14t-1.5 -16v-8v-9q-2 -17 -5.5 -32.5t-15.5 -23.5q-5 -4 -12 -5t-15 -1h-23q-13 0 -18.5 -4.5t-5.5 -25.5v0zM277 279v34.5v35.5q0 17 -0.5 34.5t-0.5 34.5q1 9 1 18v18v6.5v7.5q-1 3 -1 6.5v6.5v1.5v1.5q0 2 -1 3.5t-3 1.5h-1q-3 -1 -29 -32
t-57 -70q-4 -5 -7.5 -9.5t-7.5 -9.5q-28 -38 -50 -71t-22 -45q1 -5 6.5 -7t12.5 -2h4.5h4.5h4h3h111q14 0 24 3.5t10 20.5l-1 12v0z" />
    <glyph glyph-name="five" unicode="5" horiz-adv-x="500" 
d="M369 516h-142h-39q-18 0 -27 -20t-12 -43q-3 -15 -3.5 -28.5t-0.5 -22.5q0 -5 3 -9.5t9 -4.5q10 0 19.5 1t18.5 2q10 1 19.5 2t18.5 1h1.5h1.5q74 -1 136 -41.5t62 -124.5q0 -106 -72.5 -173t-177.5 -67q-7 0 -28 3t-45 9q-29 6 -52.5 15.5t-23.5 22.5q0 5 3 8.5t7 4.5
q15 0 30 -4.5t31 -9.5q15 -5 31 -9.5t32 -4.5q65 0 117.5 43t52.5 112q0 58 -41.5 92t-96.5 34q-11 0 -21.5 -1t-21.5 -2q-11 -2 -21.5 -3t-21.5 -1q-8 0 -12.5 7t-5.5 15v1.5v1.5q0 3 0.5 6t1.5 7q0 1 0.5 2.5t0.5 3.5q1 1 1.5 3t0.5 3q5 25 9 53.5t7 57.5q1 8 2 17l2 18
q2 16 4 31.5t4 29.5q1 3 1 7t1 8v4v4q2 13 6.5 24.5t20.5 11.5h7h178q14 0 25.5 2.5t21.5 12.5q2 2 4 4.5t5 5.5t6.5 6t6.5 5q1 0 2.5 0.5t2.5 0.5q4 0 7 -1t3 -6t-3.5 -23t-9.5 -39l-6 -20t-6 -19q-3 -8 -6 -13.5t-6 -8.5t-6.5 -3.5t-8.5 -0.5h-7v0z" />
    <glyph glyph-name="six" unicode="6" horiz-adv-x="500" 
d="M28 243q0 146 99.5 256t239.5 136q3 1 6.5 1.5t6.5 1.5q3 0 5.5 1t4.5 1q6 1 11.5 2t11.5 1q9 0 11.5 -4t4.5 -11v-1.5v-1.5q0 -3 -4 -5t-8 -3q-2 -1 -4.5 -1.5t-4.5 -0.5q-12 -2 -24 -5.5t-24 -7.5q-38 -16 -73.5 -42t-59.5 -54q-1 -1 -1.5 -2t-1.5 -2q-5 -6 -11 -14.5
t-12 -18.5q-5 -10 -11 -20.5t-11 -21.5q-7 -15 -12 -30.5t-6 -27.5v-1.5v-0.5q1 -4 3.5 -7.5t6.5 -3.5h1q9 2 20.5 9t26.5 15q17 10 40 17.5t54 7.5q73 0 115.5 -56.5t42.5 -124.5q0 -100 -60 -168t-164 -68q-105 0 -162 79t-57 176v0zM131 218q0 -15 2.5 -32t6.5 -34
q13 -51 46.5 -93t87.5 -42q44 0 67.5 33t30.5 72q2 9 2.5 17.5t0.5 16.5q0 13 -1 27t-4 29q-10 51 -40 94t-88 43q-52 0 -81 -40t-30 -88v-1.5v-1.5v0z" />
    <glyph glyph-name="seven" unicode="7" horiz-adv-x="500" 
d="M343 534h-129l-44 1q-39 0 -56 -14t-24 -30q-3 -7 -4.5 -13.5t-3.5 -12.5q-2 -7 -5 -12.5t-8 -5.5q-6 0 -9.5 5t-4.5 10q-1 3 -1 5.5v4.5q0 23 4.5 43t10.5 39q0 2 0.5 3.5t1.5 2.5l8 28t6 29q2 5 4.5 8t7.5 3q11 0 21.5 -0.5t21.5 -0.5q10 0 21 -0.5t21 -0.5h45h135h19
h3.5h3.5q14 0 26 -4.5t12 -22.5q0 -6 -0.5 -11.5t-0.5 -10.5q-3 -37 -15 -73.5t-26 -69.5q-1 -2 -1.5 -3.5t-1.5 -3.5l-45 -105q-3 -8 -6.5 -16t-6.5 -16q-18 -44 -33.5 -90.5t-20.5 -92.5q0 -7 -0.5 -14t-0.5 -14q0 -18 2 -34.5t5 -29.5q3 -14 5 -23t2 -13q0 -6 -4.5 -8.5
t-10.5 -3.5q-7 0 -15.5 -2.5t-17.5 -5.5q-8 -2 -17.5 -4.5t-18.5 -2.5q-34 0 -40.5 17.5t-6.5 45.5q0 79 35 147.5t78 129.5q42 62 77 117.5t35 108.5q0 10 -6.5 13t-14.5 3h-3h-2h-7v0z" />
    <glyph glyph-name="eight" unicode="8" horiz-adv-x="500" 
d="M60 461q0 83 64 130t140 47q9 0 17.5 -0.5t17.5 -2.5q52 -8 95.5 -41.5t43.5 -91.5q0 -42 -17.5 -67t-38.5 -39t-38.5 -19.5t-17.5 -9.5v-1q0 -3 4.5 -6t9.5 -5q4 -2 7.5 -3t5.5 -2q50 -21 82 -63t32 -98q0 -102 -64.5 -151.5t-159.5 -49.5q-82 0 -146 45.5t-64 134.5
q0 48 28 84t69 58q1 1 2 1.5t2 1.5q2 1 4 2.5t2 2.5t-0.5 1.5t-0.5 1.5q-1 1 -2 2.5t-3 2.5q-1 1 -2 1.5t-2 1.5q-32 23 -51 57.5t-19 74.5v0zM105 185q0 -69 45 -118t115 -49q49 0 88 30t39 82q0 47 -25.5 76t-67.5 45q-7 3 -23.5 10t-35.5 14q-1 1 -1.5 1t-1.5 1
q-22 9 -41.5 16.5t-23.5 7.5t-8 -1.5t-9 -4.5q-4 -3 -8.5 -6.5t-8.5 -6.5q-3 -4 -6 -7t-5 -6q-11 -16 -15.5 -33.5t-6.5 -35.5v-7.5v-7.5v0zM130 514q0 -43 35.5 -74.5t77.5 -45.5q13 -4 26 -6t25 -2q34 0 54.5 26t24.5 58q1 3 1 6.5v7.5q0 56 -38 90.5t-92 34.5
q-5 0 -9.5 -0.5t-9.5 -0.5q-35 -6 -65 -31t-30 -63v0z" />
    <glyph glyph-name="nine" unicode="9" horiz-adv-x="500" 
d="M30 397q0 95 55.5 168t158.5 73q108 0 168 -74t60 -178q0 -147 -97 -258t-240 -136q-3 -1 -6.5 -1.5t-7.5 -1.5q-3 0 -5.5 -1t-4.5 -1q-7 -1 -13 -2t-12 -1t-9.5 3.5t-3.5 10.5q0 6 5.5 9t12.5 4q2 0 4 0.5t4 0.5q1 0 2 0.5t2 0.5q41 9 79.5 31.5t68.5 52.5q7 7 14 15
t15 18q11 14 22 30.5t19 33.5q8 16 13 32t5 30v2v2q-1 4 -3.5 7t-6.5 3h-1q-2 0 -15.5 -8t-33.5 -17q-16 -8 -33.5 -14.5t-35.5 -9.5q-7 -1 -13 -1.5t-12 -0.5q-62 0 -103.5 48t-49.5 106q-1 6 -1.5 12t-0.5 12v0zM125 465q0 -12 1 -24t3 -24q10 -53 41.5 -97t90.5 -44
q49 0 76 37t31 81q1 4 1 8.5v8.5q0 13 -1.5 27.5t-5.5 28.5q-13 53 -48 97t-92 44q-42 0 -63.5 -30.5t-28.5 -67.5q-3 -12 -4 -23.5t-1 -21.5v0z" />
    <glyph glyph-name="colon" unicode=":" horiz-adv-x="293" 
d="M73 71q0 6 8.5 16.5t20.5 21.5q3 4 7 7.5t7 6.5q15 13 27.5 22t15.5 9q6 0 17.5 -8t23.5 -20q4 -4 8 -7.5t8 -7.5q13 -13 21.5 -24.5t8.5 -16.5q0 -8 -5 -14t-10 -11l-3.5 -3.5t-3.5 -2.5q-5 -4 -10.5 -10.5t-12.5 -13.5l-7.5 -7.5t-7.5 -6.5q-6 -5 -12.5 -9t-12.5 -4
t-17.5 7.5t-24.5 18.5q-5 4 -10 9t-10 9q-11 12 -18.5 22.5t-7.5 16.5v0zM73 285q0 4 9.5 15.5t22.5 24.5q3 3 6 5.5t6 5.5q14 12 26 21.5t16 9.5q5 0 17 -8.5t25 -19.5q4 -4 8.5 -8t7.5 -8q12 -12 20.5 -22.5t8.5 -16.5q0 -8 -5 -14.5t-10 -11.5l-3.5 -3.5t-3.5 -2.5
q-5 -4 -10.5 -10.5t-11.5 -12.5q-9 -11 -19.5 -19.5t-21.5 -9.5h-1q-5 0 -17 8.5t-25 21.5l-6.5 6.5t-7.5 6.5q-13 14 -22 26t-9 16v0z" />
    <glyph glyph-name="semicolon" unicode=";" horiz-adv-x="266" 
d="M197 56q0 -41 -18 -78.5t-46 -66.5q-5 -5 -11.5 -11t-13.5 -13l-12 -10t-12 -9q-9 -6 -17.5 -10t-15.5 -5q-3 0 -5.5 1t-2.5 5q0 5 10 16t22 26q11 14 21 31.5t11 37.5q0 24 -10 39t-22 26q-9 7 -16.5 13t-12.5 12q-2 3 -3 5.5t-1 5.5q0 6 7 16.5t18 21.5q4 4 8 8.5
t9 8.5q12 11 23 19t16 8q27 0 45 -21t25 -47q2 -7 3 -14.5t1 -14.5v0zM33 284q0 7 4 12.5t10 10.5q2 1 3.5 3t3.5 3t3.5 2.5l2.5 2.5q21 19 35 34t24 15q5 0 17 -8t25 -20q5 -4 9.5 -8.5l8.5 -8.5q11 -12 19 -22.5t8 -16.5q0 -8 -5 -14t-10 -11l-3.5 -3.5t-3.5 -2.5
q-4 -4 -10 -10.5t-13 -13.5l-7.5 -7.5l-7.5 -7.5q-7 -5 -13 -9t-12 -4t-17.5 8.5t-24.5 19.5l-8 8l-8 8q-13 12 -21.5 23.5t-8.5 16.5v0z" />
    <glyph glyph-name="less" unicode="&#x3c;" horiz-adv-x="500" 
d="M459 622v-49l-285 -183l285 -191v-131l-418 282v7l418 265v0z" />
    <glyph glyph-name="equal" unicode="=" horiz-adv-x="500" 
d="M16 305h468v-56h-468v56v0zM16 450h468v-55h-468v55v0z" />
    <glyph glyph-name="greater" unicode="&#x3e;" horiz-adv-x="500" 
d="M41 68v49l284 183l-284 191v131l418 -282v-7l-418 -265v0z" />
    <glyph glyph-name="question" unicode="?" horiz-adv-x="339" 
d="M83 71q0 8 5 14t10 11q2 1 3.5 2t2.5 2q5 4 11.5 11t14.5 14q2 2 4 4.5t4 4.5q9 8 17 14t14 6q5 0 16.5 -8t24.5 -20q4 -4 8.5 -8t8.5 -8q11 -12 19.5 -23.5t8.5 -16.5q0 -9 -5.5 -15.5t-12.5 -11.5l-2 -2l-2 -2q-4 -4 -9.5 -10.5t-12.5 -13.5l-8 -8t-8 -7
q-6 -5 -12.5 -8.5t-11.5 -3.5q-6 0 -17.5 7.5t-24.5 18.5q-5 4 -10 9t-10 9q-11 12 -18.5 22.5t-7.5 16.5v0zM313 569q0 -29 -13.5 -55t-32.5 -51q-6 -8 -12.5 -16t-12.5 -16q-27 -34 -49 -70.5t-22 -80.5q0 -4 0.5 -8t1.5 -8q0 -4 0.5 -8t0.5 -8q0 -3 -2 -5t-5 -3
q-1 0 -2 -0.5t-2 -0.5q-9 1 -15 12t-9 24q-3 9 -4 17.5t-1 13.5q0 33 11 63t24 59q0 1 0.5 2t0.5 2q13 29 23 58t10 60q0 28 -18.5 49t-47.5 21q-18 0 -30 -7.5t-20 -15.5q-5 -6 -9.5 -11t-8.5 -9q-2 -2 -4.5 -3t-5.5 -1q-4 0 -7.5 3t-4.5 6v0.5v1.5q0 5 2 10t5 11
q3 4 5.5 8t5.5 7q4 5 7 8.5t6 6.5q21 21 49 32t58 11q49 0 88.5 -28t39.5 -81v0z" />
    <glyph glyph-name="at" unicode="@" horiz-adv-x="778" 
d="M613 128l38 -9q-13 -12 -26 -23.5t-26 -21.5q-49 -40 -101.5 -63t-124.5 -23q-127 0 -222.5 96t-95.5 223q0 164 108.5 269t268.5 105q116 0 204 -73t88 -194v-4.5v-4.5q-2 -59 -24.5 -115.5t-66.5 -97.5q-24 -22 -54 -37.5t-63 -15.5q-32 0 -48.5 24t-19.5 53v2.5v2.5
q-22 -31 -55.5 -57.5t-74.5 -26.5q-44 0 -68.5 33t-29.5 73q0 5 -0.5 10.5t-0.5 10.5q0 21 4.5 44.5t12.5 47.5q23 63 69.5 116t109.5 53q29 0 52 -14t39 -38l9 39q16 0 31.5 1.5t31.5 4.5l-65 -242q-1 -2 -1.5 -4t-0.5 -4q-2 -6 -3.5 -13t-3.5 -14q-1 -5 -1.5 -11t-0.5 -12
v-2.5v-2.5q1 -14 8 -25.5t22 -11.5q24 0 45 14.5t37 32.5q2 2 4 4.5t4 4.5q31 37 46.5 82t15.5 93q0 106 -74.5 171.5t-176.5 65.5q-66 0 -127.5 -23.5t-108.5 -71.5q-24 -25 -45 -63.5t-35 -79.5q-7 -23 -11.5 -46.5t-4.5 -44.5q0 -115 84.5 -202t200.5 -87q68 0 122 30.5
t105 71.5v0zM459 337l26 78q1 3 1.5 6.5t0.5 7.5q0 25 -14.5 44.5t-40.5 19.5q-45 0 -78 -45.5t-52 -99.5q-10 -30 -15.5 -58.5t-5.5 -49.5v-6.5t1 -6.5q3 -22 15 -39.5t36 -17.5q39 0 64 31.5t40 69.5q7 18 12.5 35t9.5 31v0z" />
    <glyph glyph-name="A" unicode="A" horiz-adv-x="715" 
d="M388 613l222 -511q16 -37 36.5 -56t60.5 -27q6 -1 7.5 -5.5t1.5 -9.5t-4 -7.5t-9 -2.5q-37 6 -73.5 8t-74.5 2h-19t-20 -1q-18 0 -35 -1.5t-30 -3.5q-1 0 -3 -0.5t-3 -0.5q-2 -1 -3.5 -1h-3.5q-5 0 -9.5 3t-4.5 9v0.5v0.5q1 5 11 10t22 12q12 8 22 19.5t10 29.5
q0 13 -3.5 27.5t-9.5 29.5q-4 9 -8 18.5t-8 18.5q-5 9 -9 18t-8 17q-5 10 -12 16.5t-18 8.5q-10 2 -24 2.5t-29 0.5h-3h-4h-125q-30 -2 -43 -16t-22 -36q-2 -4 -4.5 -9.5t-4.5 -10.5l-4 -10l-4 -10q-4 -7 -7 -15t-5 -16q-1 -4 -1.5 -8.5t-0.5 -8.5q0 -37 27 -53.5t59 -20.5
h2t2 -1q5 -1 9.5 -3.5t4.5 -8.5v-1q-1 -6 -5.5 -8.5t-9.5 -3.5h-1.5h-1.5q-11 0 -22 1.5t-22 2.5q-12 1 -23 2.5t-22 1.5q-14 0 -28.5 -1t-28.5 -3q-14 -1 -28.5 -2t-29.5 -1q-5 0 -9 1.5t-4 7.5q0 7 3 11t10 5q28 9 44.5 33t28.5 51q2 6 5 12.5t6 13.5q1 3 2.5 7t3.5 7
l133 308q5 13 11 25.5t12 24.5l45 94q2 3 7 15t11 25q2 2 3 4.5t2 4.5q6 13 12 22.5t9 9.5q2 0 5 -2.5t5 -6.5l4 -6t3 -6q4 -6 6.5 -12t3.5 -8l12 -26v0zM406 307l-63 149q-1 3 -4.5 10.5t-7.5 15.5l-3.5 7t-3.5 6q-4 7 -7.5 11t-6.5 4q-1 0 -2 -0.5l-1 -0.5q-3 -2 -6 -7
l-6 -10l-4 -10t-3 -7l-9 -20l-57 -131q0 -1 -1 -2t-1 -2q-3 -5 -5 -10t-2 -11q0 -8 6.5 -11.5t13.5 -4.5h6h5h4h134h11h3.5t3.5 1q4 0 7.5 2.5t3.5 6.5q0 3 -1 5.5t-2 5.5l-1.5 1.5t-0.5 1.5v0z" />
    <glyph glyph-name="B" unicode="B" horiz-adv-x="710" 
d="M147 142v386q0 41 -18 72t-62 36h-3h-4h-2.5h-2.5q-8 1 -14.5 3.5t-6.5 11.5v1.5v0.5q0 5 2 9t8 4q15 0 30.5 -0.5t30.5 -1.5q10 -1 20.5 -1.5t20.5 -0.5q27 0 54 2t54 5l54 4t54 2q17 0 34.5 -1t35.5 -4q67 -10 122 -45.5t55 -112.5q0 -39 -15 -62.5t-33 -36.5
q-18 -14 -33 -21t-15 -13v-1q0 -3 3 -5t7 -3q2 -1 4.5 -1.5t3.5 -0.5q61 -12 97 -55t36 -105q0 -43 -16 -82.5t-48 -68.5q-40 -37 -89.5 -47t-102.5 -10h-45t-45 1q-23 1 -45.5 1.5t-45.5 0.5q-17 0 -34 -1l-34 -2q-18 -2 -35 -3t-34 -1q-6 0 -10.5 2.5t-4.5 9.5q0 4 2.5 6
t7.5 4q5 3 12 5.5t14 7.5q14 9 25 29t11 62v20v0zM259 244q0 -35 0.5 -70.5t4.5 -70.5q2 -32 26 -48t53 -20q7 -1 14 -1.5t14 -0.5q77 0 127.5 33t50.5 118q0 93 -62.5 122t-137.5 33q-12 1 -24 1h-23q-26 0 -34 -19t-9 -42v-6v-6v-23v0zM259 570v-140q0 -31 14.5 -41.5
t42.5 -10.5h12.5h12.5q6 -1 12.5 -1h12.5q59 0 97.5 19t38.5 86q0 68 -47.5 113t-114.5 45q-43 0 -62 -12t-19 -58v0z" />
    <glyph glyph-name="C" unicode="C" horiz-adv-x="678" 
d="M40 318q0 144 95 253t244 109q45 0 80.5 -10t60.5 -21q26 -12 42.5 -22t23.5 -10q5 0 9.5 1.5t7.5 5.5q1 1 1 2t1 2v0v0q3 5 5.5 9t7.5 6h1.5t0.5 1h1.5h0.5q7 0 10 -6t4 -12q1 -4 1 -7.5v-6.5v-36q0 -23 1.5 -41t4.5 -33q1 -13 2.5 -24t2.5 -22v-4.5v-5.5v-2v-3
q0 -5 -2.5 -10t-9.5 -6q-6 0 -8 3.5t-4 8.5q-2 12 -9.5 27t-17.5 31q-5 9 -11 17.5t-13 16.5q-9 13 -18 23t-16 17q-36 35 -80 56.5t-95 21.5q-91 0 -140.5 -67.5t-61.5 -147.5q-3 -15 -4 -29.5t-1 -28.5v-10.5t1 -10.5q2 -59 21 -115t57 -101q32 -36 76 -61.5t93 -25.5
q68 0 124 34.5t99 83.5l1.5 1.5l1.5 1.5q2 2 4.5 3.5t5.5 1.5t6 -3t4 -6v-0.5v-1.5q0 -6 -4 -14.5t-10 -17.5q-3 -5 -6 -9l-6 -8q-7 -8 -13 -14.5t-10 -10.5q-47 -49 -109 -76t-130 -27q-145 0 -234 93t-89 237v0z" />
    <glyph glyph-name="D" unicode="D" horiz-adv-x="792" 
d="M148 133v405q0 47 -26 72t-73 25q-7 0 -11 3t-4 10t5.5 10.5t11.5 3.5q2 1 4 1h4q11 0 21 -0.5t21 -0.5q10 0 20.5 -0.5t20.5 -0.5q29 0 58 2.5t58 5.5q28 2 57 4.5t58 2.5q146 0 263 -73t117 -237q0 -154 -104.5 -260t-259.5 -106q-21 0 -42.5 0.5t-42.5 1.5
q-21 0 -42.5 1t-42.5 1q-16 0 -31.5 -1t-31.5 -3l-30 -2t-30 -1q-7 0 -9.5 3.5t-2.5 9.5q0 5 3.5 7.5t8.5 4.5q4 1 9.5 3t10.5 5q12 6 22 24t10 59v20v0zM261 564v-409q0 -72 28.5 -96t97.5 -24q128 0 187.5 90t59.5 205q0 134 -82 222t-218 88q-43 0 -58 -12.5t-15 -43.5
v-20v0z" />
    <glyph glyph-name="E" unicode="E" horiz-adv-x="594" 
d="M253 554v-106q0 -10 0.5 -20t1.5 -21q1 -13 8.5 -20.5t20.5 -7.5h22q17 2 30.5 2.5t24.5 0.5q18 0 31 2.5t25 12.5q8 8 17.5 22.5t20.5 37.5q0 1 0.5 1.5l1.5 1.5q1 2 3 3.5t6 2.5q7 0 10.5 -2.5t3.5 -10.5q0 -5 -0.5 -10.5t-0.5 -10.5q0 -6 -0.5 -11.5t-0.5 -10.5
q0 -20 1 -40.5t2 -40.5q1 -5 1 -9v-8q1 -16 2 -32.5t2 -32.5q0 -5 -2 -9t-7 -4h-1q-6 0 -9 5.5t-5 13.5q-2 7 -4 15t-6 16q-8 19 -27.5 34.5t-62.5 15.5h-63q-25 0 -33.5 -9t-10.5 -35q-1 -14 -1.5 -28t-0.5 -28v-29v-28v-21t1 -22q1 -15 3.5 -29.5t6.5 -26.5q8 -22 20 -30
t34 -8q88 0 138.5 20t76.5 44q24 22 33.5 41t15.5 22h0.5t1.5 1h0.5h0.5q5 0 8 -4.5t3 -9.5q0 -83 -48.5 -123t-128.5 -40q-25 0 -49.5 2t-49.5 4t-50 3.5t-50 1.5q-34 0 -67.5 -1t-66.5 -4q-7 0 -11 1.5t-5 8.5q0 5 3.5 8.5t7.5 4.5q43 16 51 51t8 75v10v387
q0 50 -16.5 69.5t-35.5 24.5q-7 3 -14 4t-13 2q-10 1 -17 3.5t-8 9.5q0 5 2 9t8 5q27 0 54 -1t54 -1q26 -1 53 -2t54 -1h24.5h25.5t25.5 0.5t24.5 0.5l111 2q7 0 14 0.5t14 0.5t14 0.5t14 0.5t10.5 -4t4.5 -12q0 -13 1 -26.5t2 -26.5t2 -26.5t1 -26.5q0 -3 -0.5 -6t-0.5 -7
q-2 -7 -5 -12.5t-10 -7.5q-7 0 -9.5 5t-2.5 10v3.5v2.5q-2 55 -39.5 72t-81.5 19q-6 1 -12 1h-12h-8h-8q-4 -1 -8 -1h-8h-8.5t-8.5 1h-9h-9q-28 0 -41 -9.5t-15 -43.5v-21v0z" />
    <glyph glyph-name="F" unicode="F" horiz-adv-x="558" 
d="M252 563v-140q0 -19 5.5 -32.5t28.5 -13.5q18 1 36 1h36q38 1 56 19.5t32 47.5q1 3 2 5.5t2 4.5q2 5 4.5 8t6.5 3h1q7 -1 10 -3.5t3 -10.5v-6t-1 -5q0 -24 1.5 -48t3.5 -47q2 -24 3.5 -48t1.5 -48q0 -6 -1.5 -9.5t-8.5 -5.5q-6 0 -9.5 3t-4.5 10q-11 59 -39 72.5
t-82 13.5h-23h-8h-8q-12 -1 -23.5 -3t-17.5 -8q-5 -5 -6.5 -18t-1.5 -28v-2v-2v-28.5t1 -28.5v-29.5v-28.5q0 -57 17.5 -93.5t81.5 -41.5q9 -1 13 -5.5t4 -9.5q0 -4 -3.5 -7.5t-8.5 -3.5q-9 0 -17.5 1t-17.5 1q-8 1 -17 1.5t-18 0.5q-24 0 -48 -0.5t-48 -1.5
q-8 -1 -16.5 -1.5t-16.5 -0.5l-32 -2l-32 -2h-1.5h-0.5q-6 1 -10.5 3.5t-4.5 8.5t2.5 8.5t7.5 3.5q1 1 2 1.5t2 0.5q27 8 36.5 30.5t11.5 47.5q1 10 1 19.5v18.5v402q0 50 -20 76.5t-72 27.5q-6 1 -9.5 3t-3.5 9q0 9 5.5 11.5t13.5 2.5q11 -1 21.5 -1.5t21.5 -1.5
q10 0 21 -0.5t21 -0.5l84 2h128q43 1 85.5 3t85.5 4h1q9 0 11.5 -7t2.5 -15v-1.5v-1.5l2 -16l2 -16q0 -4 0.5 -8t1.5 -7l2 -24t1 -24v-7t-1 -9q-1 -7 -4 -13.5t-9 -7.5q-6 0 -10 2t-4 9v19q0 37 -27 54.5t-59 23.5q-12 2 -24 3t-22 1h-71q-10 0 -20.5 -0.5t-21.5 -4.5
q-13 -5 -16.5 -17t-3.5 -26v-16v0z" />
    <glyph glyph-name="G" unicode="G" horiz-adv-x="740" 
d="M40 295q0 71 18.5 137.5t62.5 121.5q46 58 111 92t138 34q41 0 79 -9t69 -20q31 -12 53.5 -21t31.5 -9q4 0 7.5 2t6.5 5v0l1 1q3 2 6.5 4.5t8.5 2.5q7 0 10.5 -5t3.5 -13q0 -10 -0.5 -21t-0.5 -21q0 -11 -0.5 -21.5t-0.5 -21.5t0.5 -22.5t1.5 -22.5q1 -12 1.5 -23.5
t0.5 -22.5q-1 -5 -5.5 -8.5t-9.5 -3.5t-7 2t-3 6l-2 6t-2 7q-15 83 -86 138.5t-154 55.5q-110 0 -158.5 -77.5t-57.5 -170.5q-2 -15 -2.5 -29.5t-0.5 -28.5q0 -24 3.5 -51t10.5 -55q20 -77 69 -141.5t131 -64.5q13 0 29.5 2.5t32.5 7.5q22 6 42.5 14.5t34.5 19.5
q12 9 17.5 25.5t7.5 33.5q1 11 1.5 22t0.5 20q0 59 -18 81t-40 27q-8 2 -15.5 2.5t-13.5 1.5q-13 1 -21 3.5t-8 11.5q0 6 5 9t12 4h0.5h1.5q18 0 35.5 -1t34.5 -1q17 -1 34.5 -2t35.5 -1q14 0 28.5 1t28.5 2t28.5 2t28.5 1h1.5h0.5q6 -1 10.5 -4.5t4.5 -8.5t-3.5 -8t-8.5 -5
q-1 -1 -2.5 -1.5t-2.5 -0.5q-32 -7 -40 -31t-9 -52q-1 -2 -1 -4v-3v-1.5v-1.5q0 -11 0.5 -22.5t1.5 -22.5q0 -12 0.5 -23.5t0.5 -22.5q0 -13 -9.5 -19.5t-21.5 -11.5q-16 -6 -31 -12t-29 -12q-12 -5 -24.5 -10.5t-24.5 -10.5q-38 -16 -78.5 -26.5t-93.5 -10.5
q-130 0 -214.5 89t-84.5 218v0z" />
    <glyph glyph-name="H" unicode="H" horiz-adv-x="834" 
d="M533 332h-231q-35 0 -43 -11.5t-8 -44.5v-122v-11.5t1 -11.5q3 -40 22 -73.5t68 -33.5h4h4q5 -1 9.5 -3.5t4.5 -8.5q0 -7 -5.5 -10t-11.5 -4q-2 -1 -4 -1h-4q-18 0 -35.5 1.5t-34.5 2.5q-18 2 -35.5 3.5t-35.5 1.5q-12 0 -24 -0.5t-25 -0.5q-16 -1 -32.5 -3t-31.5 -4
h-1.5h-1.5q-6 0 -12 3t-6 12q0 2 1.5 3.5l3.5 3.5q5 3 14 7t18 10q14 10 25.5 29t11.5 55v9.5t1 8.5v9.5v8.5v389q0 52 -22.5 70.5t-69.5 27.5q-7 2 -10 5t-3 10q0 8 5 11t12 3q7 -1 14.5 -1.5t14.5 -1.5t14.5 -2t14.5 -1q14 -2 28.5 -3t29.5 -1q25 0 50.5 2t50.5 5
q8 1 16.5 1.5t16.5 1.5h3.5h3.5q5 -1 10 -3.5t5 -9.5q0 -6 -4.5 -9t-9.5 -4q-32 -6 -45 -24t-13 -49v-126v-18q0 -29 8 -39t46 -10h228h5h5q8 1 15 4t11 10q5 9 6 19.5t1 20.5v111q0 37 -14.5 61.5t-54.5 32.5q-1 0 -3 0.5t-4 0.5h-3.5t-4.5 1q-8 1 -14.5 4.5t-6.5 12.5
q0 8 5 11t12 3q7 -1 14.5 -1.5t14.5 -1.5q22 -3 44 -5t44 -2q17 0 33.5 1t33.5 3q8 0 16.5 1t16.5 2t16.5 1.5t16.5 1.5h4h4q5 -1 9.5 -3.5t4.5 -8.5q0 -7 -4 -10t-10 -4q-32 -6 -45 -24t-13 -49v-420v-11.5t1 -11.5q3 -40 22 -73.5t68 -33.5h3.5h3.5q5 -1 10 -3.5t5 -9.5
t-5.5 -10t-11.5 -3q-2 -1 -4 -1h-4q-18 0 -35.5 1.5t-34.5 2.5q-18 2 -35.5 3.5t-35.5 1.5q-13 0 -27.5 -0.5t-28.5 -1.5t-28 -2.5t-28 -3.5h-2h-2q-7 1 -12.5 4t-5.5 11q0 3 2 5t6 4q6 2 13.5 5.5t16.5 9.5q13 10 24 31t13 63v26v108v21q0 25 -6.5 35.5t-26.5 10.5h-10v0z
" />
    <glyph glyph-name="I" unicode="I" horiz-adv-x="406" 
d="M260 550v-379q0 -55 15 -100.5t84 -45.5q6 0 11 -2t6 -9q0 -9 -6.5 -12t-14.5 -4h-2.5h-3.5q-18 0 -36.5 1t-36.5 3q-19 1 -37.5 2.5t-36.5 1.5q-14 0 -27.5 -1t-26.5 -3q-4 0 -8 -0.5t-7 -1.5q-10 0 -20 -1l-20 -2q-6 0 -10.5 1.5t-6.5 7.5q0 3 2 6t6 5q5 3 12.5 7
t15.5 9q13 10 24 28t11 52q0 9 0.5 17.5t0.5 17.5v17.5v17.5v342v6.5v6.5q-1 3 -1 6.5v6.5q0 42 -17.5 58.5t-37.5 21.5q-7 2 -14 3.5t-13 2.5q-12 2 -20.5 5t-8.5 12q0 5 3 9.5t9 4.5q4 0 7.5 -0.5t6.5 -0.5q2 -1 5 -1.5t6 -0.5q7 -2 18 -3t29 -1q25 0 49.5 1.5t48.5 3.5
q25 2 49.5 3.5t48.5 1.5q7 0 10 -2.5t4 -9.5q0 -7 -3 -10.5t-11 -5.5q-38 -6 -46.5 -23t-9.5 -53v-17v0z" />
    <glyph glyph-name="J" unicode="J" horiz-adv-x="330" 
d="M237 543v-395v-6v-5v-6v-6q-1 -34 -3.5 -68.5t-15.5 -66.5q-5 -13 -15 -30t-23 -34q-17 -23 -37.5 -44.5t-42.5 -34.5q-11 -6 -22 -10t-22 -4q-6 0 -16.5 1.5t-20.5 4.5q-17 4 -30.5 12t-13.5 21q0 4 1 18t4 29q2 19 7 34t12 15q13 0 22.5 -10t18.5 -22l0.5 -0.5
t0.5 -1.5q9 -12 19.5 -22.5t25.5 -10.5l1 -1q17 2 25 18.5t11 36.5q1 13 1.5 24.5t0.5 19.5l-1 31v367v72q0 23 -0.5 45t-2.5 44q-5 52 -28 64.5t-69 16.5q-7 0 -11 4t-4 11q0 8 7 11.5t15 3.5q14 0 27.5 -1t27.5 -3q13 -1 27 -2.5t27 -1.5q17 0 34 2t34 5l34 4t34 2h3.5
t3.5 -1q6 0 10 -3t4 -8q0 -6 -3 -8.5t-8 -4.5q-1 0 -1.5 -0.5t-1.5 -0.5q-26 -7 -34.5 -28t-10.5 -45q-1 -8 -1 -16v-16v0z" />
    <glyph glyph-name="K" unicode="K" horiz-adv-x="734" 
d="M254 525v-177v-4v-2v-2q0 -4 1.5 -7t5.5 -3h1q2 0 3.5 0.5t3.5 1.5t4.5 2.5t4.5 3.5t4 3.5t3 2.5q17 16 50 44.5t68 62.5q8 7 16 14.5t15 14.5q41 40 71.5 76.5t30.5 56.5q0 10 -6.5 17t-14.5 11q-3 1 -6.5 1.5t-6.5 0.5h-3h-2q-8 1 -14.5 3t-8.5 9q0 8 5.5 11.5
t12.5 3.5q13 0 25.5 -1t25.5 -3q12 -1 24.5 -2.5t25.5 -1.5q14 0 27.5 0.5t27.5 1.5q14 0 28 1.5t27 3.5q2 1 5 1h6q6 0 11 -2t6 -9q0 -9 -6.5 -12.5t-14.5 -4.5q-16 -3 -33.5 -10.5t-34.5 -19.5q-18 -11 -35.5 -25t-33.5 -28q-18 -17 -34.5 -32.5t-29.5 -27.5
q-5 -5 -17.5 -15.5t-26.5 -23.5q-3 -2 -6 -5l-6 -6q-14 -12 -24 -24t-11 -20q0 -15 21.5 -48.5t49.5 -70.5q3 -5 7 -10.5t8 -10.5q25 -32 47.5 -59t32.5 -40q13 -16 24 -29.5t22 -26.5q25 -28 54 -47.5t76 -34.5q1 0 1.5 -0.5t1.5 -0.5h0.5h0.5q7 -2 12.5 -5.5t5.5 -11.5
q0 -7 -4.5 -9t-10.5 -2q-12 0 -24 0.5t-23 1.5l-24 2t-24 1q-9 0 -18 -1l-18 -2t-18 -1.5t-18 -0.5q-19 0 -31.5 11t-23.5 24l-2 2l-2 2q-1 2 -2.5 4t-3.5 4q-41 51 -81 103.5t-78 105.5q-4 5 -9 13.5t-12 17.5q-1 3 -2.5 5.5t-3.5 4.5q-7 11 -14 18.5t-12 7.5
q-6 0 -11.5 -4.5t-9.5 -9.5q-2 -2 -4 -4.5t-4 -4.5q-8 -7 -14 -12.5t-10 -9.5q-9 -9 -12.5 -20.5t-3.5 -36.5v-44v-22t1 -23q1 -15 3.5 -30t6.5 -29q6 -19 24 -31t38 -14q2 0 4.5 -0.5t5.5 -0.5q6 -1 11.5 -4t5.5 -10q0 -6 -4.5 -9.5t-10.5 -3.5q-11 0 -21.5 1t-20.5 2
q-11 2 -21.5 3t-21.5 1q-21 0 -42.5 -1t-42.5 -3l-42 -2t-42 -1q-7 0 -11.5 2t-6.5 9q0 6 3 9.5t9 4.5q41 7 51 36t11 63v10v10v392l1 19q-1 44 -25 62.5t-65 22.5q-11 2 -13.5 5t-3.5 13q0 6 3.5 9t9.5 3q20 0 39.5 -1t38.5 -2q20 -2 39.5 -3t38.5 -1q14 0 28 1t28 3
q13 1 27 2t28 1q5 0 9 -2.5t5 -7.5q0 -6 -3 -9.5t-9 -5.5q-46 -12 -54 -30.5t-9 -60.5v-4.5v-5.5v-18v0z" />
    <glyph glyph-name="L" unicode="L" horiz-adv-x="558" 
d="M260 553v-372v-37v-18t1 -20q2 -16 5.5 -30.5t10.5 -21.5t17.5 -8.5t21.5 -1.5q85 0 150 24.5t116 96.5l4 4t5 2q4 0 5.5 -3t2.5 -7q0 -1 0.5 -2t0.5 -2q0 -61 -37.5 -110t-103.5 -49q-27 0 -54 1t-54 3q-9 1 -18 1.5t-18 0.5q-18 2 -36 2.5t-36 0.5q-36 0 -72 -2.5
t-72 -6.5h-1.5h-1.5q-5 0 -10 1t-6 8q0 7 3.5 10t9.5 5q32 9 42.5 35t11.5 55q1 7 1 13.5v12.5v408q0 35 -13.5 59t-51.5 30q-3 0 -9.5 0.5t-12.5 1.5q-10 2 -18 6t-8 11q0 5 2.5 9.5t8.5 5.5q13 0 25.5 -1t25.5 -3q13 -1 25.5 -2.5t25.5 -1.5q20 0 39.5 1.5t38.5 3.5
q20 2 39.5 3.5t39.5 1.5h4h5q5 -1 10 -3.5t6 -8.5v-1q0 -8 -6 -10.5t-12 -3.5h-1.5h-1.5q-27 -2 -36.5 -21t-11.5 -41q-1 -8 -1 -15v-14v0z" />
    <glyph glyph-name="M" unicode="M" horiz-adv-x="943" 
d="M248 638l200 -437q1 -2 2.5 -5.5t3.5 -6.5q2 -6 6 -11t9 -5h1q5 0 8.5 4t5.5 8l2 4l2 4l185 392q7 14 14 28.5t14 27.5q5 10 13 18t20 9q8 0 16 -0.5t16 -0.5t16 -0.5t16 -0.5t16 1l16 2q8 0 16 1t16 1q7 0 12 -3t5 -11q0 -7 -3.5 -9.5t-9.5 -2.5q-49 -4 -66 -35t-17 -75
v-11.5v-11.5t0.5 -11.5t0.5 -11.5l11 -304q3 -59 17.5 -105t84.5 -54q6 -1 10.5 -4.5t4.5 -10.5q0 -6 -6 -8.5t-13 -2.5h-6h-6q-15 0 -30 1t-29 3q-15 1 -30 2.5t-30 1.5q-31 0 -62.5 -2.5t-62.5 -6.5q-6 0 -10.5 1.5t-6.5 7.5q0 3 1.5 5t4.5 4q5 4 12 7.5t15 8.5
q12 9 22.5 24t10.5 42v6v6q0 2 -0.5 5t-0.5 6l-15 325v2.5v2.5q-1 3 -2 5t-4 2h-1q-5 -1 -8.5 -5.5t-5.5 -9.5q-2 -4 -3 -7t-2 -5l-184 -389q-1 -4 -3 -9t-5 -11q-4 -9 -9 -16.5t-11 -7.5q-5 0 -11 5.5t-12 15.5q-5 7 -9.5 15.5t-8.5 16.5q-7 16 -13 29.5t-9 20.5l-157 349
q0 1 -0.5 1.5l-1.5 1.5q-1 3 -2.5 5t-3.5 2h-1q-5 -1 -6.5 -5t-1.5 -8v-1.5v-1.5v-4.5v-4.5q-1 -3 -1 -5.5v-4.5l-6 -247q0 -9 0.5 -18.5t1.5 -19.5q3 -38 19.5 -71.5t59.5 -43.5q2 0 3.5 -0.5t3.5 -1.5q5 -2 10 -5.5t5 -9.5v-1q-1 -7 -5.5 -8.5t-10.5 -1.5q-13 0 -26.5 1
t-26.5 3q-13 1 -26 2.5t-27 1.5h-5.5h-5.5q-9 -1 -18.5 -2t-18.5 -2q-11 -2 -22 -2.5t-20 -0.5q-7 0 -12.5 2t-5.5 10v1q0 4 3 6.5t6 3.5l0.5 0.5t1.5 0.5q49 17 60 53.5t13 81.5l13 321l1 29q0 50 -25.5 90t-80.5 40q-7 0 -12.5 2.5t-6.5 10.5v1q0 6 5 9.5t11 3.5
q9 0 18 -0.5t18 -0.5q9 -1 18 -1.5t18 -0.5t18.5 1t19.5 2q2 0 4.5 0.5t5.5 0.5q7 1 14 1.5t14 1.5q17 0 30 -7.5t20 -23.5v0z" />
    <glyph glyph-name="N" unicode="N" horiz-adv-x="812" 
d="M326 557l259 -290q4 -4 10 -11t13 -15q2 -1 3.5 -3t3.5 -4q10 -9 18.5 -16t12.5 -7h1q5 1 7 6.5t3 11.5v3.5v3.5q0 29 0.5 58t1.5 58q1 28 1.5 57t0.5 58q0 65 -17 120.5t-97 59.5q-6 1 -11 3.5t-5 8.5q0 5 4 8.5t8 3.5q12 0 24 -1t25 -2q12 -2 24 -3t24 -1
q14 0 27.5 0.5t28.5 1.5q14 1 28 3t27 4h2.5t2.5 1h2.5h2.5q8 0 14 -2.5t6 -12.5q0 -7 -5 -9.5t-11 -4.5q-32 -6 -45 -31.5t-16 -55.5q-1 -12 -1.5 -24.5t-0.5 -23.5l-7 -306l-2 -41q0 -19 0.5 -38t0.5 -37q0 -19 0.5 -38t0.5 -38v-1.5v-0.5q0 -5 -2 -8.5t-7 -3.5h-2t-2 1
q-5 1 -9 3t-6 6l-444 493q-1 1 -2 2.5t-3 2.5q-2 3 -4.5 5.5t-5.5 2.5q-7 0 -9.5 -5t-3.5 -10v-3.5v-3.5l-1 -14v-189q0 -28 1 -55.5t2 -55.5v-2.5v-2.5q4 -66 19 -104.5t88 -45.5h2h2q4 -1 8 -4t4 -8t-3.5 -9t-8.5 -5q-12 0 -26 1.5t-29 2.5t-31 2.5t-33 1.5q-20 0 -40 -2
l-40 -4q-6 -1 -12.5 -1.5t-13.5 -1.5q-7 0 -11 3t-4 10q0 4 3 6t8 4q6 2 14 5t17 10q14 11 26.5 38t14.5 83l3 116v57v155q0 57 -23 105t-88 53q-5 0 -9 2t-6 8q0 8 5 12t12 4q13 -1 25.5 -1.5t25.5 -0.5q14 0 28 1t28 3q13 1 27 2t28 1q17 0 29 -10.5t22 -23.5
q3 -3 5.5 -6.5t4.5 -6.5q14 -17 28.5 -34t29.5 -34v0z" />
    <glyph glyph-name="O" unicode="O" horiz-adv-x="785" 
d="M40 319q0 155 99 258t256 103q148 0 248.5 -82.5t100.5 -238.5q0 -158 -96.5 -264.5t-259.5 -106.5q-150 0 -249 88.5t-99 242.5v0zM160 360q0 -21 2 -43.5t7 -45.5q18 -93 75 -170.5t161 -77.5q117 0 168.5 84.5t56.5 185.5v11.5v10.5q0 7 -0.5 14.5t-0.5 14.5
q-8 113 -75 206.5t-192 93.5h-4h-4q-36 -2 -69.5 -17.5t-57.5 -41.5q-30 -32 -44.5 -73t-19.5 -84l-2 -34t-1 -34v0z" />
    <glyph glyph-name="P" unicode="P" horiz-adv-x="620" 
d="M258 559v-370v-26.5t1 -29.5q1 -19 4 -36.5t8 -30.5q6 -16 20.5 -25t31.5 -13q4 -1 7.5 -1.5t7.5 -0.5h3.5h3.5h2h2q8 -1 15 -3.5t8 -11.5q0 -9 -5.5 -11.5t-13.5 -2.5q-13 0 -26 1l-26 2q-10 0 -20 0.5t-20 0.5q-22 0 -43.5 -1t-43.5 -3q-22 -1 -43.5 -2.5t-43.5 -1.5
q-6 0 -10.5 2t-5.5 9q0 6 3.5 9.5t8.5 4.5q42 10 52 40.5t11 65.5v7.5v6.5v14v377q0 50 -20 78.5t-73 34.5q-7 1 -12.5 4.5t-5.5 10.5q0 5 2.5 9t8.5 4q2 0 3.5 0.5t3.5 0.5h3.5h3.5q14 0 27.5 -1t26.5 -1q14 -1 27.5 -2t26.5 -1q24 0 48.5 1t49.5 3q24 1 48.5 2t48.5 1
h20.5t20.5 -1q39 -2 77 -12t70 -34t51 -60.5t19 -77.5q0 -87 -65.5 -139.5t-147.5 -52.5q-5 0 -20.5 1t-33.5 4q-21 4 -38.5 10.5t-17.5 17.5q0 5 3 8.5t8 4.5h4.5t4.5 -1q12 -4 24 -6t25 -2q61 0 99 41t38 100q0 65 -42 114t-109 49h-15t-16 -1q-15 -1 -29 -5.5t-23 -15.5
q-6 -7 -8.5 -16t-3.5 -19v-7v-7v-7v0z" />
    <glyph glyph-name="Q" unicode="Q" horiz-adv-x="775" 
d="M40 330q0 160 108 255t262 95q146 0 238 -91t92 -237v-8.5v-8.5q-2 -52 -17 -103t-43 -95q-30 -47 -68 -73.5t-88 -49.5q-1 -1 -3.5 -2t-4.5 -2q-3 -1 -6 -3t-4 -5v-1q0 -4 5 -8.5t11 -7.5q5 -3 9 -4.5t6 -2.5q3 -2 6.5 -3.5t6.5 -3.5q1 -1 2 -1.5t2 -0.5q28 -15 57 -28
t62 -13q18 0 27.5 5.5t17.5 11.5l0.5 0.5l0.5 0.5q5 4 10 7.5t12 5.5q6 0 10 -4.5t4 -10.5v-2q-1 -7 -9.5 -17.5t-21.5 -21.5q-15 -11 -33.5 -22t-37.5 -19q-16 -7 -31.5 -11t-28.5 -4q-49 0 -94.5 23t-88.5 51q-44 28 -85 51t-82 23q-39 0 -64.5 -30.5t-28.5 -67.5
q-1 -2 -1 -4.5v-5.5v-1.5v-1.5q0 -5 -1.5 -9.5t-8.5 -5.5q-9 0 -13.5 3t-4.5 17l-1 24q0 37 16 64t41 52l0.5 0.5l1.5 1.5t1.5 2.5t0.5 2.5q0 4 -3.5 7t-8.5 6q-3 2 -5.5 4t-4.5 3q-54 40 -81.5 100t-34.5 125q-2 12 -2.5 24.5t-0.5 24.5v0zM156 397q0 -24 2.5 -50t6.5 -52
q19 -102 78.5 -186.5t174.5 -84.5q105 0 153 75t57 165q1 13 1.5 25t0.5 24t-1 24.5t-3 25.5q-14 105 -85 192t-184 87q-100 0 -149.5 -74t-51.5 -162v-5v-4v0z" />
    <glyph glyph-name="R" unicode="R" horiz-adv-x="677" 
d="M260 277v-109v-7.5v-6.5q1 -46 14.5 -84.5t69.5 -42.5q8 -1 14 -4t7 -12q0 -6 -3 -9.5t-10 -3.5q-12 0 -24 1t-23 1q-12 0 -24 1t-24 1q-20 0 -40 -1t-39 -3q-20 -1 -40 -2.5t-40 -1.5h-3.5h-3.5q-5 1 -8.5 3t-3.5 6q0 6 4 10t11 8q4 3 9 5.5t10 5.5q12 8 22.5 22.5
t11.5 44.5v66v354q0 52 -19.5 81.5t-73.5 36.5q-7 1 -13 4.5t-6 12.5q0 5 2 9t8 4q13 0 26 -1t26 -1q12 -1 25 -2t26 -1q27 0 54 1.5t54 4.5q27 2 54 3.5t54 1.5q9 0 17.5 -0.5t17.5 -1.5q73 -6 134 -45t64 -123q0 -48 -17.5 -77t-37.5 -47q-21 -17 -38.5 -25.5t-17.5 -14.5
v-1q0 -3 17.5 -35t39.5 -69q18 -33 34.5 -61.5t20.5 -35.5l4 -8t5 -7q14 -25 34 -45.5t50 -20.5q4 0 8 0.5t8 1.5t8 1.5t8 0.5q3 0 5 -2t3 -5q1 0 1 -0.5v-1.5q0 -10 -7 -16t-15 -10q-2 -1 -4.5 -2t-4.5 -2q-19 -10 -40 -16t-43 -6q-46 0 -83.5 42t-65.5 93q-16 28 -28 54
t-22 46q-6 12 -11 21.5t-10 16.5q-17 28 -39.5 36.5t-69.5 8.5q-17 0 -23 -5.5t-6 -22.5v-12v0zM260 573v-155q0 -38 7.5 -50.5t38.5 -12.5h9.5h8.5q62 1 113.5 15.5t51.5 96.5q0 73 -49 121.5t-122 48.5q-36 0 -47 -15.5t-11 -48.5v0z" />
    <glyph glyph-name="S" unicode="S" horiz-adv-x="508" 
d="M54 496q0 76 53.5 130t129.5 54q28 0 50.5 -6t40.5 -14q19 -7 34 -13.5t28 -6.5q5 0 9.5 2t8.5 4q0 1 0.5 1t0.5 1q5 2 9.5 4.5t11.5 2.5t9 -4.5t2 -9.5v-2v-2v-10t-1 -10q0 -18 2 -35t5 -34q3 -18 5 -35t2 -35v-2v-2q-1 -6 -3 -10t-7 -5q-6 0 -9.5 4.5t-4.5 9.5
q0 1 -0.5 2t-0.5 2q-13 65 -68.5 116.5t-123.5 51.5h-2.5h-3.5q-39 -2 -71.5 -30.5t-32.5 -69.5q0 -44 35.5 -68.5t85.5 -45.5q12 -5 24.5 -10.5t25.5 -10.5q64 -28 117.5 -72.5t53.5 -134.5q0 -84 -59 -149.5t-146 -65.5q-8 0 -15.5 0.5t-15.5 2.5q-15 2 -29 5.5t-28 7.5
q-5 2 -9.5 3.5t-9.5 2.5q-13 4 -24 6.5t-20 4.5q-18 4 -27.5 11t-11.5 26q-2 18 -6.5 35t-9.5 34q-1 2 -1.5 4t-0.5 3q-6 19 -10.5 38.5t-4.5 38.5v2.5v2.5q1 6 3 11t9 6q6 0 9 -3t4 -8q3 -10 6.5 -20.5t8.5 -20.5q26 -59 75.5 -108.5t114.5 -49.5q50 0 88.5 38t38.5 87
q0 53 -41 81t-95 52l-18 8l-18 8q-64 28 -118 70t-54 129v0z" />
    <glyph glyph-name="T" unicode="T" horiz-adv-x="643" 
d="M382 549v-367q0 -62 17.5 -106.5t90.5 -49.5q8 0 12 -2.5t5 -10.5q0 -5 -1.5 -9t-8.5 -5q-18 0 -36 0.5t-35 2.5l-36 2t-36 1q-22 0 -44 -1.5t-44 -3.5q-23 -1 -45 -2.5t-44 -1.5q-7 0 -9 4.5t-2 10.5t5.5 8.5t14.5 4.5q7 2 15 4t17 5q19 8 35 26t16 59v27v423
q0 22 -8 35.5t-33 13.5h-24t-25 -1q-18 0 -36 -2t-36 -7q-28 -7 -41.5 -25t-19.5 -38q-3 -8 -5 -17t-4 -16q-4 -14 -8.5 -23.5t-13.5 -9.5q-7 0 -10.5 5.5t-3.5 12.5q0 10 3 33t7 48q3 20 5.5 39.5t3.5 31.5q1 8 4 13t12 5t18.5 -0.5t19.5 -0.5t19.5 -0.5t18.5 -0.5
q23 0 45.5 -0.5t45.5 -0.5t45.5 -0.5t45.5 -0.5q70 0 139.5 1t139.5 4q8 1 16.5 1.5t16.5 0.5q13 0 20 -4.5t8 -18.5q1 -13 2.5 -25.5t2.5 -25.5q2 -17 4 -33.5t2 -32.5q0 -6 -3 -10.5t-11 -4.5q-7 0 -10 5t-4 12q-1 0 -1 0.5v1.5q-12 50 -45.5 67.5t-80.5 17.5h-26
q-38 0 -60 -9.5t-22 -59.5v0z" />
    <glyph glyph-name="U" unicode="U" horiz-adv-x="814" 
d="M444 39q145 0 185 92.5t44 211.5q2 23 2 45.5v45.5v37.5t-1 37.5v4v4q0 8 -0.5 16.5t-1.5 17.5q-3 36 -21 66t-76 30q-7 0 -13 3.5t-6 10.5q0 5 2 8.5t7 3.5h6t5 -1q12 -2 24 -3l24 -2t24 -1h24q13 0 25.5 1.5t25.5 2.5q13 2 25.5 3t25.5 1q5 0 8.5 -2.5t4.5 -7.5
q0 -9 -6.5 -12.5t-13.5 -4.5h-3h-3q-1 0 -2.5 -0.5t-2.5 -0.5q-22 -4 -29.5 -22.5t-8.5 -40.5v-5v-6q0 -8 0.5 -16.5t0.5 -16.5q0 -9 0.5 -17.5t0.5 -16.5q0 -26 -1 -51.5t-2 -50.5q-1 -9 -1.5 -17.5t-0.5 -16.5q-1 -22 -1.5 -45.5t-2.5 -47.5q-5 -55 -20.5 -108.5
t-53.5 -95.5t-90.5 -60.5t-107.5 -22.5q-7 -1 -14.5 -1h-15.5q-159 0 -223 75.5t-64 229.5v9.5t1 8.5v9.5v8.5l5 142l-2 89q0 47 -21.5 63t-65.5 23q-9 2 -14 5t-5 12q0 5 4 7.5t8 2.5q16 0 32 -1t33 -2q16 -2 32.5 -3t32.5 -1q17 0 33.5 1t33.5 3q17 1 33.5 2t33.5 1
q8 0 14 -2t7 -12q0 -8 -7.5 -11.5t-18.5 -6.5q-1 0 -2.5 -0.5t-2.5 -0.5q-8 -3 -15 -5.5t-11 -7.5q-7 -8 -10.5 -19t-4.5 -22q-1 -6 -1.5 -11.5t-0.5 -10.5q-1 -2 -1 -4v-4l-7 -111v-142v-14.5v-15.5q2 -44 11 -87t39 -78q22 -26 54 -42.5t66 -22.5q10 -2 20 -3t19 -1v0z
" />
    <glyph glyph-name="V" unicode="V" horiz-adv-x="682" 
d="M254 427l108 -267q1 -1 2 -3.5t2 -4.5q1 -4 3.5 -7t5.5 -3h1q3 0 5 2.5t4 6.5q0 1 1 2.5t1 2.5l110 244q4 9 8 18.5t9 19.5q5 13 10.5 27t10.5 28q7 21 11.5 41.5t4.5 38.5q0 30 -15.5 44.5t-33.5 21.5q-9 3 -17.5 5.5t-15.5 4.5t-12 5t-5 7q0 6 3 8.5t8 2.5q16 0 32 -1
t33 -2l32 -2t32 -1q12 0 23.5 0.5t22.5 2.5q11 1 22.5 2.5t23.5 2.5q5 0 9.5 -2.5t4.5 -9.5t-4.5 -10t-10.5 -4q-29 -5 -47 -29t-30 -52q-6 -12 -10.5 -24t-9.5 -22l-73 -169l-84 -184q-3 -7 -13.5 -33t-24.5 -57q-3 -7 -6.5 -14.5t-7.5 -14.5q-12 -26 -24 -43.5t-19 -17.5
q-10 0 -17 10.5t-12 23.5q-3 9 -5.5 17.5t-4.5 13.5l-116 263q-19 43 -36.5 86t-34.5 87q-5 13 -10 27.5t-10 29.5q-13 33 -33 61.5t-54 36.5h-1.5t-1.5 1q-6 1 -11 4.5t-5 10.5v1.5v0.5q1 4 3.5 7.5t7.5 3.5q18 0 37.5 -1t38.5 -2q15 -1 30.5 -2t30.5 -1q14 0 28.5 0.5
t28.5 1.5t28.5 1.5t28.5 0.5q6 0 9.5 -3.5t3.5 -9.5t-4 -9t-9 -4q-2 -1 -3.5 -1.5t-3.5 -0.5q-17 -3 -27 -14t-10 -28q0 -18 5 -38.5t12 -42.5q4 -11 8.5 -22.5t8.5 -23.5q5 -12 10.5 -24t9.5 -23v0z" />
    <glyph glyph-name="W" unicode="W" horiz-adv-x="973" 
d="M532 602q0 -20 5.5 -39.5t12.5 -38.5l33 -96l51 -139q3 -7 5.5 -14t4.5 -15q2 -7 4.5 -14t5.5 -15q2 -4 5 -13t7 -19q4 -13 10 -24t13 -11t11.5 5.5t8.5 15.5l2.5 7.5t3.5 8.5q7 20 15 39.5t16 39.5q1 3 2 5.5t2 4.5q9 22 17.5 44.5t16.5 44.5q5 13 12 29.5t14 34.5
q3 7 5.5 14.5t5.5 14.5q10 27 17 52.5t7 43.5q0 39 -23.5 55.5t-58.5 23.5q-6 2 -9.5 5t-3.5 9t3 10t10 4q16 0 31.5 -1t31.5 -2q15 -2 30.5 -3t31.5 -1q22 0 43.5 2t43.5 5h2.5h2.5q4 -1 7 -2.5t3 -6.5q0 -1 -0.5 -3t-1.5 -3q-1 -4 -4.5 -7t-9.5 -5q-35 -13 -54 -44
t-33 -66q-2 -7 -4.5 -14t-5.5 -14q-2 -6 -4.5 -11.5t-4.5 -11.5l-45 -111q-13 -32 -26 -67t-27 -70q-16 -42 -32.5 -83t-33.5 -77q-2 -5 -4 -9.5t-4 -9.5q-7 -14 -13 -28t-11 -28q-3 -7 -7 -11t-13 -5q-10 0 -15 6t-9 14q-13 36 -26.5 69.5t-27.5 67.5q-20 48 -39.5 97
t-36.5 102q0 2 -0.5 4t-1.5 5q-2 4 -4.5 7.5t-6.5 3.5h-2q-4 0 -8.5 -6t-7.5 -13q-2 -5 -4 -9.5t-3 -7.5q-12 -30 -26 -63.5t-29 -67.5q-9 -19 -18 -37.5t-18 -37.5q-10 -21 -20.5 -41.5t-20.5 -38.5q-2 -5 -4.5 -11t-5.5 -12q-5 -12 -12 -21.5t-19 -9.5q-10 0 -17.5 11.5
t-12.5 25.5l-6 18t-5 14q-35 81 -67 163t-61 165q-3 8 -5.5 15.5t-4.5 15.5q-1 2 -2 5t-2 5q-7 21 -14 41.5t-15 40.5q-4 11 -9.5 27t-12.5 33q-11 28 -27 52t-37 25q-6 0 -9.5 3.5t-3.5 9.5q0 5 4 9t9 4q16 0 33 -1t35 -1l34 -2t34 -1q20 0 40 1.5t39 2.5q10 0 17 -2.5
t7 -14.5q-1 -3 -5 -5t-9 -3l-8 -2l-8 -2q-11 -3 -20.5 -11.5t-9.5 -26.5q0 -14 5 -34t13 -41q1 -5 3 -10l4 -10q5 -15 10 -29t9 -24l48 -133q2 -5 9.5 -30t17.5 -54l6 -16t5 -15q9 -23 17 -38.5t14 -15.5q5 0 14 14t19 33q2 4 4.5 8.5t4.5 8.5q10 22 18.5 40.5t10.5 22.5
l16 34t15 34q4 9 7.5 17.5t7.5 16.5q4 9 7.5 17.5t7.5 16.5q2 3 3 6t1 6q0 4 -1 7t-3 6q-2 4 -3.5 8t-3.5 9q-5 15 -11 34t-13 39q-14 41 -35 76t-56 41q-7 1 -9.5 3t-3.5 9q0 8 5.5 11t12.5 3q13 0 26 -1l26 -2q13 -2 26 -3t26 -1h32t32 1q15 0 31 1t32 3q5 0 8.5 -4
t4.5 -9v-0.5v-1.5q0 -6 -5 -9t-11 -5q-2 -1 -4 -1.5t-3 -0.5t-1.5 -0.5t-1.5 -0.5q-13 -4 -21.5 -13.5t-8.5 -24.5v0z" />
    <glyph glyph-name="X" unicode="X" horiz-adv-x="706" 
d="M244 611q0 -12 13.5 -39.5t31.5 -57.5l10 -16t11 -16q20 -30 37.5 -51.5t24.5 -21.5h1q3 1 5 2.5t4 3.5q1 0 1.5 1t1.5 2q10 12 26.5 31t34.5 40q4 5 8.5 10t8.5 10q22 27 38.5 52.5t16.5 40.5q0 17 -12.5 25.5t-27.5 11.5q-1 0 -3 0.5t-4 0.5h-4.5t-5.5 1q-8 1 -15 4
t-7 12q0 6 3 9.5t9 3.5q14 0 27.5 -0.5t27.5 -1.5q13 -1 27 -1.5t27 -0.5q17 0 34 1t34 3q16 1 33 2t34 1q7 0 10.5 -3.5t3.5 -8.5q0 -7 -4.5 -10.5t-11.5 -4.5q-21 -3 -38.5 -9.5t-33.5 -20.5q-37 -31 -70.5 -66t-64.5 -72q-4 -4 -16 -18t-26 -31q-2 -1 -3 -2t-2 -3
q-15 -17 -27 -32.5t-12 -20.5q0 -4 1.5 -8.5t4.5 -8.5q2 -4 5 -8t6 -7q3 -4 6.5 -7.5t5.5 -6.5q15 -20 29.5 -40.5t29.5 -41.5q1 -2 2.5 -4t2.5 -3q32 -46 65 -89.5t72 -83.5q18 -17 41 -27t48 -12q8 -1 12.5 -4.5t4.5 -10.5q0 -6 -3 -9.5t-10 -3.5q-19 0 -39 1.5t-39 2.5
q-20 1 -39.5 2.5t-39.5 1.5q-23 0 -46 -1t-46 -3q-11 0 -22.5 -0.5t-23.5 -0.5h-4.5h-4.5q-5 1 -9.5 3t-4.5 8t5.5 9t13.5 6q3 0 5.5 1t4.5 1q11 4 20 10.5t9 21.5q0 20 -14 45.5t-34 52.5q-6 8 -12.5 16.5t-12.5 16.5q-18 22 -34.5 42t-26.5 34q0 1 -1 2l-1 1q-2 2 -3 4
t-3 2q-4 0 -27 -23.5t-50 -55.5q-6 -8 -12.5 -15.5t-12.5 -15.5q-21 -28 -36 -53.5t-17 -40.5q0 -21 16 -31t35 -14l12 -2t12 -1q5 -1 10 -2.5t6 -7.5v-2v-2q-1 -4 -3 -7.5t-8 -3.5q-16 2 -33.5 3t-34.5 2t-34 1h-34q-14 0 -27.5 -0.5t-27.5 -0.5q-14 -1 -27.5 -1.5
t-27.5 -1.5h-0.5h-0.5q-6 0 -10.5 2.5t-4.5 8.5l-1 2q1 5 4.5 7.5t8.5 3.5q45 9 88.5 50t82.5 88q23 28 45 55t41 47q3 3 7.5 8t9.5 10q2 2 3.5 4.5t3.5 4.5q6 6 9.5 12.5t3.5 10.5q0 6 -13 26t-30 42q-1 2 -2.5 3.5t-2.5 3.5q-14 19 -27 36t-18 24q-11 15 -22.5 32.5
t-24.5 35.5q-29 42 -64.5 78.5t-82.5 44.5q-1 0 -2 0.5t-2 1.5q-6 2 -10 5.5t-4 9.5q0 7 5 10.5t12 3.5q18 -2 36 -3.5t36 -2.5t36 -1.5t36 -0.5q17 0 33.5 1t33.5 3q8 0 16.5 1t16.5 2q9 1 17.5 1.5t16.5 1.5h2.5h3.5q5 0 10 -2.5t5 -10.5q0 -6 -4.5 -9.5t-10.5 -5.5h-0.5
h-1.5q-2 0 -4 -0.5t-4 -1.5q-12 -3 -22 -11.5t-10 -20.5v0z" />
    <glyph glyph-name="Y" unicode="Y" horiz-adv-x="595" 
d="M357 262v-126q0 -57 21 -83t79 -29q6 0 10.5 -2t5.5 -8q0 -12 -8 -14.5t-19 -2.5q-18 0 -36.5 1.5t-36.5 2.5q-6 1 -12.5 1.5t-12.5 0.5q-12 2 -24.5 2.5t-24.5 0.5q-19 0 -37.5 -0.5t-36.5 -2.5q-19 -1 -37.5 -2t-37.5 -3q-7 0 -9.5 2.5t-3.5 9.5q0 6 3 9.5t10 4.5
q62 11 78 41t16 86q0 69 -2 97.5t-12 49.5q-8 18 -23 41t-41 73l-74 141q-1 2 -2 3.5t-1 2.5q-17 29 -41 54t-59 29h-2h-1q-9 2 -12 4.5t-3 10.5q0 7 4.5 10.5t12.5 3.5q14 0 28.5 -1t29.5 -3q14 -1 28.5 -2.5t29.5 -1.5q18 0 35.5 1t34.5 2t34.5 2t34.5 1h2.5t2.5 -1
q5 -1 8.5 -3.5t3.5 -7.5q0 -4 -3 -7t-7 -4q-2 -1 -4 -1.5t-3 -0.5q-2 0 -4 -1t-4 -1q-11 -4 -20.5 -11t-9.5 -20q0 -15 8.5 -36.5t19.5 -44.5q3 -6 6.5 -12t6.5 -13q10 -17 18.5 -32t14.5 -26q3 -6 8 -18t11 -26q7 -12 14 -23.5t15 -18.5q3 -2 6 -3.5t6 -1.5q10 0 18 10.5
t15 23.5l4 8l4 8l17.5 30t21.5 38q3 5 6 10.5t6 10.5q15 26 25.5 51t10.5 40q0 20 -16.5 34t-35.5 20q-7 2 -14 3.5t-13 2.5h-1.5h-0.5q-5 1 -9 3.5t-4 8.5t3 10.5t9 4.5q12 0 23.5 -1t23.5 -3q12 -1 23.5 -2.5t23.5 -1.5h30.5t30.5 1q15 0 30.5 1t30.5 2h2.5h2.5
q6 0 10 -2.5t4 -8.5t-4.5 -8.5t-9.5 -4.5q-1 0 -2 -0.5t-2 -0.5q-44 -10 -67.5 -42t-41.5 -68q-2 -4 -3.5 -7.5t-3.5 -6.5q-27 -51 -55 -101.5t-59 -99.5q-4 -7 -7 -12.5t-5 -11.5q-2 -7 -2.5 -15t-0.5 -18v0z" />
    <glyph glyph-name="Z" unicode="Z" horiz-adv-x="522" 
d="M510 148q-1 -9 -2.5 -17.5t-3.5 -17.5q-12 -46 -42.5 -83.5t-81.5 -37.5q-24 0 -48.5 2t-49.5 4q-24 2 -48.5 3.5t-49.5 1.5q-12 0 -23.5 -0.5t-22.5 -0.5q-4 0 -7.5 -0.5t-7.5 -0.5q-8 0 -15.5 -0.5t-15.5 -0.5q-11 0 -21 -1t-18 -2q-9 -2 -16 -3t-13 -1q-4 0 -7 2.5
t-3 5.5q2 5 6.5 12.5t9.5 15.5l0.5 0.5l0.5 0.5q4 6 7.5 12t5.5 11l69 125l94 177q32 59 62 119.5t52 124.5q2 2 2 5v6q-2 4 -7.5 6.5t-11.5 2.5q-4 1 -8 1h-7l-62 2q-8 0 -17 -0.5t-17 -1.5q-48 -4 -89 -26.5t-47 -77.5q-1 -5 -4 -8.5t-8 -3.5q-6 0 -9 5t-3 10q-1 3 -1 5.5
v4.5q0 10 1.5 19.5t3.5 19.5q1 10 2.5 19.5t1.5 19.5l-1 32q0 1 0.5 2t0.5 2q0 2 0.5 3.5t0.5 3.5q1 6 4 11t9 5q8 0 10.5 -0.5t4.5 -0.5h0.5t1.5 -1q3 0 11.5 -0.5t31.5 -0.5q15 0 29.5 -0.5t29.5 -0.5q15 -1 29.5 -1h29.5q30 0 59 2.5t59 5.5q29 3 58 5.5t59 2.5h1.5h1.5
q6 0 11.5 -2t6.5 -8q0 -8 -3 -15t-7 -13q0 -1 -1 -2.5t-2 -2.5q0 -1 -0.5 -2t-1.5 -2q-23 -38 -43.5 -77.5t-40.5 -78.5l-10 -20l-10 -20l-60 -117q-6 -11 -25 -46.5t-41 -77.5q0 -1 -1 -2.5t-2 -3.5q-24 -46 -44 -86t-20 -46t5 -8.5t11 -3.5h6h5l40 -2h6.5h6.5q67 2 129 28
t101 82q1 1 2 3l2 4q2 4 5 6.5t6 2.5h1q3 0 4.5 -3t2.5 -7v-5.5v-3.5v0z" />
    <glyph glyph-name="bracketleft" unicode="[" horiz-adv-x="287" 
d="M67 29v541v15.5t1 15.5v15v15v35v4v5q1 12 6.5 22.5t20.5 10.5q6 0 12 -0.5t12 -0.5q6 -1 12 -1.5t12 -0.5l65 -1q12 0 24 0.5t24 1.5h3.5h3.5q5 -1 9 -3.5t4 -8.5t-5 -8.5t-10 -3.5h-5.5h-4.5q-57 0 -81 -27.5t-24 -86.5v-14v-508q0 -61 22.5 -94.5t89.5 -33.5
q9 0 13.5 -3.5t4.5 -7.5v-1.5v-0.5q-1 -4 -6 -7.5t-13 -3.5l-1 -1q-4 1 -8 1.5t-8 0.5q-8 1 -16 1.5t-16 0.5l-65 -2q-6 1 -12.5 0.5t-12.5 -1.5t-12 -1.5t-12 -0.5q-15 0 -20.5 10.5t-5.5 23.5v1.5v1.5v25.5v24.5q-1 13 -1 25v25v0z" />
    <glyph glyph-name="backslash" unicode="\" horiz-adv-x="392" 
d="M45 691l345 -784q1 -1 1.5 -2.5t0.5 -3.5q0 -6 -4 -8.5t-9 -3.5h-3.5h-3.5q-11 0 -16.5 4.5t-10.5 15.5l-341 782q0 1 -0.5 2t-0.5 2q-1 1 -1.5 2t-0.5 2q0 3 1 5t4 3t6 1h5q9 0 16.5 -4t11.5 -13v0z" />
    <glyph glyph-name="bracketright" unicode="]" horiz-adv-x="287" 
d="M151 47v507q0 63 -22 96t-90 33q-9 0 -13.5 3.5t-4.5 7.5v1.5v0.5q1 4 6 7.5t13 3.5h1q4 0 8 -0.5t8 -0.5q8 -1 16 -1.5t16 -0.5l65 1q12 2 24 3t24 1q3 0 6 -0.5t6 -1.5q8 -2 11 -9t4 -15v-5.5v-5.5v-25.5t1 -24.5v-25.5v-25.5v-541v-15v-15q-1 -7 -1 -15v-15v-36v-3v-5
q-1 -12 -6.5 -22.5t-20.5 -10.5h-4.5t-4.5 1q-3 0 -5.5 0.5t-4.5 0.5q-9 1 -17.5 1.5t-17.5 0.5h-6h-6q-6 0 -12 0.5t-12 0.5h-6h-5h-6h-6q-8 0 -16 -0.5t-16 -1.5q-4 0 -8 -0.5t-8 -0.5h-3h-3q-6 1 -10 3.5t-4 8.5q0 4 4.5 8t13.5 4q60 0 86 27.5t26 85.5v15v0z" />
    <glyph glyph-name="asciicircum" unicode="^" horiz-adv-x="500" 
d="M527 282h-49l-183 284l-191 -284h-131l282 418h7l265 -418v0z" />
    <glyph glyph-name="underscore" unicode="_" horiz-adv-x="500" 
d="M16 -90h467v-57h-467v57v0z" />
    <glyph glyph-name="grave" unicode="`" horiz-adv-x="500" 
d="M229 488l-79 78q-1 2 -3 3.5t-4 3.5q-4 4 -7 8.5t-3 9.5q0 8 6 13t14 6h2h2h30h3h3h2.5h2.5q11 0 20 -2t14 -13q4 -8 12 -20.5t17 -26.5q1 -3 2.5 -5t2.5 -5q11 -17 19 -33.5t8 -25.5q0 -4 -3.5 -8t-8.5 -4q-11 3 -22 7.5t-21 9.5q-3 1 -5 2l-4 2v0z" />
    <glyph glyph-name="a" unicode="a" horiz-adv-x="445" 
d="M270 233q2 10 4 19.5t2 19.5q0 5 -0.5 10.5t-1.5 11.5q-4 34 -24.5 62t-58.5 28q-19 0 -33 -9.5t-14 -30.5q0 -3 0.5 -6t0.5 -5q0 -3 0.5 -6t0.5 -6q0 -14 -13 -21t-29 -10q-9 -1 -18 -1.5t-15 -0.5h-1.5h-0.5q-7 1 -12 5.5t-5 11.5l6 24q6 34 36 53t65 26q14 3 28 4.5
t26 1.5q11 0 23 -1t24 -3q26 -4 50 -15t39 -31q16 -19 19 -42.5t3 -47.5q0 -23 -1 -45.5t-1 -45.5q-1 -23 -2 -45.5t-1 -45.5t8.5 -36.5t30.5 -13.5q5 0 9 1l8 2t8.5 2t8.5 1q2 0 4 -2t2 -4v-1q0 -4 -4.5 -9t-11.5 -11q-8 -6 -18 -11.5t-21 -9.5q-10 -4 -20.5 -6.5
t-18.5 -2.5q-26 0 -43.5 16.5t-28.5 37.5q-2 -1 -4 -2.5t-4 -2.5q-32 -20 -67 -36t-73 -16q-43 0 -67 23t-24 66q0 69 49 99t108 43q19 4 37.5 7.5t35.5 6.5v0zM143 104v-4v-4q2 -21 14.5 -39t36.5 -18q47 0 63 22t16 65v16.5t1 16.5v16.5v16.5q-1 7 -3.5 10t-10.5 3h-2.5
h-3.5q-40 -2 -74.5 -30t-36.5 -71v0z" />
    <glyph glyph-name="b" unicode="b" horiz-adv-x="517" 
d="M173 647v-307v-1.5v-1.5q0 -2 1 -3t2 -1t2 1t1 2q1 0 1.5 1l0.5 1q23 34 59.5 55t76.5 21q74 0 121 -50.5t47 -123.5q0 -100 -57.5 -176t-164.5 -76q-12 0 -24.5 1.5t-26.5 4.5q-21 4 -41 12t-34 20l-0.5 0.5l-1.5 1.5t-2.5 2t-3.5 1h-1q-3 0 -6 -2.5t-7 -6.5
q-2 -3 -4.5 -7t-4.5 -8q-6 -8 -11.5 -15t-12.5 -8q-5 0 -7.5 3.5t-2.5 8.5q0 8 0.5 17.5t1.5 19.5t1.5 19.5t0.5 18.5v485q0 36 -9.5 49t-21.5 16q-4 0 -7.5 0.5t-6.5 1.5q-7 0 -12 2t-5 9q0 5 3 9t8 5q31 7 59 17t56 25q4 2 8.5 4.5t9.5 5.5q2 2 4 2.5t4 0.5h1q4 0 5 -4.5
t1 -10.5v-41v0zM173 296v-188q0 -32 27 -56.5t60 -33.5q8 -2 16.5 -3.5t16.5 -1.5q50 0 75.5 36.5t31.5 80.5q1 8 1.5 16t0.5 16q0 9 -0.5 18t-1.5 18q-8 58 -43 106t-100 48q-30 0 -50.5 -15t-33.5 -41v0z" />
    <glyph glyph-name="c" unicode="c" horiz-adv-x="396" 
d="M33 188q0 96 70.5 161t164.5 65q7 0 15 -0.5t15 -1.5q23 -3 43.5 -11.5t33.5 -26.5q1 -1 2 -2.5t2 -3.5q4 -6 7.5 -12.5t5.5 -13.5q0 -2 0.5 -4t0.5 -4q0 -10 -8 -17.5t-17 -13.5q-5 -3 -9.5 -5.5t-8.5 -4.5q-2 -1 -5 -3l-6 -4q-1 -1 -2.5 -2t-2.5 -1l-7 -3.5t-6 -1.5
q-6 0 -9 4t-5 10q0 1 -0.5 2.5t-0.5 2.5v4t-1 4q-4 30 -27 54.5t-55 24.5q-39 0 -61 -29.5t-30 -65.5q-2 -10 -3 -20.5t-1 -20.5q0 -15 1.5 -31t5.5 -33q11 -52 43 -96t90 -44q32 0 60.5 11.5t53.5 29.5q1 0 1.5 0.5l0.5 0.5q1 1 2 1.5t2 0.5q3 0 5 -2t3 -5v-0.5v-1.5
q-2 -23 -32 -42.5t-65 -32.5q-23 -7 -44 -11.5t-35 -4.5q-87 0 -137 58.5t-50 141.5v0z" />
    <glyph glyph-name="d" unicode="d" horiz-adv-x="533" 
d="M449 534v-382v-24v-8.5v-8.5q2 -24 11 -44.5t40 -20.5h2.5h3.5q5 -1 10 -3.5t5 -9.5q0 -6 -4 -10t-12 -4q-25 -3 -50 -8t-50 -11q-13 -2 -25 -5.5t-25 -6.5q-4 0 -5.5 2.5t-1.5 6.5v38v2.5v3.5q-1 3 -2 5.5t-3 2.5h-1q-2 0 -3.5 -1t-3.5 -3q-17 -17 -40.5 -30.5
t-49.5 -19.5q-12 -3 -24 -5t-23 -2q-76 0 -120.5 54t-44.5 126q0 7 0.5 15t1.5 15q9 81 63 148.5t143 67.5q18 0 33.5 -3.5t28.5 -6.5q13 -4 23 -7.5t16 -3.5q5 0 6.5 3.5t1.5 7.5v0.5v1.5v4v115v13v8v9q-1 12 -2.5 24.5t-6.5 23.5q-4 11 -12 15t-17 5q-2 1 -4.5 1t-5.5 1
q-9 1 -15.5 3t-6.5 11q0 5 2.5 8t7.5 4q29 4 48.5 9t37.5 13q14 6 29 13.5l35 17.5h1.5h1.5q3 0 5.5 -1.5t3.5 -5.5q0 -6 -0.5 -12.5t-0.5 -12.5q0 -7 -0.5 -13.5t-0.5 -12.5v-28v-28q-1 -14 -1 -28v-28v0zM350 110v179q0 36 -28.5 59.5t-63.5 32.5q-9 3 -18 4t-18 1
q-46 0 -69.5 -33.5t-30.5 -73.5q-1 -11 -2 -21t-1 -20q0 -11 1.5 -22.5t3.5 -23.5q11 -53 47 -97t94 -44q5 0 9.5 0.5t9.5 0.5q25 3 45.5 16.5t20.5 41.5v0z" />
    <glyph glyph-name="e" unicode="e" horiz-adv-x="418" 
d="M33 191v10t1 10q6 74 55 136.5t128 66.5q7 0 14 -0.5t14 -1.5q59 -10 107.5 -53t48.5 -105q0 -11 -6.5 -14.5t-15.5 -3.5q-28 0 -56 -0.5t-56 -0.5q-29 -1 -57 -1.5t-56 -0.5q-8 0 -15 -2t-8 -13q0 -6 0.5 -11.5t0.5 -10.5q7 -55 43.5 -101t97.5 -46q7 0 14.5 0.5
t14.5 2.5q19 4 36.5 12t30.5 20q1 1 3 3.5t4 5.5q4 4 8 7t8 3q5 0 8.5 -2.5t3.5 -7.5t-3 -10t-7 -11q-3 -4 -7 -7.5t-8 -7.5q-6 -5 -11 -9.5t-9 -7.5q-28 -25 -62.5 -38.5t-72.5 -13.5q-88 0 -139.5 59.5t-51.5 143.5v0zM211 389q-31 0 -51.5 -24.5t-27.5 -53.5
q-2 -8 -3 -16t-1 -15q0 -14 8 -17t19 -3h12.5h13.5t13.5 0.5t12.5 0.5h11.5h13.5h6h6q21 1 39 6t18 22v5.5t-1 4.5q-3 34 -28 62t-61 28v0z" />
    <glyph glyph-name="f" unicode="f" horiz-adv-x="291" 
d="M271 351h-47q-16 0 -22.5 -7t-6.5 -24v-200q0 -43 10 -65.5t56 -32.5q1 0 2.5 -0.5t2.5 -0.5q4 -2 7 -4t4 -6q0 -5 -2.5 -9t-8.5 -4q-13 0 -26.5 1t-27.5 3q-13 1 -26.5 2.5t-27.5 1.5q-9 0 -18.5 -0.5t-19.5 -0.5q-14 -1 -28 -3l-28 -4q-5 0 -8.5 1.5t-3.5 7.5v2t1 2
q2 4 8.5 8.5t13.5 10.5q8 8 15 18.5t7 26.5v20v218v2.5v2.5q0 12 -4.5 21.5t-19.5 9.5h-30h-2h-2q-4 1 -7 2.5t-4 4.5q0 4 0.5 7.5t1.5 7.5v0.5t1 1.5q0 3 1 6t1 6q1 8 7 10.5t13 2.5h3.5h3.5h4h3q17 1 24 7.5t8 24.5q2 23 7 51t13 57q18 62 54.5 113.5t98.5 51.5
q4 0 9 -0.5t10 -1.5q10 -2 18.5 -7.5t8.5 -15.5t-2.5 -20t-5.5 -20v-1t-1 -1q-1 -5 -2.5 -10.5t-2.5 -10.5v-1.5t-1 -1.5q0 -3 -1.5 -5.5t-4.5 -3.5q-3 0 -5.5 2.5t-4.5 5.5q-3 4 -5.5 9t-5.5 10q-6 9 -15 17.5t-24 8.5q-18 0 -27 -20t-12 -44q-2 -13 -2.5 -24.5t-0.5 -20.5
q0 -15 -0.5 -29.5t-0.5 -28.5q-1 -14 -1 -28.5v-29.5q0 -20 10 -26t26 -6h31h6h5q6 1 12 2.5t10 5.5l2.5 2.5l2.5 2.5q2 2 4.5 4t5.5 2h0.5h1.5l2 -2t1 -3v-1q0 -1 -0.5 -2.5t-1.5 -2.5q-2 -5 -4 -11.5t-4 -12.5l-2 -6l-2 -6q-1 -2 -1.5 -4t-1.5 -4q-3 -8 -8 -10t-17 -2v0z
" />
    <glyph glyph-name="g" unicode="g" horiz-adv-x="441" 
d="M344 373q27 4 48.5 16t25.5 43q0 5 2 7t6 3q5 0 7 -2t3 -7q0 -17 -2 -34.5t-5 -34.5q-1 -6 -1.5 -11.5t-1.5 -11.5q-1 -10 -9 -16.5t-18 -11.5l-5 -2.5t-6 -2.5q0 -5 0.5 -10.5t1.5 -10.5t1.5 -10.5t0.5 -10.5q0 -54 -40 -83.5t-88 -38.5q-12 -3 -24 -4t-23 -1
q-9 0 -17.5 1t-16.5 2t-16.5 2t-16.5 1q-16 0 -26.5 -13t-10.5 -29q0 -20 15.5 -28.5t33.5 -10.5q7 -1 13 -1.5t12 -0.5h43h14.5h14.5q22 -1 44 -2.5t43 -6.5q33 -7 55.5 -26t22.5 -54q0 -68 -48.5 -100t-107.5 -41q-14 -2 -27.5 -3t-26.5 -1q-15 0 -36.5 0.5t-43.5 4.5
q-40 5 -73 22.5t-33 56.5q0 22 15 40t36 23q1 0 4.5 0.5t6.5 1.5q4 1 8 2.5t4 3.5q0 3 -6.5 10t-13.5 16q-8 9 -14.5 21.5t-6.5 26.5q0 25 9 38.5t20 23.5l1 1l2 2q7 6 13 13t9 17v1q0 5 -4 8.5t-8 6.5l-4 2l-4 2q-16 9 -28.5 27.5t-19.5 38.5q-3 10 -4.5 19.5t-1.5 17.5
q0 64 48 98.5t106 39.5q5 1 10 1h10q35 0 68 -10t61 -31v0zM104 -73q0 -33 25.5 -50.5t55.5 -23.5q10 -2 20.5 -3t19.5 -1q10 0 22.5 1t25.5 3q27 5 50 19t23 44q0 13 -7 22.5t-19 14.5q-5 2 -21 4.5t-37 4.5q-7 1 -15 2t-15 2q-29 3 -54.5 5.5t-33.5 2.5q-18 -2 -29 -15.5
t-11 -30.5v-1zM134 289q0 -11 1 -23t4 -25q7 -31 24.5 -57t51.5 -26q39 0 57 28t22 61q1 6 1.5 12.5t0.5 12.5q0 8 -0.5 17t-2.5 17q-5 33 -22.5 60t-54.5 27q-38 0 -58 -28t-23 -61q-1 -4 -1 -7.5v-7.5v0z" />
    <glyph glyph-name="h" unicode="h" horiz-adv-x="554" 
d="M177 303v-184q0 -47 13 -67t59 -32q4 -1 7 -3.5t3 -7.5q-1 -7 -5 -8.5t-9 -1.5q-10 0 -21.5 1t-22.5 3t-22.5 3.5t-23.5 1.5q-13 0 -25.5 -1.5t-25.5 -2.5q-13 -2 -25.5 -3t-25.5 -1q-7 0 -13.5 1.5t-8.5 6.5l-0.5 0.5t-0.5 1.5v1.5v0.5q0 4 3 6.5t7 3.5q22 8 29.5 26.5
t8.5 39.5q1 6 1 12.5v12.5v441q0 35 -8.5 54t-46.5 23q-4 1 -7 3.5t-3 7.5q0 8 7.5 12t16.5 6q6 1 11.5 1.5t8.5 1.5q5 1 9.5 2t8.5 3q18 5 36 12.5t34 17.5q2 1 4 2.5t5 2.5q2 2 5 3.5t6 2.5q2 2 5 2.5t5 0.5q5 0 6.5 -3t1.5 -7v-2v-2q-2 -12 -3.5 -25t-1.5 -25
q-1 -13 -1.5 -26t-0.5 -25v-33v-216v-2v-2t1 -2.5t2 -1.5l11.5 11.5t29.5 25.5q18 13 41 24.5t47 11.5q95 0 123.5 -63t28.5 -141v-82v-6v-5q1 -34 11.5 -63.5t52.5 -32.5h2h2q4 -1 8 -3t4 -8q0 -5 -3 -7t-7 -2h-2h-2q-10 0 -20.5 0.5t-20.5 1.5q-11 0 -21 1t-21 1
q-14 0 -28.5 -1t-28.5 -2q-15 -1 -29.5 -1.5t-28.5 -0.5q-5 0 -8.5 2t-3.5 8q1 4 3 6t6 4q3 2 6.5 4t7.5 5q9 7 16 22t7 47v101q0 10 -0.5 21t-1.5 22q-5 44 -26.5 80t-73.5 36q-30 0 -50 -14t-34 -40v0z" />
    <glyph glyph-name="i" unicode="i" horiz-adv-x="286" 
d="M190 392v-277q0 -40 13.5 -63.5t56.5 -28.5h1.5h0.5q6 -1 10.5 -4t4.5 -8q0 -6 -6.5 -8.5t-13.5 -2.5h-6h-6q-13 0 -26 1t-26 3q-14 1 -27 2.5t-26 1.5q-11 0 -21.5 -1.5t-21.5 -2.5q-11 -2 -21.5 -3t-21.5 -1q-4 0 -6 1t-4 4q0 1 0.5 2t0.5 2q2 5 9 10.5t15 13.5
q9 9 16.5 24.5t7.5 39.5l-1 17v166v4v4q-1 22 -8 40.5t-35 18.5h-1.5h-1.5q-5 0 -10 1.5t-6 7.5q0 9 6.5 13t13.5 5q3 1 5.5 1.5t4.5 0.5q31 7 61 18t55 30q1 0 1.5 0.5l0.5 0.5q1 0 1 0.5t1 0.5l1 0.5t2 0.5q5 0 6.5 -2t1.5 -7v-6.5v-6.5q-1 -3 -1 -6.5v-6.5v0zM72 580
q0 4 2.5 8.5t5.5 9.5q2 2 3.5 4t3.5 5q4 4 7.5 8t5.5 6l23 28l1.5 1.5l0.5 0.5q3 3 5.5 5t6.5 2h1h2.5t2.5 -1q5 -2 10 -7l10 -10l6 -8t5 -7q11 -13 16.5 -18.5t7.5 -9.5q2 -3 3 -5.5t2 -7.5q0 -11 -6 -19.5t-13 -16.5q-2 -2 -3.5 -4t-3.5 -4q-3 -3 -5.5 -7t-6.5 -8
q-5 -8 -11.5 -14t-14.5 -6h-2h-2q-3 1 -5.5 2t-4.5 3q-3 4 -10.5 12t-14.5 18q-2 1 -3 2t-2 3q-9 11 -16 21t-7 14v0z" />
    <glyph glyph-name="j" unicode="j" horiz-adv-x="267" 
d="M193 369v-300q0 -52 -14 -93t-49 -81q-4 -5 -9 -10.5t-10 -10.5q-12 -13 -27 -24.5t-30 -15.5q-3 0 -6 -0.5t-6 -0.5h-12.5t-13.5 1q-16 2 -28.5 8.5t-12.5 23.5q0 4 0.5 15.5t1.5 24.5q2 16 6.5 29t12.5 13v-1q8 1 15 -6.5t14 -17.5q1 -1 2 -2.5t2 -3.5
q8 -12 16.5 -21.5t19.5 -9.5l1 -1q11 2 16 11t7 19l2 10t1 9q2 16 2.5 32.5t0.5 33.5v277v10.5t-1 10.5q-1 18 -9 33.5t-31 15.5q-3 0 -5.5 -0.5t-4.5 -0.5q-3 0 -5.5 -0.5t-5.5 -0.5q-4 0 -7 2t-3 7q0 6 4.5 10t10.5 5q0 1 0.5 1h1.5q38 8 72.5 20.5t66.5 34.5q1 0 1.5 0.5
l0.5 0.5q1 1 2.5 1.5t2.5 0.5q5 0 6.5 -4.5t1.5 -9.5v-11.5v-10.5q-1 -6 -1 -11.5v-11.5v0zM71 580q0 4 2.5 8.5t6.5 9.5q1 2 2.5 4t3.5 4q4 5 7.5 8.5t5.5 6.5l23 28q0 1 0.5 1.5t1.5 0.5q2 3 5 5t6 2h1q2 0 4 -0.5t4 -1.5q4 -3 9 -7t9 -9l6 -8t5 -7t5.5 -6.5t6.5 -7.5
q3 -3 6 -6.5t5 -7.5q3 -3 4 -6.5t1 -6.5q0 -11 -6 -20t-13 -17l-3.5 -3.5t-2.5 -3.5q-2 -3 -5 -7l-6 -8q-6 -7 -13 -13.5t-15 -6.5q-4 0 -7.5 1.5t-5.5 3.5q-3 4 -10.5 12t-14.5 18q-2 1 -3 2t-2 3q-9 11 -16 21t-7 14v0z" />
    <glyph glyph-name="k" unicode="k" horiz-adv-x="491" 
d="M180 213l115 96q3 3 7 6t8 7q3 4 6 7t6 7t5 8t2 7q0 13 -7.5 18t-15.5 7q-2 1 -3.5 1t-2.5 1q-8 2 -13 4.5t-5 8.5q0 5 2.5 7.5t7.5 2.5q11 0 21 -1t21 -1q10 -1 20.5 -2t20.5 -1q11 0 22.5 1.5t22.5 3.5q11 1 22.5 2.5t22.5 1.5q6 0 11 -2t6 -8q0 -7 -3.5 -10t-9.5 -5
q-23 -8 -44 -17t-41 -21q-6 -4 -11.5 -7.5t-11.5 -7.5q-3 -2 -12 -8.5t-19 -13.5q-2 -2 -3.5 -3t-3.5 -2q-9 -8 -17 -15.5t-9 -10.5q0 -14 15.5 -39.5t35.5 -53.5q4 -5 8.5 -10.5t8.5 -11.5q19 -23 35.5 -43t25.5 -31t15 -19t12 -13q8 -9 17.5 -14t24.5 -10q3 -1 6 -1.5
t6 -1.5q1 0 2 -0.5t2 -0.5q5 -2 8.5 -4.5t4.5 -7.5q0 -4 -1.5 -7t-5.5 -4q-6 0 -12.5 0.5t-12.5 1.5t-12.5 1.5t-12.5 0.5q-10 0 -21 -0.5t-21 -0.5q-11 -1 -21.5 -1.5t-21.5 -0.5q-9 0 -15.5 3t-12.5 8l-2.5 2.5l-2.5 2.5q-37 42 -71.5 88t-60.5 95l-37 -33v-52
q0 -34 14 -63.5t54 -31.5h2.5h2.5q6 -1 10 -3.5t4 -8.5t-5 -8.5t-10 -3.5q-2 -1 -4 -1h-4q-13 0 -26 1.5t-26 2.5t-26 2.5t-27 1.5q-12 0 -23.5 -1t-22.5 -3q-11 -1 -22.5 -2t-23.5 -1q-4 0 -6.5 2.5t-3.5 6.5v0.5v0.5q2 4 8.5 8.5t14.5 11.5t15 19.5t7 32.5v38v427v9.5v9.5
q-2 24 -11.5 44t-39.5 20q-5 0 -9 3t-4 8q0 8 8 12t18 6q7 2 13 3t10 1q1 1 1.5 1h0.5q3 1 6 1.5t6 0.5q21 5 41.5 13.5t37.5 22.5q2 2 5 4t7 3q5 0 8.5 -2t3.5 -8q0 -13 -0.5 -25.5t-1.5 -24.5v-5.5v-5.5q-1 -10 -1.5 -20t-0.5 -20v-383v0z" />
    <glyph glyph-name="l" unicode="l" horiz-adv-x="272" 
d="M175 565v-432q0 -5 0.5 -9.5t0.5 -8.5q2 -36 11.5 -59.5t55.5 -30.5q1 0 2 -0.5t2 -0.5q5 -1 8.5 -2.5t4.5 -7.5v-2v-2q-1 -4 -2.5 -7t-6.5 -3q-15 0 -30 1l-30 2q-16 1 -31 2t-30 1h-9.5t-9.5 -1q-8 0 -15.5 -0.5t-15.5 -1.5q-12 -1 -22.5 -2t-19.5 -1h-1q-4 0 -7 3.5
t-3 7.5q0 3 7.5 9t17.5 15q8 9 15.5 22t8.5 31v10t1 11v10v10v394v24v6v7q-1 26 -10 48.5t-39 23.5q-6 1 -9.5 3.5t-4.5 9.5v1q0 7 6 10t14 4q3 1 6.5 1.5t6.5 1.5h0.5h1.5q8 2 16.5 4t17.5 4q17 5 33.5 11.5t31.5 15.5q2 1 4 2.5t4 3.5q2 1 3.5 2t3.5 2t5 2t5 1q5 0 6.5 -3
t1.5 -7q0 -17 -1 -34l-2 -34l-2 -34t-1 -34v0z" />
    <glyph glyph-name="m" unicode="m" horiz-adv-x="823" 
d="M740 231v-136q0 -34 11 -50t47 -21h2t2 -1q5 -1 9.5 -3.5t4.5 -8.5q-1 -7 -5 -9t-8 -3h-1.5h-1.5q-14 0 -27.5 1.5t-27.5 3.5t-27.5 4t-27.5 2q-10 0 -20 -1.5t-20 -2.5q-10 -2 -20 -3.5t-20 -1.5h-1.5h-0.5q-3 0 -5 1t-3 4l-0.5 0.5t-0.5 1.5v1.5v0.5q0 3 1.5 5t4.5 5
l7.5 5t8.5 6q8 7 15 17t7 27v6v6q-1 2 -1 5v6v134v4v4q-1 46 -17.5 83.5t-74.5 37.5q-32 0 -57.5 -19.5t-25.5 -53.5v-176q0 -39 11 -61.5t55 -27.5h2t2 -1q5 -1 9.5 -3t4.5 -7q0 -7 -5.5 -10.5t-12.5 -3.5q-15 0 -29.5 1t-28.5 4q-14 2 -28.5 3.5t-29.5 1.5q-13 0 -26 -1.5
t-26 -3.5q-6 -1 -12.5 -2t-12.5 -1h-1.5h-0.5q-5 0 -9 2t-4 8q0 2 1.5 4t3.5 4q3 3 7.5 6t9.5 7q8 6 15 17t7 30v25v127v10.5t-1 10.5q-2 41 -19 74.5t-67 33.5q-36 0 -62 -25t-26 -61v-166q0 -41 15 -57.5t54 -25.5q1 0 1.5 -0.5l0.5 -0.5q5 -1 9 -3.5t4 -7.5q0 -7 -5 -9.5
t-11 -2.5q-15 0 -30 1.5t-30 3.5q-15 1 -30 2.5t-30 1.5q-10 0 -19.5 -1.5t-18.5 -2.5q-3 -1 -6 -1.5t-6 -1.5q-6 -1 -12.5 -1.5t-12.5 -0.5h-1.5h-1.5q-4 0 -8 2.5t-5 7.5v2q0 1 0.5 2t1.5 2q2 3 8 6t12 9q8 6 15 18t7 33q1 11 1 21.5v20.5v137v22v2.5v2.5q-1 31 -7 46.5
t-40 15.5h-2h-2q-5 0 -9.5 2t-4.5 9q0 6 5 9t10 5q3 0 5.5 1t4.5 1q2 1 4.5 1.5t4.5 1.5q5 1 9.5 2.5t9.5 3.5q25 7 49 16.5t46 24.5q1 1 2 1t2 1h1h1h1q2 0 4 -2t2 -5q1 -1 1 -1.5v-1.5q0 -7 -0.5 -14t-0.5 -14q0 -8 -0.5 -15t-0.5 -14v-1.5v-0.5q0 -7 1.5 -12t6.5 -5
q3 0 14 11.5t28 25.5t39.5 25.5t48.5 11.5q9 0 19 -2t21 -6q23 -9 44 -25.5t28 -36.5q1 -1 1.5 -3t1.5 -4q1 -3 2.5 -5.5t3.5 -2.5h1q1 0 1.5 0.5l0.5 0.5l2 2t1 2l2 2t1 2q23 32 60 54t77 22q86 0 115 -57t29 -129v0z" />
    <glyph glyph-name="n" unicode="n" horiz-adv-x="565" 
d="M480 206v-81q0 -40 10 -66t54 -34q6 0 11 -2.5t5 -9.5t-6.5 -10t-13.5 -3h-6h-6q-11 0 -22 1l-22 2q-12 2 -23 3t-22 1q-13 0 -26 -1t-25 -2q-12 -2 -23 -3t-20 -1q-4 0 -7 3t-4 7q0 3 2 5.5t5 4.5q4 2 8 4.5t9 5.5q8 7 15.5 21t7.5 41v122q0 9 -0.5 18.5t-2.5 19.5
q-6 40 -28 73t-68 33q-35 0 -63 -22t-28 -59v-163q0 -39 15.5 -63.5t58.5 -26.5q5 -1 8.5 -2.5t4.5 -6.5q0 -7 -4 -11t-12 -4q-15 0 -30 1t-29 3q-15 1 -30 2.5t-30 1.5q-10 0 -20.5 -1t-20.5 -2q-11 -2 -21 -3t-21 -1h-1.5h-0.5q-5 0 -9 1.5t-4 8.5q0 2 1.5 4t3.5 4
q4 3 8.5 5.5t10.5 7.5q8 8 15.5 23t7.5 43v172v19v11t-1 12q-1 14 -7.5 26.5t-23.5 12.5h-1h-23q-4 0 -6.5 2.5t-2.5 6.5q0 11 9 15.5t19 6.5q3 1 6 1.5t6 1.5q3 0 5.5 0.5t4.5 1.5q27 6 53 16t49 27q1 1 2.5 1.5t2.5 0.5q4 0 5.5 -2t1.5 -6v-25.5t-2 -25.5v-5.5t1 -7.5
q0 -5 2 -9.5t6 -4.5t13 10.5t26 23.5q16 13 39.5 23.5t56.5 10.5q97 0 122 -64t25 -144v0z" />
    <glyph glyph-name="o" unicode="o" horiz-adv-x="507" 
d="M33 186q0 96 66.5 162t161.5 66q85 0 148.5 -57.5t63.5 -144.5q0 -97 -65 -160.5t-162 -63.5q-85 0 -149 55t-64 143v0zM132 239q0 -18 3 -40t9 -44q14 -53 47.5 -97.5t87.5 -44.5q48 0 73 35.5t30 77.5q0 6 0.5 11.5t0.5 11.5q0 19 -2.5 41t-7.5 44q-13 58 -46.5 105.5
t-94.5 47.5q-44 0 -66.5 -33t-29.5 -72q-2 -11 -3 -22t-1 -21v0z" />
    <glyph glyph-name="p" unicode="p" horiz-adv-x="536" 
d="M93 -57v334l1 18q0 20 -10 37t-33 17h-2h-2q-2 -1 -3 -1h-2q-6 0 -10 2.5t-4 9.5q0 5 3 7.5t7 3.5q8 1 15.5 2t14.5 3q23 4 45.5 11t41.5 20q2 2 4 3.5t5 3.5q4 4 9.5 7.5t10.5 3.5t6.5 -7t1.5 -15q0 -4 -0.5 -8t-0.5 -8q0 -5 -0.5 -9t-0.5 -8v-1.5v-1.5q0 -6 2 -11t7 -6
q6 0 19 10t31 22q18 11 41 21t48 10q78 0 122.5 -54.5t44.5 -128.5v-10.5t-1 -10.5q-6 -84 -61 -153t-146 -69h-8t-9 1q-12 1 -24 3t-22 5q-14 3 -24 5.5t-13 2.5q-4 -1 -5 -3.5t-1 -6.5v-51q0 -41 14.5 -58.5t58.5 -23.5h2t2 -1q5 -1 9.5 -4t4.5 -9q0 -5 -4.5 -9t-10.5 -5
h-0.5h-1.5q-7 0 -17.5 2t-21.5 4q-6 1 -12.5 2t-12.5 2t-11.5 1.5t-11.5 0.5q-13 0 -26.5 -1t-26.5 -2t-26.5 -2t-26.5 -1q-15 0 -18.5 3t-3.5 10q0 6 3 8.5t8 4.5q2 1 5 2t6 3q8 4 14.5 15.5t6.5 37.5v20v0zM191 297v-190q0 -27 23 -47t51 -30q12 -5 24 -7.5t22 -2.5
q58 0 84.5 43t27.5 95v1.5v1.5q0 6 -0.5 11.5t-0.5 11.5q-6 61 -45.5 112.5t-107.5 51.5q-6 0 -13.5 -1t-15.5 -3q-18 -5 -33.5 -16.5t-15.5 -30.5v0z" />
    <glyph glyph-name="q" unicode="q" horiz-adv-x="508" 
d="M447 315v-355v-36q1 -24 7 -40.5t31 -23.5q4 -1 6.5 -2.5t3.5 -5.5q0 -6 -3 -10.5t-10 -4.5q-4 0 -8.5 0.5t-8.5 0.5t-8.5 0.5t-8.5 0.5q-22 0 -44 -1t-43 -2q-22 0 -44 -1t-44 -1h-2.5h-2.5q-5 1 -8.5 3.5t-3.5 7.5q0 7 6 9.5t16 3.5q5 1 11.5 2t13.5 4q17 5 31.5 21
t14.5 57v87v3v3q-1 5 -2.5 8.5t-4.5 3.5h-1q-3 0 -14.5 -9.5t-29.5 -20.5t-42 -20t-52 -9q-81 0 -125.5 55.5t-44.5 132.5q0 98 64 168t165 70q28 0 51.5 -6.5t41.5 -13.5q18 -8 29.5 -14.5t14.5 -6.5h1q7 0 12 6.5t9 14.5l0.5 0.5l0.5 0.5q4 8 8.5 14.5t11.5 7.5
q5 0 7.5 -2.5t2.5 -7.5q0 -12 -1 -23.5t-1 -22.5q-1 -11 -2 -22.5t-1 -23.5v0zM349 113v180q0 30 -25 55t-54 36q-9 3 -18 5t-17 2q-51 0 -78.5 -37t-33.5 -82q-1 -7 -1.5 -13.5t-0.5 -13.5q0 -12 1 -24.5t3 -25.5q10 -57 45 -105t99 -48q35 0 57.5 17t22.5 54v0z" />
    <glyph glyph-name="r" unicode="r" horiz-adv-x="374" 
d="M186 246v-117q0 -39 15 -70t58 -37q6 -1 10.5 -3t4.5 -9q0 -4 -1.5 -7t-6.5 -4q-14 0 -29 1t-31 3q-17 1 -33.5 2.5t-33.5 1.5q-11 0 -22 -1l-22 -2q-12 -1 -23 -2t-22 -1q-5 0 -8.5 3.5t-3.5 8.5q0 4 2.5 6.5t6.5 4.5q3 2 7.5 4.5t9.5 5.5q9 7 17 21t8 43v5.5v4.5
t-0.5 4.5t-0.5 5.5v175q0 30 -8 44t-40 17q-4 0 -7.5 3t-3.5 7q0 6 4 9t9 4q26 4 50 12t47 19q11 5 21 10t21 10h1q4 0 6.5 -3t2.5 -8q0 -9 -1 -18t-1 -17l-2 -18t-1 -18v-2v-2q1 -3 2.5 -5.5t4.5 -3.5h1q4 0 15 13t25 29l14 14t14 13q8 6 16 10.5t15 4.5h1q6 0 16.5 -5
t21.5 -12q6 -4 12 -8.5t11 -8.5q9 -8 15 -15t7 -12q0 -4 -4 -14.5t-10 -21.5q-4 -9 -10 -17t-12 -14q-3 -3 -7 -5t-7 -2q-7 0 -15 6.5t-19 13.5q-10 8 -22 14t-27 6q-33 0 -45.5 -23.5t-12.5 -52.5v0z" />
    <glyph glyph-name="s" unicode="s" horiz-adv-x="380" 
d="M61 289q0 62 44.5 93.5t101.5 31.5q8 0 19 -0.5t22 -2.5q22 -3 40 -9.5t19 -18.5q0 -9 1 -17.5t2 -16.5q0 -8 1 -16.5t1 -17.5v-2.5v-3.5q-1 -4 -2.5 -7t-6.5 -3q-7 0 -16 15t-22 33q-14 17 -32 32t-44 15h-2.5h-2.5q-22 -2 -40.5 -17.5t-18.5 -38.5q0 -26 20.5 -41.5
t49.5 -29.5q8 -3 16 -6.5t15 -7.5q39 -18 70.5 -46t31.5 -82q0 -58 -38.5 -97.5t-97.5 -39.5q-4 0 -24 2t-44 6q-26 4 -47.5 10t-21.5 14q0 6 0.5 12t0.5 12q0 5 0.5 11t0.5 12t-0.5 11.5t-0.5 11.5q0 3 -0.5 5.5t-0.5 5.5q0 8 -0.5 16.5t-0.5 17.5q0 6 3 9.5t10 3.5
q6 0 8.5 -4t3.5 -9q1 -7 3 -14t5 -14q12 -36 38.5 -66t65.5 -31q27 0 49 16t23 45q0 40 -27 59t-61 34q-4 1 -7 2.5t-6 3.5q-38 16 -69.5 40.5t-31.5 78.5v0z" />
    <glyph glyph-name="t" unicode="t" horiz-adv-x="315" 
d="M186 352v-238q0 -30 9.5 -54t46.5 -24q6 0 14 1t17 3q10 3 20 6.5t15 8.5q2 2 3.5 3t3.5 1h1q3 0 4.5 -3t2.5 -6q1 -2 1 -3.5v-2.5q-1 -2 -3 -5t-5 -6q-2 -2 -4.5 -3.5t-4.5 -3.5q-4 -3 -8.5 -6t-6.5 -4q-22 -15 -47 -21.5t-51 -6.5q-52 0 -79 24t-27 77v263h-30h-2.5
h-3.5q-6 1 -11.5 3.5t-5.5 10.5q0 5 4 8.5t8 6.5q10 6 22.5 17t25.5 23q6 6 12 12.5t12 12.5q13 14 23.5 27.5t17.5 23.5q1 2 2 3.5t2 3.5q3 5 8 10t12 5q2 -1 2 -2.5v-3.5v-13v-101h71q8 0 15 1.5t13 5.5q1 1 3 2.5t4 2.5q2 2 5.5 4t6.5 2h1.5h1.5q3 -1 5 -2t2 -4v-1
q0 -3 -1.5 -7.5t-3.5 -9.5v-0.5v-1.5q-2 -4 -3 -7.5t-1 -6.5q-3 -12 -8.5 -18.5t-18.5 -6.5h-92v0z" />
    <glyph glyph-name="u" unicode="u" horiz-adv-x="542" 
d="M455 407v-284v-18q0 -41 7.5 -55t48.5 -14h6q9 0 12.5 -2t3.5 -10q0 -7 -6 -10t-13 -5q-4 0 -7.5 -0.5t-6.5 -0.5q-21 0 -40.5 -2.5t-36.5 -4.5t-31.5 -4.5t-26.5 -2.5q-4 1 -5.5 3.5t-2.5 6.5v2.5v2.5v10t1 10v10v10v2v1l-2 4t-3 2q-3 0 -14 -11t-29 -24
q-18 -14 -41 -24.5t-50 -10.5q-82 0 -114 46t-32 120q0 12 0.5 24.5t1.5 24.5q1 36 2 72.5t1 73.5q0 21 -9.5 27.5t-21.5 8.5q-2 0 -4 0.5t-5 0.5q-9 0 -15.5 2t-6.5 11q0 8 22 12t48 7q16 1 31 2.5l25 2.5q5 0 8 0.5t5 1.5t4.5 1.5t5.5 1.5q2 0 4.5 0.5t4.5 0.5h1q5 0 7 -3
t2 -8q0 -20 -1 -41l-2 -42q-1 -22 -2 -43.5t-1 -43.5v-48v-21t1 -22q2 -43 19 -78.5t70 -35.5q45 0 67 28t22 70v170v12q0 36 -7.5 48.5t-43.5 16.5q-1 0 -2.5 0.5t-2.5 0.5q-4 2 -7 4.5t-3 6.5q0 11 14.5 14t36.5 3h9h18t17 1q14 0 27 2.5t26 6.5q2 1 4.5 1.5t4.5 0.5h1
q5 0 6 -3.5t1 -8.5q-1 -2 -1 -4.5v-5.5v0z" />
    <glyph glyph-name="v" unicode="v" horiz-adv-x="416" 
d="M151 309l67 -151q1 -2 2.5 -5.5t3.5 -7.5q3 -6 6.5 -10.5t7.5 -4.5q6 0 20 22t30 53q4 8 8.5 16.5t8.5 17.5q15 33 26 62t11 41v1q-1 20 -16.5 30.5t-33.5 11.5q-8 0 -10 4t-2 10q2 4 4 5.5t6 1.5q13 0 26 -0.5t26 -1.5q9 -1 17.5 -1.5t17.5 -0.5q12 0 24 1t24 3
q5 0 7.5 -3t2.5 -7q0 -5 -3.5 -8.5t-7.5 -5.5l-0.5 -0.5t-1.5 -0.5q-13 -4 -20 -12.5t-12 -19.5q-4 -8 -8 -16.5t-8 -16.5q-6 -12 -12 -24.5t-12 -25.5q-31 -62 -62.5 -123.5t-66.5 -121.5q-1 -2 -2.5 -5.5t-3.5 -7.5q-3 -6 -7.5 -10t-9.5 -4q-8 0 -12 5t-7 11l-2 6t-2 5
l-122 269l-7.5 15t-6.5 15q-4 7 -7.5 14.5t-7.5 14.5q-11 24 -20.5 29.5t-16.5 6.5q-4 1 -6.5 3t-2.5 9q0 4 3.5 6t7.5 3h0.5h1.5q8 0 15.5 -1t15.5 -1l16 -2t16 -1q15 0 30 1t31 2q15 0 30 1t30 1h9t8 -1q2 -1 3.5 -3t2.5 -4v-2v-2q0 -4 -4.5 -6.5t-9.5 -3.5q-4 -1 -8.5 -2
t-9.5 -2q-11 -3 -20 -9.5t-9 -19.5q0 -3 0.5 -7t1.5 -7q2 -6 4 -11t4 -9l2 -4l2 -4v0z" />
    <glyph glyph-name="w" unicode="w" horiz-adv-x="661" 
d="M608 295l-135 -292q0 -1 -0.5 -1.5t-0.5 -1.5q-2 -3 -4.5 -5t-6.5 -2q-8 0 -12.5 5.5t-7.5 11.5q0 1 -0.5 1.5t-0.5 1.5l-88 208q-1 1 -2 3l-2 4q-2 4 -4 7t-5 3q-4 0 -7.5 -4t-5.5 -8q-2 -3 -3.5 -6l-2.5 -5l-114 -212q-3 -4 -7 -7t-10 -3q-2 1 -3 2.5t-2 3.5v0.5
t-1 0.5l-0.5 0.5t-0.5 1.5l-131 306q0 1 -0.5 2t-1.5 2q-1 4 -3 8t-3 8q-8 17 -18 32.5t-27 21.5q-1 0 -2 0.5t-2 1.5q-2 1 -3.5 3.5t-1.5 5.5q0 4 1 7t6 3q12 0 24.5 -1t25.5 -2l26 -2t26 -1q11 0 21.5 1t21.5 2q10 1 21 2t21 1q5 -1 7 -3.5t2 -7.5q0 -4 -3.5 -7t-7.5 -5
q-3 -1 -5.5 -2t-5.5 -3q-8 -4 -15 -12t-7 -25q0 -8 2.5 -15.5t5.5 -15.5l61 -149q1 -2 2 -5t2 -5q2 -6 6 -11t10 -5q5 0 8 3.5t6 7.5l0.5 0.5t0.5 1.5l65 116q2 5 4 9.5t2 8.5q0 7 -1.5 15.5t-5.5 16.5q-8 22 -25 42t-37 26q-5 2 -8 5t-3 7q0 5 3 8.5t7 3.5q13 0 26 -1
l26 -2l26 -2t26 -1q11 0 21.5 1t21.5 2q10 0 21 1t21 1h2h2q4 -1 7 -2.5t3 -6.5q0 -8 -5.5 -11t-11.5 -5q-2 0 -3.5 -0.5t-3.5 -0.5q-10 -3 -16 -11.5t-7 -17.5v-2v-2v-5t1 -5q1 -5 2.5 -10t3.5 -10l67 -158q0 -1 0.5 -2t0.5 -2q2 -4 4 -7t6 -3h1q6 1 9.5 5t5.5 9q2 3 3 5.5
t2 4.5q6 11 13 25l15 30l8 16t7 16q11 23 18 45t7 38q0 20 -11.5 32t-31.5 13q-6 1 -11 3.5t-5 9.5q0 4 3 7t8 3q11 0 22.5 -0.5t23.5 -0.5q3 0 7 -0.5t8 -0.5q7 0 15 -0.5t15 -0.5q5 0 10.5 0.5t10.5 0.5t10.5 0.5t10.5 0.5q4 0 5.5 -3t2.5 -6v-0.5v-1.5q0 -5 -2.5 -7.5
t-7.5 -4.5q-18 -7 -28 -22.5t-17 -32.5q-1 -3 -2.5 -5.5t-2.5 -5.5q-2 -5 -4 -9.5t-4 -8.5v0z" />
    <glyph glyph-name="x" unicode="x" horiz-adv-x="453" 
d="M204 161q-6 -6 -17.5 -16.5t-23.5 -22.5q-5 -4 -9.5 -9t-9.5 -10q-12 -13 -20 -25.5t-8 -21.5q0 -12 9 -20.5t20 -11.5q1 0 2.5 -0.5t2.5 -0.5h2t2 -1q4 0 8 -2t4 -8q0 -5 -4.5 -8t-9.5 -3q-10 0 -20.5 0.5t-20.5 1.5q-11 1 -21 1.5t-21 0.5q-7 0 -14.5 -0.5t-14.5 -1.5
q-8 -1 -15 -1.5t-15 -0.5q-4 0 -6 2.5t-2 6.5q0 5 3.5 8.5t7.5 4.5q18 8 33.5 20.5t29.5 26.5l8 8l8 8l95 96l-99 127q-3 4 -6.5 8.5t-6.5 8.5q-13 16 -28.5 30.5t-34.5 20.5q-1 0 -2 0.5t-2 1.5q-2 1 -4 2.5t-3 4.5v2.5v2.5q0 4 2 7t6 4q13 0 26 -1t27 -1l26 -2t26 -1
q14 0 28 0.5t28 1.5t28 1.5t28 0.5q5 0 7.5 -2t2.5 -7q0 -11 -7 -14t-15 -4q-1 0 -1.5 -0.5l-0.5 -0.5q-9 -1 -16 -5t-8 -16q0 -20 12.5 -38t28.5 -35q7 -8 14 -15.5t13 -14.5q7 7 17.5 18t21.5 23l6.5 6.5t6.5 7.5q14 16 24 31t10 24q0 11 -7.5 14.5t-15.5 4.5h-1.5h-1.5
q-8 1 -14.5 3.5t-6.5 10.5q0 4 1.5 6.5t5.5 3.5q8 0 15.5 -1t14.5 -1q8 -1 15.5 -2t15.5 -1q11 0 21.5 0.5t21.5 1.5q11 0 21.5 0.5t21.5 0.5q4 0 6.5 -1.5t2.5 -6.5t-1.5 -8.5t-7.5 -4.5q-21 -4 -40 -17t-34 -28l-2 -2l-2 -2l-100 -101l101 -129q1 -1 2 -2.5t2 -2.5t2 -2.5
t2 -2.5q16 -20 33.5 -37.5t42.5 -26.5h1.5t0.5 -1q6 -1 10.5 -4.5t4.5 -9.5v-1q0 -5 -4 -7.5t-9 -2.5q-13 0 -27 1t-27 2q-14 0 -27.5 1t-27.5 1q-13 0 -26.5 -0.5t-26.5 -1.5q-14 -1 -27 -1.5t-27 -0.5h-2h-2q-3 1 -5.5 3t-2.5 6q0 9 6.5 12.5t14.5 6.5h0.5h0.5q8 3 15 7.5
t7 14.5q0 9 -9 24t-21 31l-4 6l-4 6q-10 13 -19.5 24.5t-14.5 18.5v0z" />
    <glyph glyph-name="y" unicode="y" horiz-adv-x="425" 
d="M158 305l83 -159q1 -2 2 -4.5t3 -5.5q2 -4 5 -8t7 -4h1q2 0 4 2.5t4 6.5q1 2 2.5 4.5t2.5 5.5q3 6 5 11t3 7q4 10 8.5 20.5t9.5 21.5q14 31 25.5 64.5t11.5 67.5q0 19 -10 28.5t-22 13.5q-4 2 -8 3.5t-8 2.5q-6 2 -10 4t-5 5l-0.5 0.5t-0.5 1.5v1.5v0.5q0 4 3.5 7t7.5 3
q11 0 22 -1t22 -1q10 -1 21 -2t22 -1h14.5t15.5 1q7 0 14.5 1t14.5 2q5 0 8 -2.5t3 -7.5q0 -6 -4 -9.5t-9 -4.5q-20 -5 -31 -21.5t-18 -35.5q-3 -7 -5.5 -14t-4.5 -13l-180 -448l-0.5 -0.5t-0.5 -1.5q-3 -5 -6 -8.5t-10 -3.5h-10.5t-10.5 1q-6 0 -11.5 0.5t-10.5 0.5h-0.5
t-1.5 1q-2 0 -3.5 1.5t-1.5 3.5v0q3 11 15.5 26.5t25.5 33.5q7 8 13 16.5t11 16.5q8 13 13.5 26t5.5 25q0 8 -3 14t-6 13q0 1 -0.5 2t-1.5 2l-156 307q-1 3 -2.5 5.5t-2.5 4.5q-7 15 -16.5 28t-25.5 19q-4 2 -6 4t-3 6q0 5 4 8t9 4h0.5h1.5q11 0 23.5 -1t24.5 -1
q12 -1 24.5 -2t24.5 -1t24 1t23 3q12 1 23.5 2t23.5 1q5 -1 7 -4.5t2 -8.5v-2v-2q-1 -6 -7 -8t-13 -3h-3.5t-3.5 -1q-9 -1 -17 -6t-10 -21q0 -13 5 -23.5t11 -21.5v0z" />
    <glyph glyph-name="z" unicode="z" horiz-adv-x="389" 
d="M332 374l-178 -245q-1 -1 -1.5 -2.5t-1.5 -3.5q-1 0 -1 -0.5v-1.5q-3 -4 -4.5 -7.5t-1.5 -8.5q0 -11 16.5 -16t36.5 -7q10 -1 19.5 -1h16.5h21h16.5t17.5 1q15 2 29.5 6.5t23.5 15.5l0.5 0.5l1.5 1.5q2 2 4 3.5t5 1.5q6 0 8 -3t2 -7q0 -9 -5.5 -22t-14.5 -27
q-10 -14 -22 -28t-26 -23q-9 -5 -17.5 -9t-16.5 -4q-6 0 -12 1t-11 3q-18 4 -35.5 6t-35.5 4t-36 3t-36 1q-11 0 -22.5 -1t-22.5 -3h-2h-2q-4 0 -8 2t-4 8q1 6 4.5 12t7.5 12l3.5 3.5t2.5 3.5l188 258q0 1 0.5 1.5t1.5 0.5q1 2 2 4.5t1 4.5t-2 3l-4 2h-2h-2h-98
q-26 0 -38.5 -9.5t-18.5 -21.5q-3 -4 -5 -8t-3 -7q-4 -7 -7.5 -11t-9.5 -5h-2h-2q-3 1 -5.5 3t-2.5 6v1q0 2 0.5 4t1.5 3q4 10 6 22.5t4 26.5v2.5v2.5q3 29 11 52.5t36 23.5q8 0 15 -0.5t15 -0.5q7 0 14.5 -0.5t14.5 -0.5q21 0 42.5 1.5t43.5 2.5q22 2 43.5 3t42.5 1
q5 0 9.5 -3t4.5 -9q0 -5 -2.5 -8.5t-6.5 -7.5v-0.5t-1 -0.5q-1 -1 -2 -2.5t-2 -2.5v0z" />
    <glyph glyph-name="braceleft" unicode="{" horiz-adv-x="500" 
d="M104 292v19q43 2 66 18t23 63q0 14 -0.5 28.5t-0.5 29.5q0 14 -0.5 28.5t-0.5 28.5q0 95 22.5 145.5t127.5 52.5h41h10t9 1v-24q-60 -1 -90.5 -22.5t-32.5 -87.5v-171q-2 -43 -24.5 -66.5t-63.5 -31.5v-3q51 -9 69.5 -42t18.5 -80v-39.5v-39.5q-1 -20 -1 -39.5v-39.5
q0 -68 28.5 -97t95.5 -29v-25h-15q-2 1 -3.5 1h-3.5q-78 2 -133.5 20t-55.5 118q0 25 0.5 50.5t0.5 50.5q0 8 0.5 16.5t0.5 17.5q0 17 0.5 33.5t0.5 33.5q-1 48 -23.5 64t-65.5 18v0z" />
    <glyph glyph-name="bar" unicode="|" horiz-adv-x="500" 
d="M213 666h74v-833h-74v833v0z" />
    <glyph glyph-name="braceright" unicode="}" horiz-adv-x="500" 
d="M396 311v-19q-41 -2 -65 -17.5t-24 -62.5q0 -17 0.5 -34t0.5 -34q1 -34 1.5 -68t0.5 -68q0 -79 -37 -107t-111 -30h-16t-15 -1h-16h-16v23q62 1 92 23.5t31 87.5v181q1 47 20 77t68 38v3q-40 8 -63.5 31.5t-24.5 66.5v120q-1 81 -17.5 120t-105.5 41v24q5 -1 9.5 -1h8.5
h42q63 -1 101 -21t45 -94q2 -20 3 -41t1 -42q0 -9 -0.5 -18.5t-0.5 -18.5q0 -5 -0.5 -9.5t-0.5 -9.5q0 -14 -0.5 -28t-0.5 -28q0 -49 22.5 -65t67.5 -19v0z" />
    <glyph glyph-name="asciitilde" unicode="~" horiz-adv-x="500" 
d="M454 412l21 -11q0 -1 -0.5 -1.5l-1.5 -1.5q-23 -37 -61 -68.5t-85 -31.5q-23 0 -44.5 5.5t-43.5 12.5q-1 1 -3 1.5t-3 1.5q-23 7 -46.5 13.5t-48.5 6.5q-26 0 -44.5 -12t-35.5 -28l-6 -6l-6 -6l-21 11q2 4 5 7.5t5 7.5q24 33 58 61t78 28q24 0 47 -6t45 -14
q23 -7 45.5 -13.5t46.5 -6.5q29 0 54.5 14.5t44.5 35.5v0z" />
    <glyph glyph-name="exclamdown" unicode="&#xa1;" horiz-adv-x="266" 
d="M53 -151l42 355q1 7 3 12t10 5q7 0 10 -5.5t4 -11.5q1 -2 1 -4v-4q0 -1 0.5 -2t0.5 -2l52 -364q0 -1 0.5 -3.5t0.5 -4.5q1 -5 1.5 -9.5t0.5 -8.5q0 -9 -7 -14t-15 -6h-1.5h-1.5h-6.5t-7.5 1q-4 0 -7.5 0.5t-6.5 0.5h-6t-6 1h-9.5h-9.5q-17 2 -31 8t-14 24q0 5 0.5 11
t1.5 11q0 3 0.5 5.5t0.5 5.5v-1zM20 385q0 5 6.5 13.5t15.5 17.5l4 4l4 4q11 11 20 19t10 9t2 2.5t3 2.5q4 5 9 8.5t11 3.5q5 0 17 -7.5t25 -18.5q6 -5 11 -9.5t10 -9.5q11 -11 18 -21t7 -16v-1q-1 -6 -8 -16.5t-18 -22.5q-5 -6 -11 -12.5t-13 -11.5q-10 -9 -20 -15t-17 -6
t-13.5 5t-12.5 10q-2 2 -3.5 4t-3.5 4q-4 4 -10.5 9.5t-14.5 12.5l-6 6l-5 5q-7 8 -12 15t-5 12v0z" />
    <glyph glyph-name="cent" unicode="&#xa2;" horiz-adv-x="500" 
d="M293 504v-318q3 0 6 -0.5t6 -0.5q2 -1 5 -1h6q35 0 64.5 12.5t54.5 33.5q2 2 3 2.5t2 0.5h1q4 0 7.5 -3t4.5 -7q1 -1 1 -2v-2q0 -8 -9.5 -19t-24.5 -22q-12 -9 -27 -18t-31 -16q-19 -10 -37.5 -16.5t-31.5 -8.5v-90q0 -7 -4 -9.5t-9 -2.5h-2.5h-2.5t-2.5 0.5t-2.5 0.5
q-4 1 -5.5 5t-1.5 8q-1 1 -1 2v2v2.5v2.5v79q-81 5 -134 58.5t-53 135.5q0 90 50 154.5t137 83.5v83q0 10 5.5 11.5t12.5 1.5q8 0 10.5 -2.5t2.5 -14.5v-79q4 1 7.5 1h6.5q8 0 17 -0.5t18 -2.5q14 -2 27.5 -6.5t24.5 -11.5q3 -2 5.5 -4.5l5.5 -5.5q4 -5 8.5 -10.5t7.5 -11.5
q3 -5 4.5 -10.5t1.5 -9.5q0 -9 -7 -16.5t-15 -13.5l-6 -4l-6 -4q-4 -2 -7.5 -4.5t-7.5 -5.5q-6 -5 -11.5 -8.5t-11.5 -5.5h-1q-4 0 -7 3t-3 7q0 3 -0.5 5.5t-1.5 5.5q-4 21 -16.5 39.5t-32.5 26.5v0zM262 516q-47 0 -70.5 -35.5t-25.5 -78.5v-3.5v-2.5q0 -14 1.5 -29
t4.5 -31q9 -42 31 -81t59 -59v320v0z" />
    <glyph glyph-name="sterling" unicode="&#xa3;" horiz-adv-x="500" 
d="M246 340h139q5 0 9.5 -3t4.5 -9t-3.5 -9.5t-9.5 -3.5h-132q6 -17 11 -35t5 -37q0 -70 -41.5 -119t-94.5 -87q7 3 14 5.5t14 5.5q21 9 43.5 16.5t44.5 7.5t42 -8t39 -18q1 0 1.5 -0.5t1.5 -0.5q18 -10 37 -17.5t40 -7.5q13 0 20.5 4.5t12.5 10.5q2 1 3.5 2.5t2.5 3.5
q4 3 7.5 5.5t7.5 2.5t7 -3t3 -7v-1v-1.5t-1 -1.5q0 -1 -1 -2t-1 -2l-1.5 -1.5l-0.5 -0.5q-6 -9 -12 -16.5t-12 -12.5q-20 -22 -42.5 -32t-61.5 -10q-12 0 -24.5 2t-24.5 6q-12 3 -24 7.5t-24 9.5q-25 9 -51.5 16.5t-55.5 7.5q-10 0 -19 -2t-16 -4q-8 -1 -13.5 -3t-8.5 -2
l-1 -1q-4 1 -6.5 3.5t-2.5 6.5q0 6 15.5 20.5t34.5 36.5q18 22 33.5 51t15.5 65q0 14 -2.5 29.5t-7.5 31.5q-3 14 -8 28t-10 27q-2 5 -4 10.5t-4 10.5h-82q-6 0 -10.5 2.5t-4.5 9.5t5 10t11 3h73q-10 29 -15 57.5t-5 58.5q0 84 57.5 133t138.5 49q12 0 26.5 -1.5t30.5 -4.5
q31 -7 58 -24t29 -49q0 -22 -14 -39t-37 -17q-19 0 -33 13t-14 32q0 6 2 11.5t4 10.5q0 1 0.5 1.5t0.5 1.5q2 4 3.5 8.5t1.5 9.5q0 15 -11.5 21.5t-25.5 8.5q-6 0 -12.5 0.5t-11.5 0.5t-10 -0.5t-10 -1.5q-33 -4 -60 -25t-27 -57q0 -35 10.5 -69.5t22.5 -67.5
q6 -16 11.5 -31t9.5 -30v0z" />
    <glyph glyph-name="currency" unicode="&#xa4;" horiz-adv-x="667" 
d="M50 98l94 94q-6 10 -12 19.5t-11 19.5q-13 25 -20 52.5t-7 60.5q0 40 14.5 77.5t33.5 71.5l-94 94l39 39l94 -95q33 24 72 37t80 13t78.5 -14.5t71.5 -36.5l97 97l38 -39l-97 -98q4 -7 7.5 -13.5t7.5 -13.5q15 -29 23.5 -59t8.5 -65q0 -40 -14 -75t-34 -69l97 -97
l-39 -39l-95 96q-35 -22 -72 -36t-79 -14q-41 0 -77.5 13.5t-71.5 35.5l-95 -95l-38 39v0zM489 342q0 64 -46 110.5t-110 46.5t-110.5 -46t-46.5 -111q0 -64 46.5 -109.5t110.5 -45.5q63 0 109.5 46t46.5 109v0z" />
    <glyph glyph-name="yen" unicode="&#xa5;" horiz-adv-x="576" 
d="M341 263h191v-34h-191v-130q0 -60 21.5 -70t73.5 -10v-19h-285v19q57 0 76 10.5t19 69.5v130h-191v34h191v11l-57 99h-134v33h118l-76 159q-4 7 -7.5 13.5t-6.5 12.5q-14 25 -31 39.5t-52 16.5v20h244v-20h-22h-5.5h-5.5q-13 -1 -24 -4.5t-12 -13.5q0 -9 3 -17l6 -16
q1 0 1 -0.5v-1.5l2 -4l2 -4l136 -267l122 234q2 3 3.5 7t3.5 9q2 3 3.5 6.5t3.5 7.5q3 8 5 16t2 14q0 17 -14 24t-30 8q-7 1 -13 1.5t-12 0.5v20h177v-20q-35 -3 -54.5 -27t-34.5 -52l-4 -8l-4 -8l-72 -146h125v-33h-140l-51 -85v-25v0z" />
    <glyph glyph-name="brokenbar" unicode="&#xa6;" horiz-adv-x="500" 
d="M213 153h74v-320h-74v320v0zM213 666h74v-343h-74v343v0z" />
    <glyph glyph-name="section" unicode="&#xa7;" horiz-adv-x="500" 
d="M100 447l-4.5 4.5t-4.5 5.5q-16 18 -24 38t-8 47q0 62 44.5 91.5t97.5 36.5q11 2 22 2.5t21 0.5q15 0 35 -3.5t41 -9.5q25 -7 48 -16t38 -19q7 -4 11.5 -9t5.5 -9v-0.5t1 -1.5v-1.5v-0.5q0 -4 -1 -7.5t-3 -6.5q-1 -3 -1.5 -5.5t-0.5 -5.5q-1 -3 -1.5 -5.5t-1.5 -5.5
q0 -3 -1 -10.5t-3 -15.5q-2 -10 -5.5 -18.5t-9.5 -8.5q-2 0 -4 1.5t-4 5.5q-5 8 -11 24.5t-16 35.5q-15 24 -42.5 45t-77.5 21q-9 0 -18.5 -1t-19.5 -3q-28 -5 -51 -20.5t-23 -45.5q0 -29 19.5 -43.5t43.5 -23.5q6 -2 12 -4.5t12 -4.5q16 -6 33 -12t34 -13
q67 -26 124.5 -67.5t62.5 -121.5q0 -45 -15 -81.5t-44 -70.5q14 -21 24.5 -44t10.5 -49q0 -6 -1 -12.5t-3 -13.5q-6 -17 -17 -34t-24 -30q-2 -3 -4.5 -5t-4.5 -4q-27 -25 -61.5 -37t-70.5 -16q-8 0 -16 -0.5t-16 -0.5q-12 0 -38 4t-54 11q-38 10 -69.5 26.5t-31.5 40.5
q0 7 2 14.5t4 14.5q1 2 1 6t1 8q0 6 0.5 12.5t1.5 12.5q2 16 6.5 30t14.5 16q6 0 9.5 -4t4.5 -10q12 -70 56 -110.5t117 -40.5q7 0 15 1t16 3q31 7 56.5 27t25.5 53q0 32 -29.5 52.5t-72.5 38.5q-15 7 -31 13.5t-32 13.5q-62 27 -113.5 68.5t-51.5 119.5q0 37 18.5 69
t40.5 61q1 2 2.5 3.5t2.5 3.5v0zM138 418q-12 -17 -21 -37t-9 -41q0 -34 23 -53.5t51 -32.5q3 -2 7 -3.5t7 -2.5l98 -42q20 -8 39.5 -17.5t38.5 -22.5q11 17 20 34.5t9 38.5q0 41 -27.5 64t-62.5 37q-44 18 -87.5 37t-85.5 41v0z" />
    <glyph glyph-name="dieresis" unicode="&#xa8;" horiz-adv-x="500" 
d="M104 541v1q0 10 7 19t16 17l9.5 9.5t7.5 8.5q1 2 2.5 3.5l3.5 3.5q4 4 8.5 7.5t8.5 3.5q6 0 10.5 -4t7.5 -8q2 -3 3.5 -5t2.5 -4t6.5 -8t12.5 -14q1 -1 2.5 -3t2.5 -3q6 -8 10 -14.5t4 -10.5v-1q0 -6 -3.5 -12.5t-8.5 -11.5l-2.5 -2.5l-2.5 -2.5q-3 -4 -7 -9t-8 -11
q-6 -8 -13 -15.5t-15 -8.5h-1q-5 0 -9.5 3.5t-8.5 8.5q-1 2 -2.5 3.5t-2.5 3.5q-3 4 -8 9l-10 10l-12 14t-9 14q-1 3 -1.5 5t-0.5 4v0zM274 541v1q0 9 7.5 18t15.5 18q5 4 9.5 8.5t7.5 9.5q1 2 2.5 3.5l3.5 3.5q4 4 8.5 7.5t8.5 3.5q6 0 10.5 -4t7.5 -8q2 -3 3.5 -5t2.5 -4
l6.5 -6.5t12.5 -13.5q2 -3 4 -5.5t4 -5.5q5 -6 8 -12t3 -10v-1q0 -6 -3.5 -12.5t-8.5 -11.5l-2.5 -2.5l-2.5 -2.5q-3 -4 -7 -9t-8 -11q-6 -8 -13 -15.5t-15 -8.5h-1q-5 0 -9.5 3.5t-8.5 8.5q-1 2 -2.5 3.5t-2.5 3.5q-3 4 -8 9l-10 10l-12 14t-9 14q-1 3 -1.5 5t-0.5 4v0z
" />
    <glyph glyph-name="copyright" unicode="&#xa9;" horiz-adv-x="804" 
d="M402 -13q-143 1 -245 102.5t-102 244.5t102 244.5t245 101.5t244.5 -101.5t101.5 -244.5t-101.5 -244.5t-244.5 -101.5v-1zM402 23q128 0 219 91.5t91 219.5t-91 219t-219 91t-219.5 -91t-91.5 -219t91.5 -219.5t219.5 -91.5v0zM549 524v-118h-17q-12 37 -40.5 63
t-69.5 26q-56 0 -82.5 -41t-31.5 -91q-1 -7 -1.5 -14.5t-0.5 -14.5v-8.5t1 -9.5q3 -53 28 -97t86 -44q44 0 77 26t56 60v-41q-26 -34 -64 -54t-81 -20q-80 0 -135 49.5t-55 131.5q0 83 53.5 138.5t135.5 55.5q17 0 32 -3.5t27 -8.5q13 -4 23.5 -8t19.5 -4q8 0 11.5 5.5
t6.5 11.5v0.5v1.5q1 1 1.5 3t1.5 3l18 2v0z" />
    <glyph glyph-name="ordfeminine" unicode="&#xaa;" horiz-adv-x="327" 
d="M315 333v-35h-286v35h286v0zM296 443l12 -8q-9 -16 -24 -28.5t-35 -12.5q-25 0 -34.5 13t-13.5 34q-22 -18 -47.5 -32.5t-55.5 -14.5q-25 0 -43.5 16.5t-18.5 41.5q0 33 29.5 54.5t64.5 34.5q20 7 38 12.5t32 8.5v44q0 23 -12.5 34.5t-35.5 11.5q-4 0 -11 -1t-14 -3
q-11 -3 -20 -8t-9 -13q0 -2 0.5 -3.5t1.5 -3.5q0 -1 0.5 -1.5t0.5 -1.5q5 -4 6.5 -10t1.5 -13q0 -13 -10 -21t-22 -8q-13 0 -23 11t-10 24q0 25 21.5 41t47.5 24q12 4 24 5.5t21 1.5q42 0 71.5 -15.5t29.5 -64.5v-134v-8v-4.5v-5.5q1 -7 3.5 -13.5t9.5 -6.5t11.5 5t8.5 10
l2 4l2 4v0zM201 541q-9 -2 -19 -5t-20 -7q-24 -10 -44 -26t-21 -39q0 -14 8 -25.5t24 -11.5q22 0 39.5 11.5t32.5 25.5v77v0z" />
    <glyph glyph-name="guillemotleft" unicode="&#xab;" horiz-adv-x="327" 
d="M105 205q1 -14 8.5 -33.5t17.5 -40.5l2 -4t2 -3q10 -23 19 -43.5t10 -32.5v-1.5v-0.5q-1 -4 -3 -7.5t-6 -3.5q-8 1 -24 18.5t-33 41.5l-10 14t-10 15q-17 27 -30 51t-13 33v1q2 10 13 29.5t25 41.5l4 6l4 6q12 18 23.5 34t17.5 25l4 6t5 7q4 7 10 12.5t12 5.5q4 0 7 -2.5
t3 -7.5q0 -16 -9 -36t-20 -42l-8 -16t-7 -17q-6 -14 -10 -28t-4 -27v-1v0zM237 205q1 -14 8.5 -33.5t16.5 -39.5q1 -2 2 -4.5t3 -4.5q10 -22 19 -42.5t10 -32.5v-1.5v-0.5q-1 -4 -3 -7.5t-6 -3.5q-7 1 -23.5 18.5t-34.5 42.5q-5 7 -9.5 14t-9.5 14q-18 27 -30.5 50.5
t-12.5 33.5v1q2 10 13 29.5t25 41.5l4 6l4 6q12 18 23.5 34t17.5 25l4 6t5 7q4 7 10 12.5t12 5.5q4 0 7 -2.5t3 -7.5q0 -16 -9 -36t-20 -42q-5 -9 -9.5 -19t-8.5 -19q-5 -13 -8 -25.5t-3 -24.5v-1v0z" />
    <glyph glyph-name="logicalnot" unicode="&#xac;" horiz-adv-x="500" 
d="M343 0v213h-310v54h434v-267h-124v0z" />
    <glyph glyph-name="sfthyphen" unicode="&#xad;" horiz-adv-x="500" 
 />
    <glyph glyph-name="registered" unicode="&#xae;" horiz-adv-x="804" 
d="M402 -13q-143 1 -245 102.5t-102 244.5t102 244.5t245 101.5t244.5 -101.5t101.5 -244.5t-101.5 -244.5t-244.5 -101.5v-1zM402 23q128 0 219 91.5t91 219.5t-91 219t-219 91t-219.5 -91t-91.5 -219t91.5 -219.5t219.5 -91.5v0zM512 152l-99 173h-58v-117q0 -19 6 -28.5
t27 -9.5h17v-18h-174v18q25 0 36.5 6t11.5 32v251q0 19 -6 28.5t-27 9.5h-18v19h179q9 0 18 -0.5t18 -1.5q42 -4 77 -25t35 -73q0 -36 -19 -56.5t-50 -34.5l76 -130q8 -13 19 -19t26 -6v-18h-95v0zM355 342h45q38 0 57.5 17t19.5 57q0 38 -21 56.5t-56 18.5h-45v-149v0z" />
    <glyph glyph-name="overstore" unicode="&#xaf;" 
 />
    <glyph glyph-name="glyph113" unicode="&#xb0;" horiz-adv-x="423" 
d="M223 635q38 -5 62.5 -34t24.5 -67q0 -35 -27 -58t-59 -25h-3.5h-2.5q-38 0 -66.5 26.5t-28.5 65.5q0 40 31 66t69 26v0zM157 552v-4v-4q2 -23 17 -43t42 -20h2.5h2.5q22 2 39.5 18.5t17.5 39.5q0 26 -19.5 45t-45.5 19q-20 0 -37 -15t-19 -36v0z" />
    <glyph glyph-name="plusminus" unicode="&#xb1;" horiz-adv-x="500" 
d="M16 95h467v-57h-467v57v0zM16 386h204v196h59v-196h204v-57h-204v-191h-59v191h-204v57v0z" />
    <glyph glyph-name="twosuperior" unicode="&#xb2;" horiz-adv-x="332" 
d="M264 552q0 -12 -2.5 -24.5t-7.5 -24.5q-11 -27 -30 -54t-40 -51q-11 -13 -21.5 -24.5t-20.5 -21.5l-5 -5t-7 -6l-5 -5t-5 -6q-2 -2 -3 -5t-1 -5v-1q1 -4 5.5 -5t10.5 -1h56h7.5h7.5q23 1 44 8.5t34 28.5q2 2 3.5 4t4.5 2q5 0 8.5 -2t3.5 -7q0 -4 -1.5 -8t-3.5 -8
q-1 -3 -2.5 -6.5t-2.5 -6.5t-2 -5.5t-2 -5.5q-9 -22 -22 -40.5t-40 -18.5q-14 0 -28 0.5t-28 1.5q-14 0 -28 0.5t-28 0.5q-5 0 -10.5 -0.5t-11.5 -0.5q-2 0 -5 -0.5t-5 -0.5q-9 0 -17 -0.5t-16 -0.5h-1.5h-0.5q-5 0 -9 2.5t-4 8.5v1q1 7 25.5 34.5t54.5 64.5q15 20 30 41
t26 42q11 20 17.5 40t6.5 39q0 28 -18 44.5t-46 16.5q-23 0 -35 -6.5t-21 -14.5q-1 -2 -2.5 -3t-2.5 -3l-8 -6t-8 -5h-2h-1.5h-0.5q-3 1 -6 4t-3 6q0 4 3 9.5t8 10.5q2 3 4.5 5.5l4.5 4.5l9.5 9.5t7.5 6.5q19 16 42 24t48 8h2.5h3.5q34 -2 63 -22t29 -58v0z" />
    <glyph glyph-name="threesuperior" unicode="&#xb3;" horiz-adv-x="332" 
d="M285 392q0 -66 -47.5 -108.5t-111.5 -42.5q-8 0 -21.5 2.5t-28.5 7.5q-20 7 -37.5 17.5t-19.5 24.5q0 4 3 7t6 4h0.5h1.5q4 0 7 -2t6 -5q1 -1 2 -1.5t2 -1.5q10 -9 22.5 -14.5t25.5 -7.5q5 -1 9.5 -1.5t9.5 -0.5q41 0 69 29t28 69v2.5v2.5q-2 22 -15.5 40.5t-37.5 18.5
q-4 0 -8.5 -0.5t-8.5 -0.5q-5 -1 -9 -1.5t-9 -0.5h-1q-4 0 -7 3.5t-3 7.5q0 5 13 13.5t28 20.5t28 27.5t13 35.5q0 23 -17 38.5t-40 15.5q-17 0 -28.5 -6t-19.5 -12q-6 -5 -11 -9.5t-9 -7.5q-2 -1 -4.5 -1.5t-4.5 -0.5q-4 0 -7 2.5t-3 6.5q1 17 20.5 32t42.5 24
q15 6 28.5 9.5t22.5 3.5q4 0 7.5 -0.5t7.5 -0.5q28 -4 51 -21t26 -47q0 -24 -12.5 -40.5t-28.5 -31.5q-3 -2 -5 -4l-4 -4l-1.5 -1.5l-1.5 -1.5l4 -2q2 -1 4.5 -1h4.5q32 -4 50.5 -29.5t18.5 -55.5v0z" />
    <glyph glyph-name="acute" unicode="&#xb4;" horiz-adv-x="500" 
d="M276 488q-13 -6 -25.5 -11.5t-26.5 -9.5q-5 0 -8 3.5t-3 8.5q0 9 4 17t10 16q1 3 3 5.5t3 4.5q10 16 16 29.5t11 23.5q9 16 20 25t38 10h30h1.5h1.5q8 -1 15 -6t7 -14q0 -4 -2.5 -7.5t-5.5 -6.5l-10 -10l-79 -78v0z" />
    <glyph glyph-name="mu" unicode="&#xb5;" horiz-adv-x="552" 
d="M472 457v-334v-12v-8.5v-8.5q2 -18 8.5 -33t27.5 -17q8 0 16.5 2.5t16.5 5.5v-17l-102 -46q-1 1 -2 0.5l-1 -0.5h-2h-2q-20 0 -30 14.5t-15 32.5l-4 16t-3 14l-4 -4l-4 -4q-27 -27 -58 -49.5t-72 -22.5q-46 0 -72 22t-40 63q0 -3 -0.5 -6t-0.5 -5v-6v-6q0 -27 4.5 -51
t10.5 -49q0 -1 0.5 -2.5t0.5 -2.5q4 -18 7.5 -36t5.5 -37q0 -23 -11.5 -42.5t-37.5 -19.5q-24 0 -36.5 16.5t-12.5 38.5q0 12 1.5 24t3.5 23q1 3 1.5 6t0.5 6q11 63 18 126.5t10 127.5q1 22 1.5 43.5t0.5 42.5v195h99v-287q0 -10 0.5 -21.5t1.5 -22.5q4 -33 20 -60.5
t54 -27.5q35 0 59 21t43 47v351h98v0z" />
    <glyph glyph-name="paragraph" unicode="&#xb6;" horiz-adv-x="588" 
d="M541 666v-27h-17q-43 0 -51 -12.5t-8 -47.5v-14v-568v-21q1 -27 11 -32t33 -5l25 -1v-27h-126v726h-84v-726h-141v27h22q41 1 51.5 12.5t10.5 49.5v348q-6 0 -11.5 -0.5t-11.5 -0.5h-11.5h-11.5q-75 0 -124.5 42.5t-49.5 120.5v2.5v3.5q1 37 20 72t51 54q24 14 50.5 18.5
t53.5 5.5h9h9h49h252v0zM267 639h-30q-66 0 -84.5 -41.5t-18.5 -98.5q0 -45 24 -82.5t73 -37.5h36v260v0z" />
    <glyph glyph-name="middot" unicode="&#xb7;" 
 />
    <glyph glyph-name="cedilla" unicode="&#xb8;" horiz-adv-x="500" 
d="M321 -125q0 -30 -22 -58t-49 -42q-8 -4 -16 -6t-15 -3q-1 0 -2 0.5t-2 0.5l-4 4t-3 4v0.5v1.5q1 4 4.5 7t7.5 6q2 2 5 3.5t5 3.5q8 5 15 13t8 22v0q0 13 -7 21.5t-15 15.5l-8 6t-7 5q-3 4 -5.5 7.5t-2.5 7.5t4 9t11 10q4 3 9 6.5t10 6.5q9 6 18 10t13 4l1 -1
q12 1 22.5 -11t17.5 -26q3 -8 5 -15t2 -12v-1z" />
    <glyph glyph-name="onesuperior" unicode="&#xb9;" horiz-adv-x="332" 
d="M212 567v-247l-1 -10q0 -23 16.5 -30.5t35.5 -8.5h2t2 -1q4 0 8 -2t4 -7q0 -7 -5 -9.5t-10 -3.5q-2 0 -3.5 -0.5t-3.5 -0.5q-12 0 -24 0.5t-24 1.5t-24 1.5t-24 0.5q-8 0 -16.5 -0.5t-16.5 -0.5q-8 -1 -16.5 -1.5t-16.5 -0.5q-4 0 -7.5 2.5t-3.5 6.5v0.5v1.5t0.5 1.5
l0.5 0.5q1 3 4.5 5t9.5 3q3 1 7 2l8 2q11 4 20 13t9 30v2v2q-1 1 -1 2v2v208v12q0 11 -4.5 18.5t-16.5 7.5q-6 0 -10.5 -1t-8.5 -2l-3 -1.5l-3 -1.5h-1.5h-1.5q-1 -1 -2 -1h-2q-4 0 -7.5 3t-3.5 7v2q1 7 8.5 11t15.5 6l8 2t7 1q1 1 1.5 1h1.5q17 3 32.5 8t28.5 16q2 1 3.5 3
t3.5 4l8 6t8 3q5 0 8 -2.5t3 -7.5q0 -7 -0.5 -14.5t-0.5 -14.5q-1 -8 -1.5 -15t-0.5 -15v0z" />
    <glyph glyph-name="ordmasculine" unicode="&#xba;" horiz-adv-x="327" 
d="M307 333v-35h-286v35h286v0zM164 672q59 0 95 -40t36 -98q0 -59 -34.5 -100.5t-96.5 -41.5q-61 0 -96.5 41.5t-35.5 100.5q0 58 36.5 98t95.5 40v0zM164 652q-36 0 -50 -25.5t-17 -55.5q-1 -10 -1.5 -19.5t-0.5 -18.5t0.5 -19.5t1.5 -20.5q4 -30 18 -55.5t49 -25.5
t49 25.5t18 55.5q1 10 1.5 20.5t0.5 19.5t-0.5 18.5t-1.5 19.5q-4 30 -18 55.5t-49 25.5v0z" />
    <glyph glyph-name="guillemotright" unicode="&#xbb;" horiz-adv-x="328" 
d="M93 205v1q0 15 -5 30.5t-13 31.5q-2 6 -5 12l-6 12q-11 21 -20 41.5t-9 37.5q0 4 2 7t6 3h1q7 0 13 -5.5t11 -12.5l4 -6l4 -6q6 -9 17.5 -23.5t23.5 -31.5q3 -5 6 -9.5t6 -8.5q14 -21 24 -39.5t10 -30.5v-1q0 -7 -13 -31.5t-31 -53.5q-5 -8 -10 -15t-10 -15
q-17 -23 -32 -40t-24 -17q-3 0 -5.5 2.5t-3.5 5.5v2v2q1 14 10 34t20 42q1 2 2 4.5t2 4.5q9 20 16.5 39t8.5 34v0zM225 205v1q0 16 -6 33t-14 35q-3 5 -5 9t-4 9q-11 22 -20 42.5t-9 36.5q0 4 2 7t6 3h1q8 0 23 -19t32 -44q4 -5 7 -10t7 -10q14 -23 26.5 -44.5t17.5 -31.5
q2 -3 4 -6.5t2 -7.5v-1q0 -6 -13.5 -31t-31.5 -54q-5 -8 -9.5 -15t-9.5 -14q-17 -24 -32 -41t-24 -17q-3 0 -5.5 2.5t-3.5 5.5v2v2q1 13 10 33.5t20 42.5q1 2 2 4.5t2 4.5q9 20 16.5 39t8.5 34v0z" />
    <glyph glyph-name="onequarter" unicode="&#xbc;" horiz-adv-x="743" 
d="M660 79v-85q0 -11 -3 -14.5t-16 -4.5q-2 0 -4 -0.5t-5 -0.5q-3 -1 -6.5 -1t-6.5 -1q-6 -1 -11.5 -2t-10.5 -3q-4 0 -7 2t-4 6q0 5 0.5 10t1.5 10t1.5 10t0.5 10v64l1 7q-1 5 -5.5 6.5t-9.5 1.5h-4h-121h-4h-2h-3q-5 0 -10 2.5t-6 8.5q0 11 7 24.5t17 27.5q4 6 8 11.5
t8 10.5q9 12 18 23t15 18q5 7 24.5 32t43.5 54q2 2 4.5 5t4.5 6q25 30 46.5 53t29.5 23q5 0 6.5 -3.5t1.5 -7.5v-0.5v-1.5v-24t-1 -24l1 -27v-136v-2.5t-1 -3.5q0 -7 3.5 -9t10.5 -2q11 1 17.5 4t10.5 13q0 1 0.5 1.5t0.5 1.5q1 2 2.5 3t3.5 1q6 0 9.5 -3t3.5 -10
q0 -4 -0.5 -8.5t-1.5 -9.5q0 -2 -0.5 -4.5t-0.5 -4.5q-2 -25 -10.5 -33.5t-18.5 -9.5q-3 -1 -5.5 -1h-5.5q-7 0 -12.5 -2t-5.5 -11v0zM590 168v111v1.5v2.5t-0.5 2.5l-0.5 1.5h-1q-1 0 -1.5 -1l-1.5 -3l-0.5 -0.5t-0.5 -1.5q-6 -8 -19 -23t-28 -32q-3 -3 -5 -5.5t-5 -5.5
q-16 -19 -28.5 -37t-12.5 -27l1 -0.5t3 -0.5h2h1h90q5 0 6.5 3t1.5 7v2v2q-1 1 -1 2v2v0zM560 598l-349 -596q-4 -5 -8.5 -9.5t-12.5 -4.5l-6 -1q-1 1 -3 1h-4q-4 1 -7.5 2.5t-3.5 6.5v2t1 1l0.5 1t0.5 2l364 621q5 8 11 11.5t16 3.5h4q5 0 9 -1.5t4 -7.5q-1 -6 -4.5 -12
t-6.5 -12q-1 -2 -2.5 -4t-2.5 -4v0zM212 567v-247l-1 -11q0 -21 14.5 -29t32.5 -10h2.5h2.5h2h2q4 -1 8 -3.5t4 -6.5q0 -6 -4.5 -8.5t-9.5 -3.5q-2 -1 -4 -1h-4q-12 0 -24 0.5t-24 1.5t-24 1.5t-24 0.5q-8 0 -16.5 -0.5t-16.5 -1.5t-16.5 -1.5t-16.5 -0.5q-4 0 -7.5 3
t-3.5 7v0.5v1.5t0.5 1.5l0.5 0.5q1 3 4.5 4.5t8.5 2.5l8 2l8 2q11 4 20 13t9 31v2v2q-1 0 -1 1v2v209v11q0 11 -4.5 19t-16.5 8q-4 0 -8.5 -1t-7.5 -3q-1 0 -2 -0.5l-1 -0.5q-3 -1 -6.5 -2t-6.5 -1q-4 0 -7.5 3t-3.5 7v2q1 8 8.5 12t15.5 6q5 1 10 1.5t8 1.5q17 4 32.5 9
t28.5 16q2 1 3.5 2.5l3.5 3.5q3 3 7.5 6t8.5 3q5 0 8 -2t3 -7q0 -7 -0.5 -14.5t-0.5 -14.5q-1 -8 -1.5 -15t-0.5 -15v0z" />
    <glyph glyph-name="onehalf" unicode="&#xbd;" horiz-adv-x="743" 
d="M560 597l-349 -595q-5 -7 -11 -11t-16 -4h-3t-4 1q-4 0 -7.5 2t-3.5 7v2t1 1l0.5 1t0.5 2l364 621q5 8 11 11.5t16 3.5h2.5h2.5q5 0 8.5 -2t3.5 -8q-1 -5 -3.5 -10.5t-5.5 -10.5q-2 -3 -4 -5.5t-3 -5.5v0zM675 302q0 -13 -3 -26t-9 -26q-11 -26 -29 -51t-37 -48
q-12 -13 -23 -25.5t-21 -22.5q-2 -2 -5.5 -5t-6.5 -6l-5.5 -5.5l-4.5 -4.5q-2 -3 -3.5 -6t-1.5 -6q1 -4 5.5 -5.5t9.5 -1.5h1.5h1.5h14t14 1h13h14h10h10q22 2 42 9t31 28q2 2 3.5 4t4.5 2q5 0 8.5 -2t3.5 -7q0 -2 -0.5 -4t-1.5 -4q0 -2 -0.5 -3t-0.5 -2q-1 -1 -1.5 -2
t-0.5 -2q-1 -3 -2 -5.5t-3 -5.5q-1 -4 -2.5 -7.5t-3.5 -7.5q-9 -21 -22 -38t-38 -17h-22t-21 1q-11 0 -22 0.5t-22 0.5q-12 0 -24 -0.5t-23 -1.5q-12 0 -24 -0.5t-24 -0.5q-4 1 -7 4t-3 7v1q1 7 25.5 34.5t54.5 64.5q16 19 30.5 40.5t26.5 42.5q10 20 16.5 40t6.5 38
q0 29 -18 45.5t-46 16.5q-21 0 -34 -6.5t-21 -14.5q-4 -3 -7.5 -6.5t-6.5 -5.5q-2 -2 -4 -3.5t-4 -2.5h-2h-2q-4 1 -7 3.5t-3 6.5t3 9t7 10q2 3 5 6l5 5q6 6 10.5 10t7.5 6q19 16 42 24.5t48 8.5h5.5h4.5q33 -3 60.5 -23.5t27.5 -57.5v0zM212 566v-247l-1 -10
q0 -21 14.5 -29t32.5 -10h2.5h2.5h2h2q4 -1 8 -3.5t4 -6.5v-1.5t-1 -2.5q-2 -5 -7 -7t-11 -2q-3 -1 -6.5 -1h-6.5q-11 0 -21.5 0.5t-21.5 1.5t-21.5 1.5t-21.5 0.5q-8 0 -16.5 -0.5t-16.5 -0.5q-8 -1 -16.5 -1.5t-16.5 -0.5q-4 0 -7.5 3t-3.5 7v0.5v1.5t0.5 1.5l0.5 0.5
q1 3 5 5t10 3q3 1 6.5 2t7.5 2q11 3 20 12t9 30v2v2q-1 1 -1 2v2v209v11q0 11 -4.5 19t-16.5 8q-4 0 -8.5 -1t-7.5 -3q-1 0 -2 -0.5l-1 -0.5q-3 -1 -6.5 -2t-6.5 -1q-4 0 -7.5 3t-3.5 7v2q1 8 8.5 12t15.5 6q5 1 10 1.5t8 1.5q17 4 32.5 9t28.5 16q2 1 3.5 2.5l3.5 3.5
q3 3 7.5 6t8.5 3q5 0 8 -2t3 -7q0 -7 -0.5 -14.5t-0.5 -15.5q-1 -7 -1.5 -14.5t-0.5 -15.5v0z" />
    <glyph glyph-name="threequarters" unicode="&#xbe;" horiz-adv-x="743" 
d="M660 79v-78q0 -20 -11.5 -24.5t-26.5 -5.5h-3.5h-2.5q-5 -1 -10 -1.5t-9 -2.5h-1.5t-1.5 1q-3 0 -5 2t-2 5q0 5 0.5 10t1.5 10t1.5 10t0.5 10v64q0 8 -3 11.5t-12 3.5h-4h-121h-4h-2h-3q-5 0 -10 2.5t-6 8.5q0 11 7 24.5t17 27.5q4 6 8 11.5t8 10.5q9 12 18 23t15 18
q5 7 24.5 32t43.5 54q2 2 4.5 5t4.5 6q25 30 46.5 53t29.5 23q5 0 6.5 -3.5t1.5 -7.5v-0.5v-1.5v-75v-136q0 -7 2 -12t11 -5q11 1 17.5 4t10.5 13q0 1 0.5 1.5l0.5 0.5q1 2 2.5 3.5t4.5 1.5q6 0 9 -3t3 -9q0 -3 -0.5 -6.5t-0.5 -7.5q0 -1 -0.5 -2.5t-0.5 -2.5
q0 -2 -0.5 -4.5t-0.5 -4.5q-2 -25 -10.5 -33.5t-18.5 -9.5q-3 -1 -5.5 -1h-5.5q-7 0 -12.5 -2t-5.5 -11v0zM591 168v28v28q-1 13 -1 27v28v4v3t-1 1l-1 -0.5t-1 -1.5l-1 -1v-1q-1 0 -1.5 -0.5t-0.5 -1.5q-6 -8 -19 -22.5t-28 -32.5q-3 -2 -5.5 -5t-4.5 -6q-16 -19 -28.5 -37
t-12.5 -27l1 -0.5t3 -0.5h2h1h90q5 0 6.5 3t1.5 7v8v0zM560 598l-349 -596q-2 -4 -6.5 -7.5t-8.5 -5.5q-2 0 -3.5 -0.5t-2.5 -0.5l-5 -1q-2 1 -3.5 1h-3.5q-5 1 -8.5 2.5t-3.5 6.5v2t1 1l0.5 1t0.5 2l364 621q5 8 11 11.5t16 3.5h4h1.5h0.5q4 0 7.5 -1.5t3.5 -5.5
q0 -6 -3 -12.5t-7 -12.5q-2 -2 -3.5 -4.5t-2.5 -4.5v0zM286 392q0 -66 -47.5 -108.5t-111.5 -42.5q-8 0 -21.5 2.5t-28.5 7.5q-20 7 -37.5 17.5t-19.5 24.5v1.5v0.5q1 3 3.5 5.5t5.5 3.5h0.5h1.5q4 0 7 -2t6 -5q1 -1 2 -1.5t2 -1.5q10 -9 22.5 -14.5t25.5 -8.5
q5 -1 9.5 -1.5t9.5 -0.5q41 0 69 29.5t28 69.5v2.5v2.5q-2 22 -15.5 40.5t-37.5 18.5q-4 0 -8.5 -0.5t-8.5 -0.5q-5 -1 -9 -1.5t-9 -0.5h-1q-4 0 -7 3.5t-3 7.5q0 5 13 13t28 20t28 28t13 35q0 23 -17 39t-40 16q-16 0 -27.5 -6t-19.5 -12q-6 -5 -10.5 -9.5t-9.5 -6.5
q-3 -1 -5 -2t-5 -1q-4 0 -7 2.5t-3 6.5q1 17 20.5 32t42.5 24q15 6 28.5 9.5t22.5 3.5q4 0 7.5 -0.5t7.5 -0.5q28 -4 51 -21t26 -47q0 -24 -12.5 -40.5t-28.5 -31.5q-3 -2 -5 -4l-4 -4l-1.5 -1.5l-1.5 -1.5q2 -1 3.5 -1.5t3.5 -0.5q1 -1 3 -1.5t3 -0.5q32 -3 50.5 -28.5
t18.5 -55.5v0z" />
    <glyph glyph-name="questiondown" unicode="&#xbf;" horiz-adv-x="339" 
d="M27 -113q0 31 14.5 58t34.5 53q5 6 10.5 13t11.5 15q27 33 49 69.5t22 80.5q0 4 -0.5 8t-1.5 8t-1.5 8t-0.5 8q1 3 3.5 5.5t5.5 3.5h1.5h1.5q9 -1 15 -12t9 -24q3 -9 4 -17.5t1 -13.5q0 -32 -11 -62t-23 -60q-13 -29 -24 -59t-11 -62q0 -28 18.5 -49t46.5 -21
q17 0 29.5 7.5t21.5 15.5q9 9 15.5 16.5t12.5 7.5q4 0 7.5 -3t4.5 -6v-0.5v-1.5q0 -5 -2 -10t-5 -11q-3 -4 -5.5 -8t-5.5 -7q-4 -5 -7 -8.5t-6 -6.5q-22 -21 -49.5 -32t-57.5 -11q-49 0 -88.5 28t-39.5 81v-1zM257 385q0 -7 -5 -13t-10 -11q-2 -1 -3.5 -2.5t-3.5 -2.5
q-5 -4 -11 -11l-12 -14l-10 -10t-10 -9q-6 -4 -11.5 -7t-10.5 -3q-6 0 -17 8.5t-24 19.5l-7.5 7.5t-6.5 7.5q-13 13 -22 25t-9 16q0 9 5.5 15.5t12.5 11.5l2 2l2 2q8 7 14.5 13.5l13.5 13.5l4.5 4.5t4.5 5.5q6 5 12.5 10t13.5 5q4 0 16.5 -8.5t26.5 -21.5q4 -3 8.5 -7
t8.5 -8q11 -12 19.5 -22.5t8.5 -16.5v0z" />
    <glyph glyph-name="Agrave" unicode="&#xc0;" horiz-adv-x="715" 
d="M388 613l222 -511q16 -37 36.5 -56t60.5 -27q6 -1 7.5 -5.5t1.5 -9.5t-4 -7.5t-9 -2.5q-37 6 -73.5 8t-74.5 2h-19t-20 -1q-18 0 -35 -1.5t-30 -3.5q-1 0 -3 -0.5t-3 -0.5q-2 -1 -3.5 -1h-3.5q-5 0 -9.5 3t-4.5 9v0.5v0.5q1 5 11 10t22 12q12 8 22 19.5t10 29.5
q0 13 -3.5 27.5t-9.5 29.5q-4 9 -8 18.5t-8 18.5q-5 9 -9 18t-8 17q-5 10 -12 16.5t-18 8.5q-10 2 -24 2.5t-29 0.5h-3h-4h-125q-30 -2 -43 -16t-22 -36q-2 -4 -4.5 -9.5t-4.5 -10.5l-4 -10l-4 -10q-4 -7 -7 -15t-5 -16q-1 -4 -1.5 -8.5t-0.5 -8.5q0 -37 27 -53.5t59 -20.5
h2t2 -1q5 -1 9.5 -3.5t4.5 -8.5v-1q-1 -6 -5.5 -8.5t-9.5 -3.5h-1.5h-1.5q-11 0 -22 1.5t-22 2.5q-12 1 -23 2.5t-22 1.5q-14 0 -28.5 -1t-28.5 -3q-14 -1 -28.5 -2t-29.5 -1q-5 0 -9 1.5t-4 7.5q0 7 3 11t10 5q28 9 44.5 33t28.5 51q2 6 5 12.5t6 13.5q1 3 2.5 7t3.5 7
l133 308q5 13 11 25.5t12 24.5l45 94q2 3 7 15t11 25q2 2 3 4.5t2 4.5q6 13 12 22.5t9 9.5q2 0 5 -2.5t5 -6.5l4 -6t3 -6q4 -6 6.5 -12t3.5 -8l12 -26v0zM406 307l-63 149q-1 3 -4.5 10.5t-7.5 15.5l-3.5 7t-3.5 6q-4 7 -7.5 11t-6.5 4q-1 0 -2 -0.5l-1 -0.5q-3 -2 -6 -7
l-6 -10l-4 -10t-3 -7l-9 -20l-57 -131q0 -1 -1 -2t-1 -2q-3 -5 -5 -10t-2 -11q0 -8 6.5 -11.5t13.5 -4.5h6h5h4h134h11h3.5t3.5 1q4 0 7.5 2.5t3.5 6.5q0 3 -1 5.5t-2 5.5l-1.5 1.5t-0.5 1.5v0zM320 752l-79 78q-1 2 -3 3.5t-4 3.5q-4 4 -7 8.5t-3 9.5q0 8 6 13t14 6h2h2h30
h3h3h2.5h2.5q11 0 20 -2t14 -13q4 -8 12 -20.5t17 -26.5q1 -3 2.5 -5t2.5 -5q11 -17 19 -33.5t8 -25.5q0 -4 -3.5 -8t-8.5 -4q-11 3 -22 7.5t-21 9.5q-3 1 -5 2l-4 2v0z" />
    <glyph glyph-name="Aacute" unicode="&#xc1;" horiz-adv-x="715" 
d="M388 613l222 -511q16 -37 36.5 -56t60.5 -27q6 -1 7.5 -5.5t1.5 -9.5t-4 -7.5t-9 -2.5q-37 6 -73.5 8t-74.5 2h-19t-20 -1q-18 0 -35 -1.5t-30 -3.5q-1 0 -3 -0.5t-3 -0.5q-2 -1 -3.5 -1h-3.5q-5 0 -9.5 3t-4.5 9v0.5v0.5q1 5 11 10t22 12q12 8 22 19.5t10 29.5
q0 13 -3.5 27.5t-9.5 29.5q-4 9 -8 18.5t-8 18.5q-5 9 -9 18t-8 17q-5 10 -12 16.5t-18 8.5q-10 2 -24 2.5t-29 0.5h-3h-4h-125q-30 -2 -43 -16t-22 -36q-2 -4 -4.5 -9.5t-4.5 -10.5l-4 -10l-4 -10q-4 -7 -7 -15t-5 -16q-1 -4 -1.5 -8.5t-0.5 -8.5q0 -37 27 -53.5t59 -20.5
h2t2 -1q5 -1 9.5 -3.5t4.5 -8.5v-1q-1 -6 -5.5 -8.5t-9.5 -3.5h-1.5h-1.5q-11 0 -22 1.5t-22 2.5q-12 1 -23 2.5t-22 1.5q-14 0 -28.5 -1t-28.5 -3q-14 -1 -28.5 -2t-29.5 -1q-5 0 -9 1.5t-4 7.5q0 7 3 11t10 5q28 9 44.5 33t28.5 51q2 6 5 12.5t6 13.5q1 3 2.5 7t3.5 7
l133 308q5 13 11 25.5t12 24.5l45 94q2 3 7 15t11 25q2 2 3 4.5t2 4.5q6 13 12 22.5t9 9.5q2 0 5 -2.5t5 -6.5l4 -6t3 -6q4 -6 6.5 -12t3.5 -8l12 -26v0zM406 307l-63 149q-1 3 -4.5 10.5t-7.5 15.5l-3.5 7t-3.5 6q-4 7 -7.5 11t-6.5 4q-1 0 -2 -0.5l-1 -0.5q-3 -2 -6 -7
l-6 -10l-4 -10t-3 -7l-9 -20l-57 -131q0 -1 -1 -2t-1 -2q-3 -5 -5 -10t-2 -11q0 -8 6.5 -11.5t13.5 -4.5h6h5h4h134h11h3.5t3.5 1q4 0 7.5 2.5t3.5 6.5q0 3 -1 5.5t-2 5.5l-1.5 1.5t-0.5 1.5v0zM394 754q-13 -6 -25.5 -11.5t-26.5 -9.5q-5 0 -8 3.5t-3 8.5q0 9 4 17t10 16
q1 3 3 5.5t3 4.5q10 16 16 29.5t11 23.5q9 16 20 25t38 10h30h1.5h1.5q8 -1 15 -6t7 -14q0 -4 -2.5 -7.5t-5.5 -6.5l-10 -10l-79 -78v0z" />
    <glyph glyph-name="Acircumflex" unicode="&#xc2;" horiz-adv-x="715" 
d="M388 613l222 -511q16 -37 36.5 -56t60.5 -27q6 -1 7.5 -5.5t1.5 -9.5t-4 -7.5t-9 -2.5q-37 6 -73.5 8t-74.5 2h-19t-20 -1q-18 0 -35 -1.5t-30 -3.5q-1 0 -3 -0.5t-3 -0.5q-2 -1 -3.5 -1h-3.5q-5 0 -9.5 3t-4.5 9v0.5v0.5q1 5 11 10t22 12q12 8 22 19.5t10 29.5
q0 13 -3.5 27.5t-9.5 29.5q-4 9 -8 18.5t-8 18.5q-5 9 -9 18t-8 17q-5 10 -12 16.5t-18 8.5q-10 2 -24 2.5t-29 0.5h-3h-4h-125q-30 -2 -43 -16t-22 -36q-2 -4 -4.5 -9.5t-4.5 -10.5l-4 -10l-4 -10q-4 -7 -7 -15t-5 -16q-1 -4 -1.5 -8.5t-0.5 -8.5q0 -37 27 -53.5t59 -20.5
h2t2 -1q5 -1 9.5 -3.5t4.5 -8.5v-1q-1 -6 -5.5 -8.5t-9.5 -3.5h-1.5h-1.5q-11 0 -22 1.5t-22 2.5q-12 1 -23 2.5t-22 1.5q-14 0 -28.5 -1t-28.5 -3q-14 -1 -28.5 -2t-29.5 -1q-5 0 -9 1.5t-4 7.5q0 7 3 11t10 5q28 9 44.5 33t28.5 51q2 6 5 12.5t6 13.5q1 3 2.5 7t3.5 7
l133 308q5 13 11 25.5t12 24.5l45 94q2 3 7 15t11 25q2 2 3 4.5t2 4.5q6 13 12 22.5t9 9.5q2 0 5 -2.5t5 -6.5l4 -6t3 -6q4 -6 6.5 -12t3.5 -8l12 -26v0zM406 307l-63 149q-1 3 -4.5 10.5t-7.5 15.5l-3.5 7t-3.5 6q-4 7 -7.5 11t-6.5 4q-1 0 -2 -0.5l-1 -0.5q-3 -2 -6 -7
l-6 -10l-4 -10t-3 -7l-9 -20l-57 -131q0 -1 -1 -2t-1 -2q-3 -5 -5 -10t-2 -11q0 -8 6.5 -11.5t13.5 -4.5h6h5h4h134h11h3.5t3.5 1q4 0 7.5 2.5t3.5 6.5q0 3 -1 5.5t-2 5.5l-1.5 1.5t-0.5 1.5v0zM501 765v-1q0 -4 -3 -7t-7 -5q-1 -1 -2.5 -1.5t-2.5 -0.5q-5 -2 -10.5 -4
t-11.5 -4q-4 -1 -7.5 -2.5t-7.5 -2.5q-7 -3 -14 -4.5t-14 -1.5q-4 0 -14.5 8.5t-22.5 19.5q-2 1 -3.5 2.5l-2.5 2.5q-11 10 -20 19l-12 12l-2 2l-2 2q-2 2 -4 3.5t-5 1.5q-7 0 -16.5 -11t-18.5 -25q-1 0 -1.5 -0.5t-0.5 -1.5q-9 -12 -17.5 -22t-15.5 -11q-3 0 -9.5 1.5
t-13.5 4.5q-6 2 -11.5 5t-8.5 6q-2 2 -3 3.5t-1 2.5t0.5 2.5t0.5 2.5l2 4l2 4q1 0 1.5 1l0.5 1q9 10 18.5 20.5t18.5 20.5q9 11 18.5 21.5t18.5 20.5q8 8 13 13.5t10 8.5q6 4 12.5 5.5t16.5 1.5q27 0 49 -17t42 -37q7 -8 14 -15.5t14 -14.5q2 -1 6.5 -5.5l9.5 -9.5l1.5 -1.5
l0.5 -0.5q6 -6 10 -10.5t5 -6.5v0z" />
    <glyph glyph-name="Atilde" unicode="&#xc3;" horiz-adv-x="715" 
d="M388 613l222 -511q16 -37 36.5 -56t60.5 -27q6 -1 7.5 -5.5t1.5 -9.5t-4 -7.5t-9 -2.5q-37 6 -73.5 8t-74.5 2h-19t-20 -1q-18 0 -35 -1.5t-30 -3.5q-1 0 -3 -0.5t-3 -0.5q-2 -1 -3.5 -1h-3.5q-5 0 -9.5 3t-4.5 9v0.5v0.5q1 5 11 10t22 12q12 8 22 19.5t10 29.5
q0 13 -3.5 27.5t-9.5 29.5q-4 9 -8 18.5t-8 18.5q-5 9 -9 18t-8 17q-5 10 -12 16.5t-18 8.5q-10 2 -24 2.5t-29 0.5h-3h-4h-125q-30 -2 -43 -16t-22 -36q-2 -4 -4.5 -9.5t-4.5 -10.5l-4 -10l-4 -10q-4 -7 -7 -15t-5 -16q-1 -4 -1.5 -8.5t-0.5 -8.5q0 -37 27 -53.5t59 -20.5
h2t2 -1q5 -1 9.5 -3.5t4.5 -8.5v-1q-1 -6 -5.5 -8.5t-9.5 -3.5h-1.5h-1.5q-11 0 -22 1.5t-22 2.5q-12 1 -23 2.5t-22 1.5q-14 0 -28.5 -1t-28.5 -3q-14 -1 -28.5 -2t-29.5 -1q-5 0 -9 1.5t-4 7.5q0 7 3 11t10 5q28 9 44.5 33t28.5 51q2 6 5 12.5t6 13.5q1 3 2.5 7t3.5 7
l133 308q5 13 11 25.5t12 24.5l45 94q2 3 7 15t11 25q2 2 3 4.5t2 4.5q6 13 12 22.5t9 9.5q2 0 5 -2.5t5 -6.5l4 -6t3 -6q4 -6 6.5 -12t3.5 -8l12 -26v0zM406 307l-63 149q-1 3 -4.5 10.5t-7.5 15.5l-3.5 7t-3.5 6q-4 7 -7.5 11t-6.5 4q-1 0 -2 -0.5l-1 -0.5q-3 -2 -6 -7
l-6 -10l-4 -10t-3 -7l-9 -20l-57 -131q0 -1 -1 -2t-1 -2q-3 -5 -5 -10t-2 -11q0 -8 6.5 -11.5t13.5 -4.5h6h5h4h134h11h3.5t3.5 1q4 0 7.5 2.5t3.5 6.5q0 3 -1 5.5t-2 5.5l-1.5 1.5t-0.5 1.5v0zM303 857q18 0 35 -6t33 -13q16 -8 33 -14t35 -6h2.5h2.5q13 1 24 7.5t18 17.5
l1.5 1.5l0.5 0.5q1 2 2.5 3t2.5 1h1q1 0 3 -0.5t4 -1.5q1 -1 2.5 -1.5t2.5 -1.5l2 -2t1 -2q0 -6 -3 -13.5t-8 -14.5q-8 -12 -21 -23.5t-27 -19.5q-10 -6 -19.5 -9.5t-17.5 -3.5q-18 0 -35 6t-33 13q-1 0 -2 0.5t-2 0.5q-15 7 -31 12.5t-33 5.5q-15 0 -24 -6t-14 -14
q-3 -4 -5 -8t-4 -7q-2 -2 -4 -3.5t-4 -1.5h-1q-1 1 -2.5 1.5t-2.5 1.5q-3 1 -5 2.5t-3 3.5v1q0 1 0.5 2.5t0.5 2.5l0.5 0.5t0.5 1.5t0.5 1.5t0.5 1.5q6 9 10.5 17.5t8.5 16.5q11 20 25.5 33.5t47.5 15.5v0z" />
    <glyph glyph-name="Adieresis" unicode="&#xc4;" horiz-adv-x="715" 
d="M388 613l222 -511q16 -37 36.5 -56t60.5 -27q6 -1 7.5 -5.5t1.5 -9.5t-4 -7.5t-9 -2.5q-37 6 -73.5 8t-74.5 2h-19t-20 -1q-18 0 -35 -1.5t-30 -3.5q-1 0 -3 -0.5t-3 -0.5q-2 -1 -3.5 -1h-3.5q-5 0 -9.5 3t-4.5 9v0.5v0.5q1 5 11 10t22 12q12 8 22 19.5t10 29.5
q0 13 -3.5 27.5t-9.5 29.5q-4 9 -8 18.5t-8 18.5q-5 9 -9 18t-8 17q-5 10 -12 16.5t-18 8.5q-10 2 -24 2.5t-29 0.5h-3h-4h-125q-30 -2 -43 -16t-22 -36q-2 -4 -4.5 -9.5t-4.5 -10.5l-4 -10l-4 -10q-4 -7 -7 -15t-5 -16q-1 -4 -1.5 -8.5t-0.5 -8.5q0 -37 27 -53.5t59 -20.5
h2t2 -1q5 -1 9.5 -3.5t4.5 -8.5v-1q-1 -6 -5.5 -8.5t-9.5 -3.5h-1.5h-1.5q-11 0 -22 1.5t-22 2.5q-12 1 -23 2.5t-22 1.5q-14 0 -28.5 -1t-28.5 -3q-14 -1 -28.5 -2t-29.5 -1q-5 0 -9 1.5t-4 7.5q0 7 3 11t10 5q28 9 44.5 33t28.5 51q2 6 5 12.5t6 13.5q1 3 2.5 7t3.5 7
l133 308q5 13 11 25.5t12 24.5l45 94q2 3 7 15t11 25q2 2 3 4.5t2 4.5q6 13 12 22.5t9 9.5q2 0 5 -2.5t5 -6.5l4 -6t3 -6q4 -6 6.5 -12t3.5 -8l12 -26v0zM406 307l-63 149q-1 3 -4.5 10.5t-7.5 15.5l-3.5 7t-3.5 6q-4 7 -7.5 11t-6.5 4q-1 0 -2 -0.5l-1 -0.5q-3 -2 -6 -7
l-6 -10l-4 -10t-3 -7l-9 -20l-57 -131q0 -1 -1 -2t-1 -2q-3 -5 -5 -10t-2 -11q0 -8 6.5 -11.5t13.5 -4.5h6h5h4h134h11h3.5t3.5 1q4 0 7.5 2.5t3.5 6.5q0 3 -1 5.5t-2 5.5l-1.5 1.5t-0.5 1.5v0zM211 807v1q0 10 7 19t16 17l9.5 9.5t7.5 8.5q1 2 2.5 3.5l3.5 3.5q4 4 8.5 7.5
t8.5 3.5q6 0 10.5 -4t7.5 -8q2 -3 3.5 -5t2.5 -4t6.5 -8t12.5 -14q1 -1 2.5 -3t2.5 -3q6 -8 10 -14.5t4 -10.5v-1q0 -6 -3.5 -12.5t-8.5 -11.5l-2.5 -2.5l-2.5 -2.5q-3 -4 -7 -9t-8 -11q-6 -8 -13 -15.5t-15 -8.5h-1q-5 0 -9.5 3.5t-8.5 8.5q-1 2 -2.5 3.5t-2.5 3.5
q-3 4 -8 9l-10 10l-12 14t-9 14q-1 3 -1.5 5t-0.5 4v0zM381 807v1q0 9 7.5 18t15.5 18q5 4 9.5 8.5t7.5 9.5q1 2 2.5 3.5l3.5 3.5q4 4 8.5 7.5t8.5 3.5q6 0 10.5 -4t7.5 -8q2 -3 3.5 -5t2.5 -4l6.5 -6.5t12.5 -13.5q2 -3 4 -5.5t4 -5.5q5 -6 8 -12t3 -10v-1q0 -6 -3.5 -12.5
t-8.5 -11.5l-2.5 -2.5l-2.5 -2.5q-3 -4 -7 -9t-8 -11q-6 -8 -13 -15.5t-15 -8.5h-1q-5 0 -9.5 3.5t-8.5 8.5q-1 2 -2.5 3.5t-2.5 3.5q-3 4 -8 9l-10 10l-12 14t-9 14q-1 3 -1.5 5t-0.5 4v0z" />
    <glyph glyph-name="Aring" unicode="&#xc5;" horiz-adv-x="715" 
d="M388 613l222 -511q16 -37 36.5 -56t60.5 -27q6 -1 7.5 -5.5t1.5 -9.5t-4 -7.5t-9 -2.5q-37 6 -73.5 8t-74.5 2h-19t-20 -1q-18 0 -35 -1.5t-30 -3.5q-1 0 -3 -0.5t-3 -0.5q-2 -1 -3.5 -1h-3.5q-5 0 -9.5 3t-4.5 9v0.5v0.5q1 5 11 10t22 12q12 8 22 19.5t10 29.5
q0 13 -3.5 27.5t-9.5 29.5q-4 9 -8 18.5t-8 18.5q-5 9 -9 18t-8 17q-5 10 -12 16.5t-18 8.5q-10 2 -24 2.5t-29 0.5h-3h-4h-125q-30 -2 -43 -16t-22 -36q-2 -4 -4.5 -9.5t-4.5 -10.5l-4 -10l-4 -10q-4 -7 -7 -15t-5 -16q-1 -4 -1.5 -8.5t-0.5 -8.5q0 -37 27 -53.5t59 -20.5
h2t2 -1q5 -1 9.5 -3.5t4.5 -8.5v-1q-1 -6 -5.5 -8.5t-9.5 -3.5h-1.5h-1.5q-11 0 -22 1.5t-22 2.5q-12 1 -23 2.5t-22 1.5q-14 0 -28.5 -1t-28.5 -3q-14 -1 -28.5 -2t-29.5 -1q-5 0 -9 1.5t-4 7.5q0 7 3 11t10 5q28 9 44.5 33t28.5 51q2 6 5 12.5t6 13.5q1 3 2.5 7t3.5 7
l133 308q5 13 11 25.5t12 24.5l45 94q2 3 7 15t11 25q2 2 3 4.5t2 4.5q6 13 12 22.5t9 9.5q2 0 5 -2.5t5 -6.5l4 -6t3 -6q4 -6 6.5 -12t3.5 -8l12 -26v0zM406 307l-63 149q-1 3 -4.5 10.5t-7.5 15.5l-3.5 7t-3.5 6q-4 7 -7.5 11t-6.5 4q-1 0 -2 -0.5l-1 -0.5q-3 -2 -6 -7
l-6 -10l-4 -10t-3 -7l-9 -20l-57 -131q0 -1 -1 -2t-1 -2q-3 -5 -5 -10t-2 -11q0 -8 6.5 -11.5t13.5 -4.5h6h5h4h134h11h3.5t3.5 1q4 0 7.5 2.5t3.5 6.5q0 3 -1 5.5t-2 5.5l-1.5 1.5t-0.5 1.5v0zM261 801q0 37 26.5 63.5t63.5 26.5t63.5 -26.5t26.5 -63.5t-26.5 -63.5
t-63.5 -26.5t-63.5 26.5t-26.5 63.5v0zM294 801q0 -23 17 -40t40 -17t40 17t17 40t-17 40t-40 17t-40 -17t-17 -40v0z" />
    <glyph glyph-name="AE" unicode="&#xc6;" horiz-adv-x="931" 
d="M586 577v-124v-14.5t1 -15.5q0 -8 1.5 -15.5t3.5 -14.5t8 -10t13 -3h1h2h59q46 0 70.5 16.5t40.5 57.5q2 6 5.5 10.5t10.5 4.5q6 0 9 -3.5t3 -9.5t-0.5 -12t-0.5 -11q-1 -6 -1.5 -12t-0.5 -12q0 -15 0.5 -35t1.5 -41t2.5 -41.5t4.5 -35.5q0 -6 -1 -11.5t-8 -7.5
q-7 0 -10.5 3t-5.5 10q-13 56 -32.5 70.5t-67.5 14.5h-65q-13 0 -23.5 -4t-15.5 -20q-2 -10 -3.5 -22t-1.5 -24v-6v-6v-92q0 -9 0.5 -20t1.5 -22q3 -29 15.5 -53.5t46.5 -24.5q22 0 48 2.5t54 9.5q51 11 96 36.5t61 70.5q0 1 0.5 1.5l0.5 0.5q1 3 3 6t6 3q5 0 7.5 -4t3.5 -8
q1 -3 1 -5v-4q-10 -72 -49 -114.5t-116 -42.5q-28 0 -55.5 1.5t-54.5 3.5q-28 2 -55.5 3.5t-55.5 1.5q-16 0 -31.5 -1t-31.5 -2t-31.5 -2t-31.5 -1q-6 0 -10 2.5t-4 9.5q0 3 2 5t5 4q5 3 12.5 6t15.5 9q12 10 23 31.5t11 64.5v83l1 7q0 8 -5 11t-13 4l-44 2t-43 1
q-22 1 -44 1h-44h-7h-7q-12 -1 -23 -2.5t-19 -4.5q-8 -4 -18 -14.5t-20 -24.5q-7 -10 -13.5 -20.5t-12.5 -20.5q-13 -22 -21 -41.5t-9 -30.5q0 -27 19.5 -40t42.5 -17q4 -1 7.5 -1.5t6.5 -0.5q1 0 2 -0.5t2 -0.5q4 -1 8 -3.5t4 -7.5q0 -6 -4 -8t-8 -3h-2h-2q-16 0 -33 1
t-33 2q-17 0 -33.5 1t-33.5 1q-11 0 -22 -0.5t-22 -1.5q-12 0 -22.5 -0.5t-21.5 -0.5q-5 1 -9 4t-4 8q0 8 4.5 10.5t10.5 3.5q36 8 58 32.5t42 53.5q1 1 1.5 2.5t1.5 2.5l354 534q1 2 2 3.5t2 3.5q3 5 7 9t10 4h16h16q7 -1 15 -1h16l137 -1l112 2q8 0 16 0.5t16 1.5
q13 1 25 1.5t24 0.5q10 0 13 -4t3 -12q0 -19 1.5 -38.5t3.5 -38.5q1 -5 1.5 -9.5t0.5 -9.5v-8.5t-1 -11.5q-1 -9 -4.5 -16.5t-11.5 -7.5h-2q-4 0 -6.5 3.5t-2.5 7.5v19q0 38 -27.5 55.5t-60.5 22.5q-12 2 -24 3t-22 1h-71q-32 0 -48 -8t-16 -45v0zM458 601l-174 -266
q-2 -2 -4 -5t-5 -7q-2 -3 -4 -5.5t-3 -5.5q-2 -4 -3 -7t-1 -6q0 -9 6.5 -12.5t14.5 -4.5q4 -1 8 -1h7q9 1 17.5 1.5t17.5 0.5h17.5h17.5h30t29 -1q18 0 31 4.5t14 26.5v11v261v14v2v2q-1 3 -2.5 5t-4.5 2q-4 -1 -5.5 -3.5t-3.5 -5.5v0z" />
    <glyph glyph-name="Ccedilla" unicode="&#xc7;" horiz-adv-x="678" 
d="M416 -125v-3t-1 -5q-3 -27 -23.5 -52t-44.5 -38q-9 -5 -17 -7.5t-16 -3.5h-1.5h-0.5q-3 1 -6 4t-3 6v0q0 4 7 9.5t15 12.5t15 15.5t7 18.5v0q0 13 -7 22t-15 16q-5 3 -9 6.5t-7 6.5t-5 6t-2 6q0 4 4 8.5t10 9.5q4 4 9 7l10 6q11 7 20 11t12 4l1 -1q12 1 23 -11t17 -26
q4 -8 6 -15t2 -12v-1zM40 318q0 144 95 253t244 109q46 0 81 -10t60 -21q26 -12 42.5 -22t26.5 -10q7 0 10.5 4t6.5 9l0.5 0.5l0.5 0.5q2 3 4.5 6.5t6.5 5.5h1.5t0.5 1h1.5h0.5q7 0 10 -6t4 -12q1 -4 1 -7.5v-6.5v-36q0 -23 1.5 -41t4.5 -33q1 -13 2.5 -24t2.5 -22v-4.5
v-5.5v-2v-3q0 -5 -2.5 -10t-9.5 -6q-6 0 -8 3.5t-4 8.5q-2 12 -9.5 27t-17.5 31q-5 9 -11 17.5t-13 16.5q-9 13 -18 23t-16 17q-36 35 -80 56.5t-95 21.5q-91 0 -140.5 -67.5t-61.5 -147.5q-3 -15 -4 -29.5t-1 -28.5v-10.5t1 -10.5q2 -59 21 -115t57 -101q32 -37 76 -62
t93 -25q68 0 124 34.5t99 83.5l1.5 1.5l1.5 1.5q2 2 4.5 3.5t5.5 1.5t6 -3t4 -6v-0.5v-1.5q0 -6 -4 -14.5t-10 -17.5q-3 -5 -6 -9l-6 -8q-7 -8 -13 -14.5t-10 -10.5q-47 -49 -109 -76t-130 -27q-145 0 -234 93t-89 237v0z" />
    <glyph glyph-name="Egrave" unicode="&#xc8;" horiz-adv-x="594" 
d="M253 554v-106q0 -10 0.5 -20t1.5 -21q1 -13 8.5 -20.5t20.5 -7.5h22q17 2 30.5 2.5t24.5 0.5q18 0 31 2.5t25 12.5q8 8 17.5 22.5t20.5 37.5q0 1 0.5 1.5l1.5 1.5q1 2 3 3.5t6 2.5q7 0 10.5 -2.5t3.5 -10.5q0 -5 -0.5 -10.5t-0.5 -10.5q0 -6 -0.5 -11.5t-0.5 -10.5
q0 -20 1 -40.5t2 -40.5q1 -5 1 -9v-8q1 -16 2 -32.5t2 -32.5q0 -5 -2 -9t-7 -4h-1q-6 0 -9 5.5t-5 13.5q-2 7 -4 15t-6 16q-8 19 -27.5 34.5t-62.5 15.5h-63q-25 0 -33.5 -9t-10.5 -35q-1 -14 -1.5 -28t-0.5 -28v-29v-28v-21t1 -22q1 -15 3.5 -29.5t6.5 -26.5q8 -22 20 -30
t34 -8q88 0 138.5 20t76.5 44q24 22 33.5 41t15.5 22h0.5t1.5 1h0.5h0.5q5 0 8 -4.5t3 -9.5q0 -83 -48.5 -123t-128.5 -40q-25 0 -49.5 2t-49.5 4t-50 3.5t-50 1.5q-34 0 -67.5 -1t-66.5 -4q-7 0 -11 1.5t-5 8.5q0 5 3.5 8.5t7.5 4.5q43 16 51 51t8 75v10v387
q0 50 -16.5 69.5t-35.5 24.5q-7 3 -14 4t-13 2q-10 1 -17 3.5t-8 9.5q0 5 2 9t8 5q27 0 54 -1t54 -1q26 -1 53 -2t54 -1h24.5h25.5t25.5 0.5t24.5 0.5l111 2q7 0 14 0.5t14 0.5t14 0.5t14 0.5t10.5 -4t4.5 -12q0 -13 1 -26.5t2 -26.5t2 -26.5t1 -26.5q0 -3 -0.5 -6t-0.5 -7
q-2 -7 -5 -12.5t-10 -7.5q-7 0 -9.5 5t-2.5 10v3.5v2.5q-2 55 -39.5 72t-81.5 19q-6 1 -12 1h-12h-8h-8q-4 -1 -8 -1h-8h-8.5t-8.5 1h-9h-9q-28 0 -41 -9.5t-15 -43.5v-21v0zM261 752l-79 78q-1 2 -3 3.5t-4 3.5q-4 4 -7 8.5t-3 9.5q0 8 6 13t14 6h2h2h30h3h3h2.5h2.5
q11 0 20 -2t14 -13q4 -8 12 -20.5t17 -26.5q1 -3 2.5 -5t2.5 -5q11 -17 19 -33.5t8 -25.5q0 -4 -3.5 -8t-8.5 -4q-11 3 -22 7.5t-21 9.5q-3 1 -5 2l-4 2v0z" />
    <glyph glyph-name="Eacute" unicode="&#xc9;" horiz-adv-x="594" 
d="M253 554v-106q0 -10 0.5 -20t1.5 -21q1 -13 8.5 -20.5t20.5 -7.5h22q17 2 30.5 2.5t24.5 0.5q18 0 31 2.5t25 12.5q8 8 17.5 22.5t20.5 37.5q0 1 0.5 1.5l1.5 1.5q1 2 3 3.5t6 2.5q7 0 10.5 -2.5t3.5 -10.5q0 -5 -0.5 -10.5t-0.5 -10.5q0 -6 -0.5 -11.5t-0.5 -10.5
q0 -20 1 -40.5t2 -40.5q1 -5 1 -9v-8q1 -16 2 -32.5t2 -32.5q0 -5 -2 -9t-7 -4h-1q-6 0 -9 5.5t-5 13.5q-2 7 -4 15t-6 16q-8 19 -27.5 34.5t-62.5 15.5h-63q-25 0 -33.5 -9t-10.5 -35q-1 -14 -1.5 -28t-0.5 -28v-29v-28v-21t1 -22q1 -15 3.5 -29.5t6.5 -26.5q8 -22 20 -30
t34 -8q88 0 138.5 20t76.5 44q24 22 33.5 41t15.5 22h0.5t1.5 1h0.5h0.5q5 0 8 -4.5t3 -9.5q0 -83 -48.5 -123t-128.5 -40q-25 0 -49.5 2t-49.5 4t-50 3.5t-50 1.5q-34 0 -67.5 -1t-66.5 -4q-7 0 -11 1.5t-5 8.5q0 5 3.5 8.5t7.5 4.5q43 16 51 51t8 75v10v387
q0 50 -16.5 69.5t-35.5 24.5q-7 3 -14 4t-13 2q-10 1 -17 3.5t-8 9.5q0 5 2 9t8 5q27 0 54 -1t54 -1q26 -1 53 -2t54 -1h24.5h25.5t25.5 0.5t24.5 0.5l111 2q7 0 14 0.5t14 0.5t14 0.5t14 0.5t10.5 -4t4.5 -12q0 -13 1 -26.5t2 -26.5t2 -26.5t1 -26.5q0 -3 -0.5 -6t-0.5 -7
q-2 -7 -5 -12.5t-10 -7.5q-7 0 -9.5 5t-2.5 10v3.5v2.5q-2 55 -39.5 72t-81.5 19q-6 1 -12 1h-12h-8h-8q-4 -1 -8 -1h-8h-8.5t-8.5 1h-9h-9q-28 0 -41 -9.5t-15 -43.5v-21v0zM335 754q-13 -6 -25.5 -11.5t-26.5 -9.5q-5 0 -8 3.5t-3 8.5q0 9 4 17t10 16q1 3 3 5.5t3 4.5
q10 16 16 29.5t11 23.5q9 16 20 25t38 10h30h1.5h1.5q8 -1 15 -6t7 -14q0 -4 -2.5 -7.5t-5.5 -6.5l-10 -10l-79 -78v0z" />
    <glyph glyph-name="Ecircumflex" unicode="&#xca;" horiz-adv-x="594" 
d="M253 554v-106q0 -10 0.5 -20t1.5 -21q1 -13 8.5 -20.5t20.5 -7.5h22q17 2 30.5 2.5t24.5 0.5q18 0 31 2.5t25 12.5q8 8 17.5 22.5t20.5 37.5q0 1 0.5 1.5l1.5 1.5q1 2 3 3.5t6 2.5q7 0 10.5 -2.5t3.5 -10.5q0 -5 -0.5 -10.5t-0.5 -10.5q0 -6 -0.5 -11.5t-0.5 -10.5
q0 -20 1 -40.5t2 -40.5q1 -5 1 -9v-8q1 -16 2 -32.5t2 -32.5q0 -5 -2 -9t-7 -4h-1q-6 0 -9 5.5t-5 13.5q-2 7 -4 15t-6 16q-8 19 -27.5 34.5t-62.5 15.5h-63q-25 0 -33.5 -9t-10.5 -35q-1 -14 -1.5 -28t-0.5 -28v-29v-28v-21t1 -22q1 -15 3.5 -29.5t6.5 -26.5q8 -22 20 -30
t34 -8q88 0 138.5 20t76.5 44q24 22 33.5 41t15.5 22h0.5t1.5 1h0.5h0.5q5 0 8 -4.5t3 -9.5q0 -83 -48.5 -123t-128.5 -40q-25 0 -49.5 2t-49.5 4t-50 3.5t-50 1.5q-34 0 -67.5 -1t-66.5 -4q-7 0 -11 1.5t-5 8.5q0 5 3.5 8.5t7.5 4.5q43 16 51 51t8 75v10v387
q0 50 -16.5 69.5t-35.5 24.5q-7 3 -14 4t-13 2q-10 1 -17 3.5t-8 9.5q0 5 2 9t8 5q27 0 54 -1t54 -1q26 -1 53 -2t54 -1h24.5h25.5t25.5 0.5t24.5 0.5l111 2q7 0 14 0.5t14 0.5t14 0.5t14 0.5t10.5 -4t4.5 -12q0 -13 1 -26.5t2 -26.5t2 -26.5t1 -26.5q0 -3 -0.5 -6t-0.5 -7
q-2 -7 -5 -12.5t-10 -7.5q-7 0 -9.5 5t-2.5 10v3.5v2.5q-2 55 -39.5 72t-81.5 19q-6 1 -12 1h-12h-8h-8q-4 -1 -8 -1h-8h-8.5t-8.5 1h-9h-9q-28 0 -41 -9.5t-15 -43.5v-21v0zM459 765v-1q0 -4 -3 -7t-7 -5q-1 -1 -2.5 -1.5t-2.5 -0.5q-5 -2 -10.5 -4t-11.5 -4
q-4 -1 -7.5 -2.5t-7.5 -2.5q-7 -3 -14 -4.5t-14 -1.5q-4 0 -14.5 8.5t-22.5 19.5q-2 1 -3.5 2.5l-2.5 2.5q-11 10 -20 19l-12 12l-2 2l-2 2q-2 2 -4 3.5t-5 1.5q-7 0 -16.5 -11t-18.5 -25q-1 0 -1.5 -0.5t-0.5 -1.5q-9 -12 -17.5 -22t-15.5 -11q-3 0 -9.5 1.5t-13.5 4.5
q-6 2 -11.5 5t-8.5 6q-2 2 -3 3.5t-1 2.5t0.5 2.5t0.5 2.5l2 4l2 4q1 0 1.5 1l0.5 1q9 10 18.5 20.5t18.5 20.5q9 11 18.5 21.5t18.5 20.5q8 8 13 13.5t10 8.5q6 4 12.5 5.5t16.5 1.5q27 0 49 -17t42 -37q7 -8 14 -15.5t14 -14.5q2 -1 6.5 -5.5l9.5 -9.5l1.5 -1.5l0.5 -0.5
q6 -6 10 -10.5t5 -6.5v0z" />
    <glyph glyph-name="Edieresis" unicode="&#xcb;" horiz-adv-x="594" 
d="M253 554v-106q0 -10 0.5 -20t1.5 -21q1 -13 8.5 -20.5t20.5 -7.5h22q17 2 30.5 2.5t24.5 0.5q18 0 31 2.5t25 12.5q8 8 17.5 22.5t20.5 37.5q0 1 0.5 1.5l1.5 1.5q1 2 3 3.5t6 2.5q7 0 10.5 -2.5t3.5 -10.5q0 -5 -0.5 -10.5t-0.5 -10.5q0 -6 -0.5 -11.5t-0.5 -10.5
q0 -20 1 -40.5t2 -40.5q1 -5 1 -9v-8q1 -16 2 -32.5t2 -32.5q0 -5 -2 -9t-7 -4h-1q-6 0 -9 5.5t-5 13.5q-2 7 -4 15t-6 16q-8 19 -27.5 34.5t-62.5 15.5h-63q-25 0 -33.5 -9t-10.5 -35q-1 -14 -1.5 -28t-0.5 -28v-29v-28v-21t1 -22q1 -15 3.5 -29.5t6.5 -26.5q8 -22 20 -30
t34 -8q88 0 138.5 20t76.5 44q24 22 33.5 41t15.5 22h0.5t1.5 1h0.5h0.5q5 0 8 -4.5t3 -9.5q0 -83 -48.5 -123t-128.5 -40q-25 0 -49.5 2t-49.5 4t-50 3.5t-50 1.5q-34 0 -67.5 -1t-66.5 -4q-7 0 -11 1.5t-5 8.5q0 5 3.5 8.5t7.5 4.5q43 16 51 51t8 75v10v387
q0 50 -16.5 69.5t-35.5 24.5q-7 3 -14 4t-13 2q-10 1 -17 3.5t-8 9.5q0 5 2 9t8 5q27 0 54 -1t54 -1q26 -1 53 -2t54 -1h24.5h25.5t25.5 0.5t24.5 0.5l111 2q7 0 14 0.5t14 0.5t14 0.5t14 0.5t10.5 -4t4.5 -12q0 -13 1 -26.5t2 -26.5t2 -26.5t1 -26.5q0 -3 -0.5 -6t-0.5 -7
q-2 -7 -5 -12.5t-10 -7.5q-7 0 -9.5 5t-2.5 10v3.5v2.5q-2 55 -39.5 72t-81.5 19q-6 1 -12 1h-12h-8h-8q-4 -1 -8 -1h-8h-8.5t-8.5 1h-9h-9q-28 0 -41 -9.5t-15 -43.5v-21v0zM172 807v1q0 10 7 19t16 17l9.5 9.5t7.5 8.5q1 2 2.5 3.5l3.5 3.5q4 4 8.5 7.5t8.5 3.5
q6 0 10.5 -4t7.5 -8q2 -3 3.5 -5t2.5 -4t6.5 -8t12.5 -14q1 -1 2.5 -3t2.5 -3q6 -8 10 -14.5t4 -10.5v-1q0 -6 -3.5 -12.5t-8.5 -11.5l-2.5 -2.5l-2.5 -2.5q-3 -4 -7 -9t-8 -11q-6 -8 -13 -15.5t-15 -8.5h-1q-5 0 -9.5 3.5t-8.5 8.5q-1 2 -2.5 3.5t-2.5 3.5q-3 4 -8 9
l-10 10l-12 14t-9 14q-1 3 -1.5 5t-0.5 4v0zM342 807v1q0 9 7.5 18t15.5 18q5 4 9.5 8.5t7.5 9.5q1 2 2.5 3.5l3.5 3.5q4 4 8.5 7.5t8.5 3.5q6 0 10.5 -4t7.5 -8q2 -3 3.5 -5t2.5 -4l6.5 -6.5t12.5 -13.5q2 -3 4 -5.5t4 -5.5q5 -6 8 -12t3 -10v-1q0 -6 -3.5 -12.5
t-8.5 -11.5l-2.5 -2.5l-2.5 -2.5q-3 -4 -7 -9t-8 -11q-6 -8 -13 -15.5t-15 -8.5h-1q-5 0 -9.5 3.5t-8.5 8.5q-1 2 -2.5 3.5t-2.5 3.5q-3 4 -8 9l-10 10l-12 14t-9 14q-1 3 -1.5 5t-0.5 4v0z" />
    <glyph glyph-name="Igrave" unicode="&#xcc;" horiz-adv-x="406" 
d="M260 550v-379q0 -55 15 -100.5t84 -45.5q6 0 11 -2t6 -9q0 -9 -6.5 -12t-14.5 -4h-2.5h-3.5q-18 0 -36.5 1t-36.5 3q-19 1 -37.5 2.5t-36.5 1.5q-14 0 -27.5 -1t-26.5 -3q-4 0 -8 -0.5t-7 -1.5q-10 0 -20 -1l-20 -2q-6 0 -10.5 1.5t-6.5 7.5q0 3 2 6t6 5q5 3 12.5 7
t15.5 9q13 10 24 28t11 52q0 9 0.5 17.5t0.5 17.5v17.5v17.5v342v6.5v6.5q-1 3 -1 6.5v6.5q0 42 -17.5 58.5t-37.5 21.5q-7 2 -14 3.5t-13 2.5q-12 2 -20.5 5t-8.5 12q0 5 3 9.5t9 4.5q4 0 7.5 -0.5t6.5 -0.5q2 -1 5 -1.5t6 -0.5q7 -2 18 -3t29 -1q25 0 49.5 1.5t48.5 3.5
q25 2 49.5 3.5t48.5 1.5q7 0 10 -2.5t4 -9.5q0 -7 -3 -10.5t-11 -5.5q-38 -6 -46.5 -23t-9.5 -53v-17v0zM168 752l-79 78q-1 2 -3 3.5t-4 3.5q-4 4 -7 8.5t-3 9.5q0 8 6 13t14 6h2h2h30h3h3h2.5h2.5q11 0 20 -2t14 -13q4 -8 12 -20.5t17 -26.5q1 -3 2.5 -5t2.5 -5
q11 -17 19 -33.5t8 -25.5q0 -4 -3.5 -8t-8.5 -4q-11 3 -22 7.5t-21 9.5q-3 1 -5 2l-4 2v0z" />
    <glyph glyph-name="Iacute" unicode="&#xcd;" horiz-adv-x="406" 
d="M260 550v-379q0 -55 15 -100.5t84 -45.5q6 0 11 -2t6 -9q0 -9 -6.5 -12t-14.5 -4h-2.5h-3.5q-18 0 -36.5 1t-36.5 3q-19 1 -37.5 2.5t-36.5 1.5q-14 0 -27.5 -1t-26.5 -3q-4 0 -8 -0.5t-7 -1.5q-10 0 -20 -1l-20 -2q-6 0 -10.5 1.5t-6.5 7.5q0 3 2 6t6 5q5 3 12.5 7
t15.5 9q13 10 24 28t11 52q0 9 0.5 17.5t0.5 17.5v17.5v17.5v342v6.5v6.5q-1 3 -1 6.5v6.5q0 42 -17.5 58.5t-37.5 21.5q-7 2 -14 3.5t-13 2.5q-12 2 -20.5 5t-8.5 12q0 5 3 9.5t9 4.5q4 0 7.5 -0.5t6.5 -0.5q2 -1 5 -1.5t6 -0.5q7 -2 18 -3t29 -1q25 0 49.5 1.5t48.5 3.5
q25 2 49.5 3.5t48.5 1.5q7 0 10 -2.5t4 -9.5q0 -7 -3 -10.5t-11 -5.5q-38 -6 -46.5 -23t-9.5 -53v-17v0zM222 754q-13 -6 -25.5 -11.5t-26.5 -9.5q-5 0 -8 3.5t-3 8.5q0 9 4 17t10 16q1 3 3 5.5t3 4.5q10 16 16 29.5t11 23.5q9 16 20 25t38 10h30h1.5h1.5q8 -1 15 -6t7 -14
q0 -4 -2.5 -7.5t-5.5 -6.5l-10 -10l-79 -78v0z" />
    <glyph glyph-name="Icircumflex" unicode="&#xce;" horiz-adv-x="406" 
d="M260 550v-379q0 -55 15 -100.5t84 -45.5q6 0 11 -2t6 -9q0 -9 -6.5 -12t-14.5 -4h-2.5h-3.5q-18 0 -36.5 1t-36.5 3q-19 1 -37.5 2.5t-36.5 1.5q-14 0 -27.5 -1t-26.5 -3q-4 0 -8 -0.5t-7 -1.5q-10 0 -20 -1l-20 -2q-6 0 -10.5 1.5t-6.5 7.5q0 3 2 6t6 5q5 3 12.5 7
t15.5 9q13 10 24 28t11 52q0 9 0.5 17.5t0.5 17.5v17.5v17.5v342v6.5v6.5q-1 3 -1 6.5v6.5q0 42 -17.5 58.5t-37.5 21.5q-7 2 -14 3.5t-13 2.5q-12 2 -20.5 5t-8.5 12q0 5 3 9.5t9 4.5q4 0 7.5 -0.5t6.5 -0.5q2 -1 5 -1.5t6 -0.5q7 -2 18 -3t29 -1q25 0 49.5 1.5t48.5 3.5
q25 2 49.5 3.5t48.5 1.5q7 0 10 -2.5t4 -9.5q0 -7 -3 -10.5t-11 -5.5q-38 -6 -46.5 -23t-9.5 -53v-17v0zM339 765v-1q0 -4 -3 -7t-7 -5q-1 -1 -2.5 -1.5t-2.5 -0.5q-5 -2 -10.5 -4t-11.5 -4q-4 -1 -7.5 -2.5t-7.5 -2.5q-7 -3 -14 -4.5t-14 -1.5q-4 0 -14.5 8.5t-22.5 19.5
q-2 1 -3.5 2.5l-2.5 2.5q-11 10 -20 19l-12 12l-2 2l-2 2q-2 2 -4 3.5t-5 1.5q-7 0 -16.5 -11t-18.5 -25q-1 0 -1.5 -0.5t-0.5 -1.5q-9 -12 -17.5 -22t-15.5 -11q-3 0 -9.5 1.5t-13.5 4.5q-6 2 -11.5 5t-8.5 6q-2 2 -3 3.5t-1 2.5t0.5 2.5t0.5 2.5l2 4l2 4q1 0 1.5 1l0.5 1
q9 10 18.5 20.5t18.5 20.5q9 11 18.5 21.5t18.5 20.5q8 8 13 13.5t10 8.5q6 4 12.5 5.5t16.5 1.5q27 0 49 -17t42 -37q7 -8 14 -15.5t14 -14.5q2 -1 6.5 -5.5l9.5 -9.5l1.5 -1.5l0.5 -0.5q6 -6 10 -10.5t5 -6.5v0z" />
    <glyph glyph-name="Idieresis" unicode="&#xcf;" horiz-adv-x="406" 
d="M260 550v-379q0 -55 15 -100.5t84 -45.5q6 0 11 -2t6 -9q0 -9 -6.5 -12t-14.5 -4h-2.5h-3.5q-18 0 -36.5 1t-36.5 3q-19 1 -37.5 2.5t-36.5 1.5q-14 0 -27.5 -1t-26.5 -3q-4 0 -8 -0.5t-7 -1.5q-10 0 -20 -1l-20 -2q-6 0 -10.5 1.5t-6.5 7.5q0 3 2 6t6 5q5 3 12.5 7
t15.5 9q13 10 24 28t11 52q0 9 0.5 17.5t0.5 17.5v17.5v17.5v342v6.5v6.5q-1 3 -1 6.5v6.5q0 42 -17.5 58.5t-37.5 21.5q-7 2 -14 3.5t-13 2.5q-12 2 -20.5 5t-8.5 12q0 5 3 9.5t9 4.5q4 0 7.5 -0.5t6.5 -0.5q2 -1 5 -1.5t6 -0.5q7 -2 18 -3t29 -1q25 0 49.5 1.5t48.5 3.5
q25 2 49.5 3.5t48.5 1.5q7 0 10 -2.5t4 -9.5q0 -7 -3 -10.5t-11 -5.5q-38 -6 -46.5 -23t-9.5 -53v-17v0zM48 806v1q0 10 7 19t16 17l9.5 9.5t7.5 8.5q1 2 2.5 3.5l3.5 3.5q4 4 8.5 7.5t8.5 3.5q6 0 10.5 -4t7.5 -8q2 -3 3.5 -5t2.5 -4t6.5 -8t12.5 -14q1 -1 2.5 -3t2.5 -3
q6 -8 10 -14.5t4 -10.5v-1q0 -6 -3.5 -12.5t-8.5 -11.5l-2.5 -2.5l-2.5 -2.5q-3 -4 -7 -9t-8 -11q-6 -8 -13 -15.5t-15 -8.5h-1q-5 0 -9.5 3.5t-8.5 8.5q-1 2 -2.5 3.5t-2.5 3.5q-3 4 -8 9l-10 10l-12 14t-9 14q-1 3 -1.5 5t-0.5 4v0zM218 806v1q0 9 7.5 18t15.5 18
q5 4 9.5 8.5t7.5 9.5q1 2 2.5 3.5l3.5 3.5q4 4 8.5 7.5t8.5 3.5q6 0 10.5 -4t7.5 -8q2 -3 3.5 -5t2.5 -4l6.5 -6.5t12.5 -13.5q2 -3 4 -5.5t4 -5.5q5 -6 8 -12t3 -10v-1q0 -6 -3.5 -12.5t-8.5 -11.5l-2.5 -2.5l-2.5 -2.5q-3 -4 -7 -9t-8 -11q-6 -8 -13 -15.5t-15 -8.5h-1
q-5 0 -9.5 3.5t-8.5 8.5q-1 2 -2.5 3.5t-2.5 3.5q-3 4 -8 9l-10 10l-12 14t-9 14q-1 3 -1.5 5t-0.5 4v0z" />
    <glyph glyph-name="Eth" unicode="&#xd0;" horiz-adv-x="792" 
d="M148 330h-43h-2h-3q-8 0 -14.5 2.5t-6.5 12.5v1q1 13 8.5 15t17.5 2h43v175q0 47 -26 72t-73 25q-7 0 -11 3t-4 10t5.5 10.5t11.5 3.5q2 1 4 1h4q11 0 21 -0.5t21 -0.5q10 0 20.5 -0.5t20.5 -0.5q29 0 58 2.5t58 5.5q28 2 57 4.5t58 2.5q146 0 263 -73t117 -237
q0 -154 -104.5 -260t-259.5 -106q-21 0 -42.5 0.5t-42.5 1.5q-21 0 -42.5 1t-42.5 1q-16 0 -31.5 -1t-31.5 -3l-30 -2t-30 -1q-7 0 -9.5 3.5t-2.5 9.5q0 5 3.5 7.5t8.5 4.5q4 1 9.5 3t10.5 5q12 6 22 24t10 59v20v197v0zM261 330v-175q0 -72 28.5 -96t97.5 -24
q128 0 187.5 90t59.5 205q0 134 -82 222t-218 88q-43 0 -58 -12.5t-15 -43.5v-20v-201h110h2h3q8 0 14.5 -2.5t6.5 -12.5q0 -13 -8 -15.5t-18 -2.5h-110v0z" />
    <glyph glyph-name="Ntilde" unicode="&#xd1;" horiz-adv-x="812" 
d="M326 557l259 -290q4 -4 10 -11t13 -15q2 -1 3.5 -3t3.5 -4q10 -9 18.5 -16t12.5 -7h1q5 1 7 6.5t3 11.5v3.5v3.5q0 29 0.5 58t1.5 58q1 28 1.5 57t0.5 58q0 65 -17 120.5t-97 59.5q-6 1 -11 3.5t-5 8.5q0 5 4 8.5t8 3.5q12 0 24 -1t25 -2q12 -2 24 -3t24 -1
q14 0 27.5 0.5t28.5 1.5q14 1 28 3t27 4h2.5t2.5 1h2.5h2.5q8 0 14 -2.5t6 -12.5q0 -7 -5 -9.5t-11 -4.5q-32 -6 -45 -31.5t-16 -55.5q-1 -12 -1.5 -24.5t-0.5 -23.5l-7 -306l-2 -41q0 -19 0.5 -38t0.5 -37q0 -19 0.5 -38t0.5 -38v-1.5v-0.5q0 -5 -2 -8.5t-7 -3.5h-2t-2 1
q-5 1 -9 3t-6 6l-444 493q-1 1 -2 2.5t-3 2.5q-2 3 -4.5 5.5t-5.5 2.5q-7 0 -9.5 -5t-3.5 -10v-3.5v-3.5l-1 -14v-189q0 -28 1 -55.5t2 -55.5v-2.5v-2.5q4 -66 19 -104.5t88 -45.5h2h2q4 -1 8 -4t4 -8t-3.5 -9t-8.5 -5q-12 0 -26 1.5t-29 2.5t-31 2.5t-33 1.5q-20 0 -40 -2
l-40 -4q-6 -1 -12.5 -1.5t-13.5 -1.5q-7 0 -11 3t-4 10q0 4 3 6t8 4q6 2 14 5t17 10q14 11 26.5 38t14.5 83l3 116v57v155q0 57 -23 105t-88 53q-5 0 -9 2t-6 8q0 8 5 12t12 4q13 -1 25.5 -1.5t25.5 -0.5q14 0 28 1t28 3q13 1 27 2t28 1q17 0 29 -10.5t22 -23.5
q3 -3 5.5 -6.5t4.5 -6.5q14 -17 28.5 -34t29.5 -34v0zM353 858q18 0 35 -6t33 -13q16 -8 33 -14t35 -6h2.5h2.5q13 1 24 7.5t18 17.5l1.5 1.5l0.5 0.5q1 2 2.5 3t2.5 1h1q1 0 3 -0.5t4 -1.5q1 -1 2.5 -1.5t2.5 -1.5l2 -2t1 -2q0 -6 -3 -13.5t-8 -14.5q-8 -12 -21 -23.5
t-27 -19.5q-10 -6 -19.5 -9.5t-17.5 -3.5q-18 0 -35 6t-33 13q-1 0 -2 0.5t-2 0.5q-15 7 -31 12.5t-33 5.5q-15 0 -24 -6t-14 -14q-3 -4 -5 -8t-4 -7q-2 -2 -4 -3.5t-4 -1.5h-1q-1 1 -2.5 1.5t-2.5 1.5q-3 1 -5 2.5t-3 3.5v1q0 1 0.5 2.5t0.5 2.5l0.5 0.5t0.5 1.5t0.5 1.5
t0.5 1.5q6 9 10.5 17.5t8.5 16.5q11 20 25.5 33.5t47.5 15.5v0z" />
    <glyph glyph-name="Ograve" unicode="&#xd2;" 
 />
    <glyph glyph-name="Oacute" unicode="&#xd3;" horiz-adv-x="785" 
d="M40 319q0 155 99 258t256 103q148 0 248.5 -82.5t100.5 -238.5q0 -158 -96.5 -264.5t-259.5 -106.5q-150 0 -249 88.5t-99 242.5v0zM160 360q0 -21 2 -43.5t7 -45.5q18 -93 75 -170.5t161 -77.5q117 0 168.5 84.5t56.5 185.5v11.5v10.5q0 7 -0.5 14.5t-0.5 14.5
q-8 113 -75 206.5t-192 93.5h-4h-4q-36 -2 -69.5 -17.5t-57.5 -41.5q-30 -32 -44.5 -73t-19.5 -84l-2 -34t-1 -34v0zM428 755q-13 -6 -25.5 -11.5t-26.5 -9.5q-5 0 -8 3.5t-3 8.5q0 9 4 17t10 16q1 3 3 5.5t3 4.5q10 16 16 29.5t11 23.5q9 16 20 25t38 10h30h1.5h1.5
q8 -1 15 -6t7 -14q0 -4 -2.5 -7.5t-5.5 -6.5l-10 -10l-79 -78v0z" />
    <glyph glyph-name="Ocircumflex" unicode="&#xd4;" horiz-adv-x="785" 
d="M40 319q0 155 99 258t256 103q148 0 248.5 -82.5t100.5 -238.5q0 -158 -96.5 -264.5t-259.5 -106.5q-150 0 -249 88.5t-99 242.5v0zM160 360q0 -21 2 -43.5t7 -45.5q18 -93 75 -170.5t161 -77.5q117 0 168.5 84.5t56.5 185.5v11.5v10.5q0 7 -0.5 14.5t-0.5 14.5
q-8 113 -75 206.5t-192 93.5h-4h-4q-36 -2 -69.5 -17.5t-57.5 -41.5q-30 -32 -44.5 -73t-19.5 -84l-2 -34t-1 -34v0zM535 765v-1q0 -4 -3 -7t-7 -5q-1 -1 -2.5 -1.5t-2.5 -0.5q-5 -2 -10.5 -4t-11.5 -4q-4 -1 -7.5 -2.5t-7.5 -2.5q-7 -3 -14 -4.5t-14 -1.5q-4 0 -14.5 8.5
t-22.5 19.5q-2 1 -3.5 2.5l-2.5 2.5q-11 10 -20 19l-12 12l-2 2l-2 2q-2 2 -4 3.5t-5 1.5q-7 0 -16.5 -11t-18.5 -25q-1 0 -1.5 -0.5t-0.5 -1.5q-9 -12 -17.5 -22t-15.5 -11q-3 0 -9.5 1.5t-13.5 4.5q-6 2 -11.5 5t-8.5 6q-2 2 -3 3.5t-1 2.5t0.5 2.5t0.5 2.5l2 4l2 4
q1 0 1.5 1l0.5 1q9 10 18.5 20.5t18.5 20.5q9 11 18.5 21.5t18.5 20.5q8 8 13 13.5t10 8.5q6 4 12.5 5.5t16.5 1.5q27 0 49 -17t42 -37q7 -8 14 -15.5t14 -14.5q2 -1 6.5 -5.5l9.5 -9.5l1.5 -1.5l0.5 -0.5q6 -6 10 -10.5t5 -6.5v0z" />
    <glyph glyph-name="Otilde" unicode="&#xd5;" horiz-adv-x="785" 
d="M40 319q0 155 99 258t256 103q148 0 248.5 -82.5t100.5 -238.5q0 -158 -96.5 -264.5t-259.5 -106.5q-150 0 -249 88.5t-99 242.5v0zM160 360q0 -21 2 -43.5t7 -45.5q18 -93 75 -170.5t161 -77.5q117 0 168.5 84.5t56.5 185.5v11.5v10.5q0 7 -0.5 14.5t-0.5 14.5
q-8 113 -75 206.5t-192 93.5h-4h-4q-36 -2 -69.5 -17.5t-57.5 -41.5q-30 -32 -44.5 -73t-19.5 -84l-2 -34t-1 -34v0zM337 858q18 0 35 -6t33 -13q16 -8 33 -14t35 -6h2.5h2.5q13 1 24 7.5t18 17.5l1.5 1.5l0.5 0.5q1 2 2.5 3t2.5 1h1q1 0 3 -0.5t4 -1.5q1 -1 2.5 -1.5
t2.5 -1.5l2 -2t1 -2q0 -6 -3 -13.5t-8 -14.5q-8 -12 -21 -23.5t-27 -19.5q-10 -6 -19.5 -9.5t-17.5 -3.5q-18 0 -35 6t-33 13q-1 0 -2 0.5t-2 0.5q-15 7 -31 12.5t-33 5.5q-15 0 -24 -6t-14 -14q-3 -4 -5 -8t-4 -7q-2 -2 -4 -3.5t-4 -1.5h-1q-1 1 -2.5 1.5t-2.5 1.5
q-3 1 -5 2.5t-3 3.5v1q0 1 0.5 2.5t0.5 2.5l0.5 0.5t0.5 1.5t0.5 1.5t0.5 1.5q6 9 10.5 17.5t8.5 16.5q11 20 25.5 33.5t47.5 15.5v0z" />
    <glyph glyph-name="Odieresis" unicode="&#xd6;" horiz-adv-x="785" 
d="M40 319q0 155 99 258t256 103q148 0 248.5 -82.5t100.5 -238.5q0 -158 -96.5 -264.5t-259.5 -106.5q-150 0 -249 88.5t-99 242.5v0zM160 360q0 -21 2 -43.5t7 -45.5q18 -93 75 -170.5t161 -77.5q117 0 168.5 84.5t56.5 185.5v11.5v10.5q0 7 -0.5 14.5t-0.5 14.5
q-8 113 -75 206.5t-192 93.5h-4h-4q-36 -2 -69.5 -17.5t-57.5 -41.5q-30 -32 -44.5 -73t-19.5 -84l-2 -34t-1 -34v0zM245 807v1q0 10 7 19t16 17l9.5 9.5t7.5 8.5q1 2 2.5 3.5l3.5 3.5q4 4 8.5 7.5t8.5 3.5q6 0 10.5 -4t7.5 -8q2 -3 3.5 -5t2.5 -4t6.5 -8t12.5 -14
q1 -1 2.5 -3t2.5 -3q6 -8 10 -14.5t4 -10.5v-1q0 -6 -3.5 -12.5t-8.5 -11.5l-2.5 -2.5l-2.5 -2.5q-3 -4 -7 -9t-8 -11q-6 -8 -13 -15.5t-15 -8.5h-1q-5 0 -9.5 3.5t-8.5 8.5q-1 2 -2.5 3.5t-2.5 3.5q-3 4 -8 9l-10 10l-12 14t-9 14q-1 3 -1.5 5t-0.5 4v0zM415 807v1
q0 9 7.5 18t15.5 18q5 4 9.5 8.5t7.5 9.5q1 2 2.5 3.5l3.5 3.5q4 4 8.5 7.5t8.5 3.5q6 0 10.5 -4t7.5 -8q2 -3 3.5 -5t2.5 -4l6.5 -6.5t12.5 -13.5q2 -3 4 -5.5t4 -5.5q5 -6 8 -12t3 -10v-1q0 -6 -3.5 -12.5t-8.5 -11.5l-2.5 -2.5l-2.5 -2.5q-3 -4 -7 -9t-8 -11
q-6 -8 -13 -15.5t-15 -8.5h-1q-5 0 -9.5 3.5t-8.5 8.5q-1 2 -2.5 3.5t-2.5 3.5q-3 4 -8 9l-10 10l-12 14t-9 14q-1 3 -1.5 5t-0.5 4v0z" />
    <glyph glyph-name="multiply" unicode="&#xd7;" horiz-adv-x="500" 
d="M96 544l153 -154l154 155l42 -42l-155 -154l154 -154l-40 -40l-154 154l-154 -155l-42 42l155 154l-154 153l41 41v0z" />
    <glyph glyph-name="Oslash" unicode="&#xd8;" horiz-adv-x="784" 
d="M651 593l83 81l1.5 1.5l1.5 1.5q2 3 5.5 5t6.5 2h1.5h0.5q5 -1 9 -5t5 -9q1 -1 1 -2v-2q0 -4 -1.5 -7t-3.5 -5q-1 -1 -1.5 -2t-1.5 -2l-83 -81q37 -43 54.5 -97.5t17.5 -111.5q0 -159 -96.5 -265.5t-260.5 -106.5h-11.5t-11.5 1q-56 2 -111 18.5t-99 53.5l-83 -83
q-1 0 -1.5 -0.5t-1.5 -0.5q-2 -2 -4.5 -3.5t-5.5 -2.5h-1.5h-0.5q-7 1 -12 5.5t-5 11.5q0 4 2.5 8t5.5 6l83 82q-45 47 -67.5 108.5t-22.5 126.5q0 155 97.5 258t255.5 103q70 0 136.5 -20t118.5 -67v0zM226 128q30 -46 78 -75.5t103 -29.5q120 0 170.5 87t53.5 192v6.5v7.5
q0 45 -10 88.5t-27 84.5l-368 -361v0zM577 520q-37 59 -89 91t-124 32q-8 0 -16 -1l-16 -2q-30 -6 -58 -20.5t-47 -35.5q-30 -33 -44 -75.5t-18 -87.5q-2 -16 -2.5 -32t-0.5 -31q0 -16 1 -32t4 -33q4 -35 14.5 -69.5t26.5 -65.5l369 362v0z" />
    <glyph glyph-name="Ugrave" unicode="&#xd9;" horiz-adv-x="814" 
d="M444 39q145 0 185 92.5t44 211.5q2 23 2 45.5v45.5v37.5t-1 37.5v4v4q0 8 -0.5 16.5t-1.5 17.5q-3 36 -21 66t-76 30q-7 0 -13 3.5t-6 10.5q0 5 2 8.5t7 3.5h6t5 -1q12 -2 24 -3l24 -2t24 -1h24q13 0 25.5 1.5t25.5 2.5q13 2 25.5 3t25.5 1q5 0 8.5 -2.5t4.5 -7.5
q0 -9 -6.5 -12.5t-13.5 -4.5h-3h-3q-1 0 -2.5 -0.5t-2.5 -0.5q-22 -4 -29.5 -22.5t-8.5 -40.5v-5v-6q0 -8 0.5 -16.5t0.5 -16.5q0 -9 0.5 -17.5t0.5 -16.5q0 -26 -1 -51.5t-2 -50.5q-1 -9 -1.5 -17.5t-0.5 -16.5q-1 -22 -1.5 -45.5t-2.5 -47.5q-5 -55 -20.5 -108.5
t-53.5 -95.5t-90.5 -60.5t-107.5 -22.5q-7 -1 -14.5 -1h-15.5q-159 0 -223 75.5t-64 229.5v9.5t1 8.5v9.5v8.5l5 142l-2 89q0 47 -21.5 63t-65.5 23q-9 2 -14 5t-5 12q0 5 4 7.5t8 2.5q16 0 32 -1t33 -2q16 -2 32.5 -3t32.5 -1q17 0 33.5 1t33.5 3q17 1 33.5 2t33.5 1
q8 0 14 -2t7 -12q0 -8 -7.5 -11.5t-18.5 -6.5q-1 0 -2.5 -0.5t-2.5 -0.5q-8 -3 -15 -5.5t-11 -7.5q-7 -8 -10.5 -19t-4.5 -22q-1 -6 -1.5 -11.5t-0.5 -10.5q-1 -2 -1 -4v-4l-7 -111v-142v-14.5v-15.5q2 -44 11 -87t39 -78q22 -26 54 -42.5t66 -22.5q10 -2 20 -3t19 -1v0z
M369 753l-79 78q-1 2 -3 3.5t-4 3.5q-4 4 -7 8.5t-3 9.5q0 8 6 13t14 6h2h2h30h3h3h2.5h2.5q11 0 20 -2t14 -13q4 -8 12 -20.5t17 -26.5q1 -3 2.5 -5t2.5 -5q11 -17 19 -33.5t8 -25.5q0 -4 -3.5 -8t-8.5 -4q-11 3 -22 7.5t-21 9.5q-3 1 -5 2l-4 2v0z" />
    <glyph glyph-name="Uacute" unicode="&#xda;" horiz-adv-x="814" 
d="M444 39q145 0 185 92.5t44 211.5q2 23 2 45.5v45.5v37.5t-1 37.5v4v4q0 8 -0.5 16.5t-1.5 17.5q-3 36 -21 66t-76 30q-7 0 -13 3.5t-6 10.5q0 5 2 8.5t7 3.5h6t5 -1q12 -2 24 -3l24 -2t24 -1h24q13 0 25.5 1.5t25.5 2.5q13 2 25.5 3t25.5 1q5 0 8.5 -2.5t4.5 -7.5
q0 -9 -6.5 -12.5t-13.5 -4.5h-3h-3q-1 0 -2.5 -0.5t-2.5 -0.5q-22 -4 -29.5 -22.5t-8.5 -40.5v-5v-6q0 -8 0.5 -16.5t0.5 -16.5q0 -9 0.5 -17.5t0.5 -16.5q0 -26 -1 -51.5t-2 -50.5q-1 -9 -1.5 -17.5t-0.5 -16.5q-1 -22 -1.5 -45.5t-2.5 -47.5q-5 -55 -20.5 -108.5
t-53.5 -95.5t-90.5 -60.5t-107.5 -22.5q-7 -1 -14.5 -1h-15.5q-159 0 -223 75.5t-64 229.5v9.5t1 8.5v9.5v8.5l5 142l-2 89q0 47 -21.5 63t-65.5 23q-9 2 -14 5t-5 12q0 5 4 7.5t8 2.5q16 0 32 -1t33 -2q16 -2 32.5 -3t32.5 -1q17 0 33.5 1t33.5 3q17 1 33.5 2t33.5 1
q8 0 14 -2t7 -12q0 -8 -7.5 -11.5t-18.5 -6.5q-1 0 -2.5 -0.5t-2.5 -0.5q-8 -3 -15 -5.5t-11 -7.5q-7 -8 -10.5 -19t-4.5 -22q-1 -6 -1.5 -11.5t-0.5 -10.5q-1 -2 -1 -4v-4l-7 -111v-142v-14.5v-15.5q2 -44 11 -87t39 -78q22 -26 54 -42.5t66 -22.5q10 -2 20 -3t19 -1v0z
M476 755q-13 -6 -25.5 -11.5t-26.5 -9.5q-5 0 -8 3.5t-3 8.5q0 9 4 17t10 16q1 3 3 5.5t3 4.5q10 16 16 29.5t11 23.5q9 16 20 25t38 10h30h1.5h1.5q8 -1 15 -6t7 -14q0 -4 -2.5 -7.5t-5.5 -6.5l-10 -10l-79 -78v0z" />
    <glyph glyph-name="Ucircumflex" unicode="&#xdb;" horiz-adv-x="814" 
d="M444 39q145 0 185 92.5t44 211.5q2 23 2 45.5v45.5v37.5t-1 37.5v4v4q0 8 -0.5 16.5t-1.5 17.5q-3 36 -21 66t-76 30q-7 0 -13 3.5t-6 10.5q0 5 2 8.5t7 3.5h6t5 -1q12 -2 24 -3l24 -2t24 -1h24q13 0 25.5 1.5t25.5 2.5q13 2 25.5 3t25.5 1q5 0 8.5 -2.5t4.5 -7.5
q0 -9 -6.5 -12.5t-13.5 -4.5h-3h-3q-1 0 -2.5 -0.5t-2.5 -0.5q-22 -4 -29.5 -22.5t-8.5 -40.5v-5v-6q0 -8 0.5 -16.5t0.5 -16.5q0 -9 0.5 -17.5t0.5 -16.5q0 -26 -1 -51.5t-2 -50.5q-1 -9 -1.5 -17.5t-0.5 -16.5q-1 -22 -1.5 -45.5t-2.5 -47.5q-5 -55 -20.5 -108.5
t-53.5 -95.5t-90.5 -60.5t-107.5 -22.5q-7 -1 -14.5 -1h-15.5q-159 0 -223 75.5t-64 229.5v9.5t1 8.5v9.5v8.5l5 142l-2 89q0 47 -21.5 63t-65.5 23q-9 2 -14 5t-5 12q0 5 4 7.5t8 2.5q16 0 32 -1t33 -2q16 -2 32.5 -3t32.5 -1q17 0 33.5 1t33.5 3q17 1 33.5 2t33.5 1
q8 0 14 -2t7 -12q0 -8 -7.5 -11.5t-18.5 -6.5q-1 0 -2.5 -0.5t-2.5 -0.5q-8 -3 -15 -5.5t-11 -7.5q-7 -8 -10.5 -19t-4.5 -22q-1 -6 -1.5 -11.5t-0.5 -10.5q-1 -2 -1 -4v-4l-7 -111v-142v-14.5v-15.5q2 -44 11 -87t39 -78q22 -26 54 -42.5t66 -22.5q10 -2 20 -3t19 -1v0z
M583 765v-1q0 -4 -3 -7t-7 -5q-1 -1 -2.5 -1.5t-2.5 -0.5q-5 -2 -10.5 -4t-11.5 -4q-4 -1 -7.5 -2.5t-7.5 -2.5q-7 -3 -14 -4.5t-14 -1.5q-4 0 -14.5 8.5t-22.5 19.5q-2 1 -3.5 2.5l-2.5 2.5q-11 10 -20 19l-12 12l-2 2l-2 2q-2 2 -4 3.5t-5 1.5q-7 0 -16.5 -11t-18.5 -25
q-1 0 -1.5 -0.5t-0.5 -1.5q-9 -12 -17.5 -22t-15.5 -11q-3 0 -9.5 1.5t-13.5 4.5q-6 2 -11.5 5t-8.5 6q-2 2 -3 3.5t-1 2.5t0.5 2.5t0.5 2.5l2 4l2 4q1 0 1.5 1l0.5 1q9 10 18.5 20.5t18.5 20.5q9 11 18.5 21.5t18.5 20.5q8 8 13 13.5t10 8.5q6 4 12.5 5.5t16.5 1.5
q27 0 49 -17t42 -37q7 -8 14 -15.5t14 -14.5q2 -1 6.5 -5.5l9.5 -9.5l1.5 -1.5l0.5 -0.5q6 -6 10 -10.5t5 -6.5v0z" />
    <glyph glyph-name="Udieresis" unicode="&#xdc;" horiz-adv-x="814" 
d="M444 39q145 0 185 92.5t44 211.5q2 23 2 45.5v45.5v37.5t-1 37.5v4v4q0 8 -0.5 16.5t-1.5 17.5q-3 36 -21 66t-76 30q-7 0 -13 3.5t-6 10.5q0 5 2 8.5t7 3.5h6t5 -1q12 -2 24 -3l24 -2t24 -1h24q13 0 25.5 1.5t25.5 2.5q13 2 25.5 3t25.5 1q5 0 8.5 -2.5t4.5 -7.5
q0 -9 -6.5 -12.5t-13.5 -4.5h-3h-3q-1 0 -2.5 -0.5t-2.5 -0.5q-22 -4 -29.5 -22.5t-8.5 -40.5v-5v-6q0 -8 0.5 -16.5t0.5 -16.5q0 -9 0.5 -17.5t0.5 -16.5q0 -26 -1 -51.5t-2 -50.5q-1 -9 -1.5 -17.5t-0.5 -16.5q-1 -22 -1.5 -45.5t-2.5 -47.5q-5 -55 -20.5 -108.5
t-53.5 -95.5t-90.5 -60.5t-107.5 -22.5q-7 -1 -14.5 -1h-15.5q-159 0 -223 75.5t-64 229.5v9.5t1 8.5v9.5v8.5l5 142l-2 89q0 47 -21.5 63t-65.5 23q-9 2 -14 5t-5 12q0 5 4 7.5t8 2.5q16 0 32 -1t33 -2q16 -2 32.5 -3t32.5 -1q17 0 33.5 1t33.5 3q17 1 33.5 2t33.5 1
q8 0 14 -2t7 -12q0 -8 -7.5 -11.5t-18.5 -6.5q-1 0 -2.5 -0.5t-2.5 -0.5q-8 -3 -15 -5.5t-11 -7.5q-7 -8 -10.5 -19t-4.5 -22q-1 -6 -1.5 -11.5t-0.5 -10.5q-1 -2 -1 -4v-4l-7 -111v-142v-14.5v-15.5q2 -44 11 -87t39 -78q22 -26 54 -42.5t66 -22.5q10 -2 20 -3t19 -1v0z
M279 807v1q0 10 7 19t16 17l9.5 9.5t7.5 8.5q1 2 2.5 3.5l3.5 3.5q4 4 8.5 7.5t8.5 3.5q6 0 10.5 -4t7.5 -8q2 -3 3.5 -5t2.5 -4t6.5 -8t12.5 -14q1 -1 2.5 -3t2.5 -3q6 -8 10 -14.5t4 -10.5v-1q0 -6 -3.5 -12.5t-8.5 -11.5l-2.5 -2.5l-2.5 -2.5q-3 -4 -7 -9t-8 -11
q-6 -8 -13 -15.5t-15 -8.5h-1q-5 0 -9.5 3.5t-8.5 8.5q-1 2 -2.5 3.5t-2.5 3.5q-3 4 -8 9l-10 10l-12 14t-9 14q-1 3 -1.5 5t-0.5 4v0zM449 807v1q0 9 7.5 18t15.5 18q5 4 9.5 8.5t7.5 9.5q1 2 2.5 3.5l3.5 3.5q4 4 8.5 7.5t8.5 3.5q6 0 10.5 -4t7.5 -8q2 -3 3.5 -5t2.5 -4
l6.5 -6.5t12.5 -13.5q2 -3 4 -5.5t4 -5.5q5 -6 8 -12t3 -10v-1q0 -6 -3.5 -12.5t-8.5 -11.5l-2.5 -2.5l-2.5 -2.5q-3 -4 -7 -9t-8 -11q-6 -8 -13 -15.5t-15 -8.5h-1q-5 0 -9.5 3.5t-8.5 8.5q-1 2 -2.5 3.5t-2.5 3.5q-3 4 -8 9l-10 10l-12 14t-9 14q-1 3 -1.5 5t-0.5 4v0z
" />
    <glyph glyph-name="Yacute" unicode="&#xdd;" 
 />
    <glyph glyph-name="Thorn" unicode="&#xde;" horiz-adv-x="620" 
d="M257 453v-264v-15v-20.5t1 -20.5q1 -19 3.5 -36.5t7.5 -30.5q7 -16 21.5 -25t30.5 -13q4 0 8 -1t8 -1h3.5h3.5h2h2q8 -1 15 -3.5t8 -11.5q0 -9 -5.5 -11.5t-13.5 -2.5q-13 0 -26 1l-26 2q-10 0 -20 0.5t-20 0.5q-22 0 -43.5 -1t-43.5 -3q-22 -1 -43.5 -2.5t-43.5 -1.5
q-7 0 -11 2t-5 9q0 6 3.5 9.5t8.5 4.5q42 10 52 40.5t11 65.5v7.5v6.5v14v377q0 62 -16.5 83t-75.5 33q-7 1 -10 4t-3 10q0 8 5 11t12 3q7 -1 14.5 -1.5t14.5 -1.5t14.5 -2t14.5 -1q14 -2 28.5 -3t29.5 -1q17 0 33.5 1.5t33.5 2.5q2 0 4.5 0.5t5.5 0.5q14 2 28.5 3t28.5 2h2
h2q7 -1 12.5 -4t5.5 -11q-2 -6 -8 -9t-14 -5q-4 -1 -7.5 -2t-6.5 -2q-14 -5 -25.5 -15t-11.5 -36q0 -13 7.5 -18.5t21.5 -5.5h19.5t19.5 1q9 0 18.5 0.5t19.5 0.5q13 0 26 -0.5t26 -2.5q77 -9 141.5 -51t64.5 -132q0 -87 -65.5 -139t-147.5 -52q-5 0 -20.5 1t-33.5 4
q-21 3 -38.5 9.5t-17.5 17.5v1.5v0.5q1 4 3.5 7.5t6.5 3.5q8 0 15 -1.5t15 -2.5q7 -2 14.5 -3.5t14.5 -1.5q61 0 99 41t38 100q0 65 -42 114t-110 49h-15.5t-17.5 -1q-14 -2 -27 -6t-22 -14q-6 -7 -8.5 -16t-3.5 -19v-7v-7v-7v0z" />
    <glyph glyph-name="germandbls" unicode="&#xdf;" horiz-adv-x="537" 
d="M85 403q0 9 0.5 17.5t1.5 17.5q10 94 64.5 172.5t158.5 78.5q64 0 113 -41t49 -109q0 -43 -16.5 -71t-35.5 -46q-20 -19 -36.5 -30.5t-16.5 -22.5q0 -17 23 -39.5t51 -51.5t51 -64.5t23 -77.5q0 -63 -49 -103.5t-108 -44.5h-5.5h-5.5q-28 0 -54.5 10.5t-49.5 26.5
q-1 11 -2 21.5t-1 21.5q-1 11 -1 21.5v21.5v4.5t1 5.5q1 5 4.5 10t9.5 5q1 0 2 -0.5t2 -1.5q6 -5 12.5 -21.5t16.5 -34.5q12 -22 30 -40.5t47 -18.5q28 0 43 21.5t17 46.5q0 57 -31.5 101t-70.5 82q-2 3 -4.5 5.5l-5.5 5.5t-8.5 7.5t-10.5 10.5q-7 6 -12.5 13.5t-8.5 14.5
q-2 3 -2.5 6t-0.5 6q0 12 17.5 26.5t39.5 35.5q21 20 38.5 48.5t17.5 67.5q0 5 -0.5 10.5t-1.5 10.5q-5 39 -31.5 71.5t-69.5 32.5q-52 0 -71.5 -40.5t-23.5 -88.5q-2 -19 -2.5 -37t-0.5 -33v-3v-2v-10v-10q-1 -31 -1.5 -62.5t-0.5 -63.5q0 -73 1.5 -145.5t3.5 -145.5
q-4 0 -8 0.5t-8 1.5q-12 1 -23.5 2t-22.5 1q-10 0 -19.5 -1t-19.5 -1q-10 -1 -19.5 -2t-19.5 -1h-2.5h-2.5q-6 1 -10 3.5t-4 8.5t4 9t10 5q3 2 6.5 3.5t7.5 3.5q10 5 18.5 16.5t9.5 36.5v16.5t1 17.5v16.5v16.5v201h-51q-10 0 -14.5 3t-4.5 13v6.5t1 7.5q1 6 4 12t10 6h58v0
z" />
    <glyph glyph-name="agrave" unicode="&#xe0;" horiz-adv-x="445" 
d="M270 233q2 10 4 19.5t2 19.5q0 5 -0.5 10.5t-1.5 11.5q-4 34 -24.5 62t-58.5 28q-19 0 -33 -9.5t-14 -30.5q0 -3 0.5 -6t0.5 -5q0 -3 0.5 -6t0.5 -6q0 -14 -13 -21t-29 -10q-9 -1 -18 -1.5t-15 -0.5h-1.5h-0.5q-7 1 -12 5.5t-5 11.5l6 24q6 34 36 53t65 26q14 3 28 4.5
t26 1.5q11 0 23 -1t24 -3q26 -4 50 -15t39 -31q16 -19 19 -42.5t3 -47.5q0 -23 -1 -45.5t-1 -45.5q-1 -23 -2 -45.5t-1 -45.5t8.5 -36.5t30.5 -13.5q5 0 9 1l8 2t8.5 2t8.5 1q2 0 4 -2t2 -4v-1q0 -4 -4.5 -9t-11.5 -11q-8 -6 -18 -11.5t-21 -9.5q-10 -4 -20.5 -6.5
t-18.5 -2.5q-26 0 -43.5 16.5t-28.5 37.5q-2 -1 -4 -2.5t-4 -2.5q-32 -20 -67 -36t-73 -16q-43 0 -67 23t-24 66q0 69 49 99t108 43q19 4 37.5 7.5t35.5 6.5v0zM143 104v-4v-4q2 -21 14.5 -39t36.5 -18q47 0 63 22t16 65v16.5t1 16.5v16.5v16.5q-1 7 -3.5 10t-10.5 3h-2.5
h-3.5q-40 -2 -74.5 -30t-36.5 -71v0zM199 487l-79 78q-1 2 -3 3.5t-4 3.5q-4 4 -7 8.5t-3 9.5q0 8 6 13t14 6h2h2h30h3h3h2.5h2.5q11 0 20 -2t14 -13q4 -8 12 -20.5t17 -26.5q1 -3 2.5 -5t2.5 -5q11 -17 19 -33.5t8 -25.5q0 -4 -3.5 -8t-8.5 -4q-11 3 -22 7.5t-21 9.5
q-3 1 -5 2l-4 2v0z" />
    <glyph glyph-name="aacute" unicode="&#xe1;" horiz-adv-x="445" 
d="M270 233q2 10 4 19.5t2 19.5q0 5 -0.5 10.5t-1.5 11.5q-4 34 -24.5 62t-58.5 28q-19 0 -33 -9.5t-14 -30.5q0 -3 0.5 -6t0.5 -5q0 -3 0.5 -6t0.5 -6q0 -14 -13 -21t-29 -10q-9 -1 -18 -1.5t-15 -0.5h-1.5h-0.5q-7 1 -12 5.5t-5 11.5l6 24q6 34 36 53t65 26q14 3 28 4.5
t26 1.5q11 0 23 -1t24 -3q26 -4 50 -15t39 -31q16 -19 19 -42.5t3 -47.5q0 -23 -1 -45.5t-1 -45.5q-1 -23 -2 -45.5t-1 -45.5t8.5 -36.5t30.5 -13.5q5 0 9 1l8 2t8.5 2t8.5 1q2 0 4 -2t2 -4v-1q0 -4 -4.5 -9t-11.5 -11q-8 -6 -18 -11.5t-21 -9.5q-10 -4 -20.5 -6.5
t-18.5 -2.5q-26 0 -43.5 16.5t-28.5 37.5q-2 -1 -4 -2.5t-4 -2.5q-32 -20 -67 -36t-73 -16q-43 0 -67 23t-24 66q0 69 49 99t108 43q19 4 37.5 7.5t35.5 6.5v0zM143 104v-4v-4q2 -21 14.5 -39t36.5 -18q47 0 63 22t16 65v16.5t1 16.5v16.5v16.5q-1 7 -3.5 10t-10.5 3h-2.5
h-3.5q-40 -2 -74.5 -30t-36.5 -71v0zM246 489q-13 -6 -25.5 -11.5t-26.5 -9.5q-5 0 -8 3.5t-3 8.5q0 9 4 17t10 16q1 3 3 5.5t3 4.5q10 16 16 29.5t11 23.5q9 16 20 25t38 10h30h1.5h1.5q8 -1 15 -6t7 -14q0 -4 -2.5 -7.5t-5.5 -6.5l-10 -10l-79 -78v0z" />
    <glyph glyph-name="acircumflex" unicode="&#xe2;" horiz-adv-x="445" 
d="M270 233q2 10 4 19.5t2 19.5q0 5 -0.5 10.5t-1.5 11.5q-4 34 -24.5 62t-58.5 28q-19 0 -33 -9.5t-14 -30.5q0 -3 0.5 -6t0.5 -5q0 -3 0.5 -6t0.5 -6q0 -14 -13 -21t-29 -10q-9 -1 -18 -1.5t-15 -0.5h-1.5h-0.5q-7 1 -12 5.5t-5 11.5l6 24q6 34 36 53t65 26q14 3 28 4.5
t26 1.5q11 0 23 -1t24 -3q26 -4 50 -15t39 -31q16 -19 19 -42.5t3 -47.5q0 -23 -1 -45.5t-1 -45.5q-1 -23 -2 -45.5t-1 -45.5t8.5 -36.5t30.5 -13.5q5 0 9 1l8 2t8.5 2t8.5 1q2 0 4 -2t2 -4v-1q0 -4 -4.5 -9t-11.5 -11q-8 -6 -18 -11.5t-21 -9.5q-10 -4 -20.5 -6.5
t-18.5 -2.5q-26 0 -43.5 16.5t-28.5 37.5q-2 -1 -4 -2.5t-4 -2.5q-32 -20 -67 -36t-73 -16q-43 0 -67 23t-24 66q0 69 49 99t108 43q19 4 37.5 7.5t35.5 6.5v0zM143 104v-4v-4q2 -21 14.5 -39t36.5 -18q47 0 63 22t16 65v16.5t1 16.5v16.5v16.5q-1 7 -3.5 10t-10.5 3h-2.5
h-3.5q-40 -2 -74.5 -30t-36.5 -71v0zM375 497v-1q0 -4 -3 -7t-7 -5q-1 -1 -2.5 -1.5t-2.5 -0.5q-5 -2 -10.5 -4t-11.5 -4q-4 -1 -7.5 -2.5t-7.5 -2.5q-7 -3 -14 -4.5t-14 -1.5q-4 0 -14.5 8.5t-22.5 19.5q-2 1 -3.5 2.5l-2.5 2.5q-11 10 -20 19l-12 12l-2 2l-2 2
q-2 2 -4 3.5t-5 1.5q-7 0 -16.5 -11t-18.5 -25q-1 0 -1.5 -0.5t-0.5 -1.5q-9 -12 -17.5 -22t-15.5 -11q-3 0 -9.5 1.5t-13.5 4.5q-6 2 -11.5 5t-8.5 6q-2 2 -3 3.5t-1 2.5t0.5 2.5t0.5 2.5l2 4l2 4q1 0 1.5 1l0.5 1q9 10 18.5 20.5t18.5 20.5q9 11 18.5 21.5t18.5 20.5
q8 8 13 13.5t10 8.5q6 4 12.5 5.5t16.5 1.5q27 0 49 -17t42 -37q7 -8 14 -15.5t14 -14.5q2 -1 6.5 -5.5l9.5 -9.5l1.5 -1.5l0.5 -0.5q6 -6 10 -10.5t5 -6.5v0z" />
    <glyph glyph-name="atilde" unicode="&#xe3;" horiz-adv-x="445" 
d="M270 233q2 10 4 19.5t2 19.5q0 5 -0.5 10.5t-1.5 11.5q-4 34 -24.5 62t-58.5 28q-19 0 -33 -9.5t-14 -30.5q0 -3 0.5 -6t0.5 -5q0 -3 0.5 -6t0.5 -6q0 -14 -13 -21t-29 -10q-9 -1 -18 -1.5t-15 -0.5h-1.5h-0.5q-7 1 -12 5.5t-5 11.5l6 24q6 34 36 53t65 26q14 3 28 4.5
t26 1.5q11 0 23 -1t24 -3q26 -4 50 -15t39 -31q16 -19 19 -42.5t3 -47.5q0 -23 -1 -45.5t-1 -45.5q-1 -23 -2 -45.5t-1 -45.5t8.5 -36.5t30.5 -13.5q5 0 9 1l8 2t8.5 2t8.5 1q2 0 4 -2t2 -4v-1q0 -4 -4.5 -9t-11.5 -11q-8 -6 -18 -11.5t-21 -9.5q-10 -4 -20.5 -6.5
t-18.5 -2.5q-26 0 -43.5 16.5t-28.5 37.5q-2 -1 -4 -2.5t-4 -2.5q-32 -20 -67 -36t-73 -16q-43 0 -67 23t-24 66q0 69 49 99t108 43q19 4 37.5 7.5t35.5 6.5v0zM143 104v-4v-4q2 -21 14.5 -39t36.5 -18q47 0 63 22t16 65v16.5t1 16.5v16.5v16.5q-1 7 -3.5 10t-10.5 3h-2.5
h-3.5q-40 -2 -74.5 -30t-36.5 -71v0zM167 588q18 0 35 -6t33 -13q16 -8 33 -14t35 -6h2.5h2.5q13 1 24 7.5t18 17.5l1.5 1.5l0.5 0.5q1 2 2.5 3t2.5 1h1q1 0 3 -0.5t4 -1.5q1 -1 2.5 -1.5t2.5 -1.5l2 -2t1 -2q0 -6 -3 -13.5t-8 -14.5q-8 -12 -21 -23.5t-27 -19.5
q-10 -6 -19.5 -9.5t-17.5 -3.5q-18 0 -35 6t-33 13q-1 0 -2 0.5t-2 0.5q-15 7 -31 12.5t-33 5.5q-15 0 -24 -6t-14 -14q-3 -4 -5 -8t-4 -7q-2 -2 -4 -3.5t-4 -1.5h-1q-1 1 -2.5 1.5t-2.5 1.5q-3 1 -5 2.5t-3 3.5v1q0 1 0.5 2.5t0.5 2.5l0.5 0.5t0.5 1.5t0.5 1.5t0.5 1.5
q6 9 10.5 17.5t8.5 16.5q11 20 25.5 33.5t47.5 15.5v0z" />
    <glyph glyph-name="adieresis" unicode="&#xe4;" horiz-adv-x="445" 
d="M270 233q2 10 4 19.5t2 19.5q0 5 -0.5 10.5t-1.5 11.5q-4 34 -24.5 62t-58.5 28q-19 0 -33 -9.5t-14 -30.5q0 -3 0.5 -6t0.5 -5q0 -3 0.5 -6t0.5 -6q0 -14 -13 -21t-29 -10q-9 -1 -18 -1.5t-15 -0.5h-1.5h-0.5q-7 1 -12 5.5t-5 11.5l6 24q6 34 36 53t65 26q14 3 28 4.5
t26 1.5q11 0 23 -1t24 -3q26 -4 50 -15t39 -31q16 -19 19 -42.5t3 -47.5q0 -23 -1 -45.5t-1 -45.5q-1 -23 -2 -45.5t-1 -45.5t8.5 -36.5t30.5 -13.5q5 0 9 1l8 2t8.5 2t8.5 1q2 0 4 -2t2 -4v-1q0 -4 -4.5 -9t-11.5 -11q-8 -6 -18 -11.5t-21 -9.5q-10 -4 -20.5 -6.5
t-18.5 -2.5q-26 0 -43.5 16.5t-28.5 37.5q-2 -1 -4 -2.5t-4 -2.5q-32 -20 -67 -36t-73 -16q-43 0 -67 23t-24 66q0 69 49 99t108 43q19 4 37.5 7.5t35.5 6.5v0zM143 104v-4v-4q2 -21 14.5 -39t36.5 -18q47 0 63 22t16 65v16.5t1 16.5v16.5v16.5q-1 7 -3.5 10t-10.5 3h-2.5
h-3.5q-40 -2 -74.5 -30t-36.5 -71v0zM75 542v1q0 10 7 19t16 17l9.5 9.5t7.5 8.5q1 2 2.5 3.5l3.5 3.5q4 4 8.5 7.5t8.5 3.5q6 0 10.5 -4t7.5 -8q2 -3 3.5 -5t2.5 -4t6.5 -8t12.5 -14q1 -1 2.5 -3t2.5 -3q6 -8 10 -14.5t4 -10.5v-1q0 -6 -3.5 -12.5t-8.5 -11.5l-2.5 -2.5
l-2.5 -2.5q-3 -4 -7 -9t-8 -11q-6 -8 -13 -15.5t-15 -8.5h-1q-5 0 -9.5 3.5t-8.5 8.5q-1 2 -2.5 3.5t-2.5 3.5q-3 4 -8 9l-10 10l-12 14t-9 14q-1 3 -1.5 5t-0.5 4v0zM245 542v1q0 9 7.5 18t15.5 18q5 4 9.5 8.5t7.5 9.5q1 2 2.5 3.5l3.5 3.5q4 4 8.5 7.5t8.5 3.5
q6 0 10.5 -4t7.5 -8q2 -3 3.5 -5t2.5 -4l6.5 -6.5t12.5 -13.5q2 -3 4 -5.5t4 -5.5q5 -6 8 -12t3 -10v-1q0 -6 -3.5 -12.5t-8.5 -11.5l-2.5 -2.5l-2.5 -2.5q-3 -4 -7 -9t-8 -11q-6 -8 -13 -15.5t-15 -8.5h-1q-5 0 -9.5 3.5t-8.5 8.5q-1 2 -2.5 3.5t-2.5 3.5q-3 4 -8 9l-10 10
l-12 14t-9 14q-1 3 -1.5 5t-0.5 4v0z" />
    <glyph glyph-name="aring" unicode="&#xe5;" horiz-adv-x="445" 
d="M270 233q2 10 4 19.5t2 19.5q0 5 -0.5 10.5t-1.5 11.5q-4 34 -24.5 62t-58.5 28q-19 0 -33 -9.5t-14 -30.5q0 -3 0.5 -6t0.5 -5q0 -3 0.5 -6t0.5 -6q0 -14 -13 -21t-29 -10q-9 -1 -18 -1.5t-15 -0.5h-1.5h-0.5q-7 1 -12 5.5t-5 11.5l6 24q6 34 36 53t65 26q14 3 28 4.5
t26 1.5q11 0 23 -1t24 -3q26 -4 50 -15t39 -31q16 -19 19 -42.5t3 -47.5q0 -23 -1 -45.5t-1 -45.5q-1 -23 -2 -45.5t-1 -45.5t8.5 -36.5t30.5 -13.5q5 0 9 1l8 2t8.5 2t8.5 1q2 0 4 -2t2 -4v-1q0 -4 -4.5 -9t-11.5 -11q-8 -6 -18 -11.5t-21 -9.5q-10 -4 -20.5 -6.5
t-18.5 -2.5q-26 0 -43.5 16.5t-28.5 37.5q-2 -1 -4 -2.5t-4 -2.5q-32 -20 -67 -36t-73 -16q-43 0 -67 23t-24 66q0 69 49 99t108 43q19 4 37.5 7.5t35.5 6.5v0zM143 104v-4v-4q2 -21 14.5 -39t36.5 -18q47 0 63 22t16 65v16.5t1 16.5v16.5v16.5q-1 7 -3.5 10t-10.5 3h-2.5
h-3.5q-40 -2 -74.5 -30t-36.5 -71v0zM126 543q0 37 26.5 63.5t63.5 26.5t63.5 -26.5t26.5 -63.5t-26.5 -63.5t-63.5 -26.5t-63.5 26.5t-26.5 63.5v0zM159 543q0 -23 17 -40t40 -17t40 17t17 40t-17 40t-40 17t-40 -17t-17 -40v0z" />
    <glyph glyph-name="ae" unicode="&#xe6;" horiz-adv-x="662" 
d="M345 364q24 23 53 36t62 13q5 0 9.5 -0.5t8.5 -0.5q60 -7 110.5 -53.5t50.5 -109.5q0 -9 -5 -12t-13 -3h-11h-209h-4.5h-4.5q-9 -1 -15.5 -4t-7.5 -13q0 -7 0.5 -14.5t1.5 -14.5q9 -50 42.5 -92.5t87.5 -46.5q20 0 38 3t36 11q4 2 10.5 6.5t13.5 9.5q1 1 2 1.5t2 1.5
l17.5 14l7.5 6h1h1.5h0.5q3 -1 6 -3.5t4 -4.5q1 -1 1 -2v-2q0 -5 -4.5 -11t-10.5 -13q-2 -2 -4.5 -5t-5.5 -5q-7 -7 -13 -12t-9 -8q-22 -18 -49.5 -30t-55.5 -16q-7 -1 -13 -1.5t-12 -0.5q-49 0 -89.5 19.5t-72.5 57.5q-1 -1 -2 -1.5t-2 -1.5q-36 -28 -78 -51.5t-90 -23.5
q-41 0 -63 25.5t-22 65.5q0 68 48.5 98t106.5 43q19 5 37 8t34 6q1 1 1.5 1h1.5q0 12 -0.5 25.5t-1.5 27.5q-4 37 -21 67.5t-60 30.5q-19 0 -32 -11.5t-13 -30.5v-6t1 -5q0 -3 0.5 -6t0.5 -6q0 -17 -13 -24t-29 -9q-8 -1 -15 -1.5t-13 -0.5h-2h-2q-7 1 -12.5 4.5t-5.5 11.5
t1.5 15t3.5 14q1 3 2 7t2 7q6 23 30.5 37.5t52.5 21.5q18 5 35 7.5t29 2.5q38 0 72.5 -10t59.5 -39v0zM147 103q0 -26 17 -43.5t43 -17.5q25 0 44 13.5t21 38.5q1 12 1.5 23.5t0.5 23.5v8v8q0 8 0.5 15.5t0.5 15.5t-2.5 13t-10.5 5h-4h-4q-40 -3 -73.5 -32.5t-33.5 -70.5v0z
M402 261h21.5h21.5q10 0 21 -0.5t21 -0.5h3.5h2.5h2.5h2.5q16 1 29 5.5t13 24.5v6t-1 6q-5 32 -29.5 58.5t-57.5 26.5q-34 0 -54.5 -26t-26.5 -57q-1 -7 -1.5 -13t-0.5 -12v-3v-4q1 -2 1.5 -4.5t2.5 -3.5q2 -2 4.5 -3t5.5 -1h2.5h2.5l14 1v0z" />
    <glyph glyph-name="ccedilla" unicode="&#xe7;" horiz-adv-x="396" 
d="M272 -127q0 -5 -1 -12t-3 -13q-10 -31 -37.5 -57.5t-58.5 -27.5h-1.5h-1.5h-1.5h-1.5q-3 0 -5.5 1.5t-3.5 5.5v0q0 5 7.5 10t16.5 12t16.5 15.5t7.5 20.5t-7 20.5t-16 16.5q-3 2 -6 4.5t-5 4.5q-5 5 -8.5 9.5t-3.5 10.5q0 4 4 9t10 10q5 4 9.5 7.5t9.5 6.5q9 6 17 9.5
t12 4.5q15 0 27 -13.5t19 -29.5q2 -6 3.5 -12.5t1.5 -11.5v-1zM33 188q0 98 70.5 161.5t164.5 63.5q7 0 15 -0.5t15 -1.5q23 -2 43.5 -11t33.5 -27q1 -1 2 -2.5t2 -2.5q4 -6 7 -12t5 -12q1 -3 1.5 -5.5t0.5 -5.5q0 -10 -8 -17.5t-17 -13.5q-5 -3 -9.5 -5.5t-8.5 -4.5
l-5 -2.5t-5 -3.5q-2 -1 -3.5 -2t-2.5 -2q-4 -2 -7 -3t-6 -1q-5 0 -8.5 3.5t-5.5 8.5q0 1 -0.5 3t-0.5 3v1.5v1.5q-3 31 -26.5 57.5t-56.5 26.5q-39 0 -60.5 -29t-29.5 -64q-3 -11 -4 -21.5t-1 -20.5q0 -15 1.5 -31t5.5 -33q11 -52 43 -96t90 -44q32 0 60.5 11t53.5 29
q1 0 1.5 0.5l0.5 0.5q1 1 2 1.5t2 0.5h1q3 0 4.5 -2t2.5 -5v-0.5v-1.5q-2 -23 -32 -42.5t-65 -32.5q-23 -7 -44 -11.5t-35 -4.5q-88 0 -137.5 59t-49.5 142v0z" />
    <glyph glyph-name="egrave" unicode="&#xe8;" horiz-adv-x="418" 
d="M33 191v10t1 10q6 74 55 136.5t128 66.5q7 0 14 -0.5t14 -1.5q59 -10 107.5 -53t48.5 -105q0 -11 -6.5 -14.5t-15.5 -3.5q-28 0 -56 -0.5t-56 -0.5q-29 -1 -57 -1.5t-56 -0.5q-8 0 -15 -2t-8 -13q0 -6 0.5 -11.5t0.5 -10.5q7 -55 43.5 -101t97.5 -46q7 0 14.5 0.5
t14.5 2.5q19 4 36.5 12t30.5 20q1 1 3 3.5t4 5.5q4 4 8 7t8 3q5 0 8.5 -2.5t3.5 -7.5t-3 -10t-7 -11q-3 -4 -7 -7.5t-8 -7.5q-6 -5 -11 -9.5t-9 -7.5q-28 -25 -62.5 -38.5t-72.5 -13.5q-88 0 -139.5 59.5t-51.5 143.5v0zM211 389q-31 0 -51.5 -24.5t-27.5 -53.5
q-2 -8 -3 -16t-1 -15q0 -14 8 -17t19 -3h12.5h13.5t13.5 0.5t12.5 0.5h11.5h13.5h6h6q21 1 39 6t18 22v5.5t-1 4.5q-3 34 -28 62t-61 28v0zM185 487l-79 78q-1 2 -3 3.5t-4 3.5q-4 4 -7 8.5t-3 9.5q0 8 6 13t14 6h2h2h30h3h3h2.5h2.5q11 0 20 -2t14 -13q4 -8 12 -20.5
t17 -26.5q1 -3 2.5 -5t2.5 -5q11 -17 19 -33.5t8 -25.5q0 -4 -3.5 -8t-8.5 -4q-11 3 -22 7.5t-21 9.5q-3 1 -5 2l-4 2v0z" />
    <glyph glyph-name="eacute" unicode="&#xe9;" horiz-adv-x="418" 
d="M33 191v10t1 10q6 74 55 136.5t128 66.5q7 0 14 -0.5t14 -1.5q59 -10 107.5 -53t48.5 -105q0 -11 -6.5 -14.5t-15.5 -3.5q-28 0 -56 -0.5t-56 -0.5q-29 -1 -57 -1.5t-56 -0.5q-8 0 -15 -2t-8 -13q0 -6 0.5 -11.5t0.5 -10.5q7 -55 43.5 -101t97.5 -46q7 0 14.5 0.5
t14.5 2.5q19 4 36.5 12t30.5 20q1 1 3 3.5t4 5.5q4 4 8 7t8 3q5 0 8.5 -2.5t3.5 -7.5t-3 -10t-7 -11q-3 -4 -7 -7.5t-8 -7.5q-6 -5 -11 -9.5t-9 -7.5q-28 -25 -62.5 -38.5t-72.5 -13.5q-88 0 -139.5 59.5t-51.5 143.5v0zM211 389q-31 0 -51.5 -24.5t-27.5 -53.5
q-2 -8 -3 -16t-1 -15q0 -14 8 -17t19 -3h12.5h13.5t13.5 0.5t12.5 0.5h11.5h13.5h6h6q21 1 39 6t18 22v5.5t-1 4.5q-3 34 -28 62t-61 28v0zM232 489q-13 -6 -25.5 -11.5t-26.5 -9.5q-5 0 -8 3.5t-3 8.5q0 9 4 17t10 16q1 3 3 5.5t3 4.5q10 16 16 29.5t11 23.5q9 16 20 25
t38 10h30h1.5h1.5q8 -1 15 -6t7 -14q0 -4 -2.5 -7.5t-5.5 -6.5l-10 -10l-79 -78v0z" />
    <glyph glyph-name="ecircumflex" unicode="&#xea;" horiz-adv-x="418" 
d="M33 191v10t1 10q6 74 55 136.5t128 66.5q7 0 14 -0.5t14 -1.5q59 -10 107.5 -53t48.5 -105q0 -11 -6.5 -14.5t-15.5 -3.5q-28 0 -56 -0.5t-56 -0.5q-29 -1 -57 -1.5t-56 -0.5q-8 0 -15 -2t-8 -13q0 -6 0.5 -11.5t0.5 -10.5q7 -55 43.5 -101t97.5 -46q7 0 14.5 0.5
t14.5 2.5q19 4 36.5 12t30.5 20q1 1 3 3.5t4 5.5q4 4 8 7t8 3q5 0 8.5 -2.5t3.5 -7.5t-3 -10t-7 -11q-3 -4 -7 -7.5t-8 -7.5q-6 -5 -11 -9.5t-9 -7.5q-28 -25 -62.5 -38.5t-72.5 -13.5q-88 0 -139.5 59.5t-51.5 143.5v0zM211 389q-31 0 -51.5 -24.5t-27.5 -53.5
q-2 -8 -3 -16t-1 -15q0 -14 8 -17t19 -3h12.5h13.5t13.5 0.5t12.5 0.5h11.5h13.5h6h6q21 1 39 6t18 22v5.5t-1 4.5q-3 34 -28 62t-61 28v0zM370 497v-1q0 -4 -3 -7t-7 -5q-1 -1 -2.5 -1.5t-2.5 -0.5q-5 -2 -10.5 -4t-11.5 -4q-4 -1 -7.5 -2.5t-7.5 -2.5q-7 -3 -14 -4.5
t-14 -1.5q-4 0 -14.5 8.5t-22.5 19.5q-2 1 -3.5 2.5l-2.5 2.5q-11 10 -20 19l-12 12l-2 2l-2 2q-2 2 -4 3.5t-5 1.5q-7 0 -16.5 -11t-18.5 -25q-1 0 -1.5 -0.5t-0.5 -1.5q-9 -12 -17.5 -22t-15.5 -11q-3 0 -9.5 1.5t-13.5 4.5q-6 2 -11.5 5t-8.5 6q-2 2 -3 3.5t-1 2.5
t0.5 2.5t0.5 2.5l2 4l2 4q1 0 1.5 1l0.5 1q9 10 18.5 20.5t18.5 20.5q9 11 18.5 21.5t18.5 20.5q8 8 13 13.5t10 8.5q6 4 12.5 5.5t16.5 1.5q27 0 49 -17t42 -37q7 -8 14 -15.5t14 -14.5q2 -1 6.5 -5.5l9.5 -9.5l1.5 -1.5l0.5 -0.5q6 -6 10 -10.5t5 -6.5v0z" />
    <glyph glyph-name="edieresis" unicode="&#xeb;" horiz-adv-x="418" 
d="M33 191v10t1 10q6 74 55 136.5t128 66.5q7 0 14 -0.5t14 -1.5q59 -10 107.5 -53t48.5 -105q0 -11 -6.5 -14.5t-15.5 -3.5q-28 0 -56 -0.5t-56 -0.5q-29 -1 -57 -1.5t-56 -0.5q-8 0 -15 -2t-8 -13q0 -6 0.5 -11.5t0.5 -10.5q7 -55 43.5 -101t97.5 -46q7 0 14.5 0.5
t14.5 2.5q19 4 36.5 12t30.5 20q1 1 3 3.5t4 5.5q4 4 8 7t8 3q5 0 8.5 -2.5t3.5 -7.5t-3 -10t-7 -11q-3 -4 -7 -7.5t-8 -7.5q-6 -5 -11 -9.5t-9 -7.5q-28 -25 -62.5 -38.5t-72.5 -13.5q-88 0 -139.5 59.5t-51.5 143.5v0zM211 389q-31 0 -51.5 -24.5t-27.5 -53.5
q-2 -8 -3 -16t-1 -15q0 -14 8 -17t19 -3h12.5h13.5t13.5 0.5t12.5 0.5h11.5h13.5h6h6q21 1 39 6t18 22v5.5t-1 4.5q-3 34 -28 62t-61 28v0zM75 542v1q0 10 7 19t16 17l9.5 9.5t7.5 8.5q1 2 2.5 3.5l3.5 3.5q4 4 8.5 7.5t8.5 3.5q6 0 10.5 -4t7.5 -8q2 -3 3.5 -5t2.5 -4
t6.5 -8t12.5 -14q1 -1 2.5 -3t2.5 -3q6 -8 10 -14.5t4 -10.5v-1q0 -6 -3.5 -12.5t-8.5 -11.5l-2.5 -2.5l-2.5 -2.5q-3 -4 -7 -9t-8 -11q-6 -8 -13 -15.5t-15 -8.5h-1q-5 0 -9.5 3.5t-8.5 8.5q-1 2 -2.5 3.5t-2.5 3.5q-3 4 -8 9l-10 10l-12 14t-9 14q-1 3 -1.5 5t-0.5 4v0z
M245 542v1q0 9 7.5 18t15.5 18q5 4 9.5 8.5t7.5 9.5q1 2 2.5 3.5l3.5 3.5q4 4 8.5 7.5t8.5 3.5q6 0 10.5 -4t7.5 -8q2 -3 3.5 -5t2.5 -4l6.5 -6.5t12.5 -13.5q2 -3 4 -5.5t4 -5.5q5 -6 8 -12t3 -10v-1q0 -6 -3.5 -12.5t-8.5 -11.5l-2.5 -2.5l-2.5 -2.5q-3 -4 -7 -9t-8 -11
q-6 -8 -13 -15.5t-15 -8.5h-1q-5 0 -9.5 3.5t-8.5 8.5q-1 2 -2.5 3.5t-2.5 3.5q-3 4 -8 9l-10 10l-12 14t-9 14q-1 3 -1.5 5t-0.5 4v0z" />
    <glyph glyph-name="igrave" unicode="&#xec;" horiz-adv-x="286" 
d="M190 392v-277q0 -40 13.5 -63.5t56.5 -28.5h1.5h0.5q6 -1 10.5 -4t4.5 -8q0 -6 -6.5 -8.5t-13.5 -2.5h-6h-6q-13 0 -26 1t-26 3q-14 1 -27 2.5t-26 1.5q-11 0 -21.5 -1.5t-21.5 -2.5q-11 -2 -21.5 -3t-21.5 -1q-4 0 -6 1t-4 4q0 1 0.5 2t0.5 2q2 5 9 10.5t15 13.5
q9 9 16.5 24.5t7.5 39.5l-1 17v166v4v4q-1 22 -8 40.5t-35 18.5h-1.5h-1.5q-5 0 -10 1.5t-6 7.5q0 9 6.5 13t13.5 5q3 1 5.5 1.5t4.5 0.5q31 7 61 18t55 30q1 0 1.5 0.5t1.5 0.5q1 1 2 1.5t2 0.5q5 0 6.5 -2t1.5 -7v-6.5v-6.5q-1 -3 -1 -6.5v-6.5v0zM123 487l-79 78
q-1 2 -3 3.5t-4 3.5q-4 4 -7 8.5t-3 9.5q0 8 6 13t14 6h2h2h30h3h3h2.5h2.5q11 0 20 -2t14 -13q4 -8 12 -20.5t17 -26.5q1 -3 2.5 -5t2.5 -5q11 -17 19 -33.5t8 -25.5q0 -4 -3.5 -8t-8.5 -4q-11 3 -22 7.5t-21 9.5q-3 1 -5 2l-4 2v0z" />
    <glyph glyph-name="iacute" unicode="&#xed;" horiz-adv-x="286" 
d="M190 392v-277q0 -40 13.5 -63.5t56.5 -28.5h1.5h0.5q6 -1 10.5 -4t4.5 -8q0 -6 -6.5 -8.5t-13.5 -2.5h-6h-6q-13 0 -26 1t-26 3q-14 1 -27 2.5t-26 1.5q-11 0 -21.5 -1.5t-21.5 -2.5q-11 -2 -21.5 -3t-21.5 -1q-4 0 -6 1t-4 4q0 1 0.5 2t0.5 2q2 5 9 10.5t15 13.5
q9 9 16.5 24.5t7.5 39.5l-1 17v166v4v4q-1 22 -8 40.5t-35 18.5h-1.5h-1.5q-5 0 -10 1.5t-6 7.5q0 9 6.5 13t13.5 5q3 1 5.5 1.5t4.5 0.5q31 7 61 18t55 30q1 0 1.5 0.5t1.5 0.5q1 1 2 1.5t2 0.5q5 0 6.5 -2t1.5 -7v-6.5v-6.5q-1 -3 -1 -6.5v-6.5v0zM143 489
q-13 -6 -25.5 -11.5t-26.5 -9.5q-5 0 -8 3.5t-3 8.5q0 9 4 17t10 16q1 3 3 5.5t3 4.5q10 16 16 29.5t11 23.5q9 16 20 25t38 10h30h1.5h1.5q8 -1 15 -6t7 -14q0 -4 -2.5 -7.5t-5.5 -6.5l-10 -10l-79 -78v0z" />
    <glyph glyph-name="icircumflex" unicode="&#xee;" horiz-adv-x="286" 
d="M190 392v-277q0 -40 13.5 -63.5t56.5 -28.5h1.5h0.5q6 -1 10.5 -4t4.5 -8q0 -6 -6.5 -8.5t-13.5 -2.5h-6h-6q-13 0 -26 1t-26 3q-14 1 -27 2.5t-26 1.5q-11 0 -21.5 -1.5t-21.5 -2.5q-11 -2 -21.5 -3t-21.5 -1q-4 0 -6 1t-4 4q0 1 0.5 2t0.5 2q2 5 9 10.5t15 13.5
q9 9 16.5 24.5t7.5 39.5l-1 17v166v4v4q-1 22 -8 40.5t-35 18.5h-1.5h-1.5q-5 0 -10 1.5t-6 7.5q0 9 6.5 13t13.5 5q3 1 5.5 1.5t4.5 0.5q31 7 61 18t55 30q1 0 1.5 0.5t1.5 0.5q1 1 2 1.5t2 0.5q5 0 6.5 -2t1.5 -7v-6.5v-6.5q-1 -3 -1 -6.5v-6.5v0zM290 497v-1q0 -4 -3 -7
t-7 -5q-1 -1 -2.5 -1.5t-2.5 -0.5q-5 -2 -10.5 -4t-11.5 -4q-4 -1 -7.5 -2.5t-7.5 -2.5q-7 -3 -14 -4.5t-14 -1.5q-4 0 -14.5 8.5t-22.5 19.5q-2 1 -3.5 2.5l-2.5 2.5q-11 10 -20 19l-12 12l-2 2l-2 2q-2 2 -4 3.5t-5 1.5q-7 0 -16.5 -11t-18.5 -25q-1 0 -1.5 -0.5
t-0.5 -1.5q-9 -12 -17.5 -22t-15.5 -11q-3 0 -9.5 1.5t-13.5 4.5q-6 2 -11.5 5t-8.5 6q-2 2 -3 3.5t-1 2.5t0.5 2.5t0.5 2.5l2 4l2 4q1 0 1.5 1l0.5 1q9 10 18.5 20.5t18.5 20.5q9 11 18.5 21.5t18.5 20.5q8 8 13 13.5t10 8.5q6 4 12.5 5.5t16.5 1.5q27 0 49 -17t42 -37
q7 -8 14 -15.5t14 -14.5q2 -1 6.5 -5.5l9.5 -9.5l1.5 -1.5l0.5 -0.5q6 -6 10 -10.5t5 -6.5v0z" />
    <glyph glyph-name="idieresis" unicode="&#xef;" horiz-adv-x="286" 
d="M190 392v-277q0 -40 13.5 -63.5t56.5 -28.5h1.5h0.5q6 -1 10.5 -4t4.5 -8q0 -6 -6.5 -8.5t-13.5 -2.5h-6h-6q-13 0 -26 1t-26 3q-14 1 -27 2.5t-26 1.5q-11 0 -21.5 -1.5t-21.5 -2.5q-11 -2 -21.5 -3t-21.5 -1q-4 0 -6 1t-4 4q0 1 0.5 2t0.5 2q2 5 9 10.5t15 13.5
q9 9 16.5 24.5t7.5 39.5l-1 17v166v4v4q-1 22 -8 40.5t-35 18.5h-1.5h-1.5q-5 0 -10 1.5t-6 7.5q0 9 6.5 13t13.5 5q3 1 5.5 1.5t4.5 0.5q31 7 61 18t55 30q1 0 1.5 0.5t1.5 0.5q1 1 2 1.5t2 0.5q5 0 6.5 -2t1.5 -7v-6.5v-6.5q-1 -3 -1 -6.5v-6.5v0zM-19 542v1q1 10 8 19
t15 17l9.5 9.5t7.5 8.5q1 2 2.5 3.5l3.5 3.5q4 4 8.5 7.5t8.5 3.5q6 0 10.5 -4t7.5 -8q2 -3 3.5 -5t2.5 -4t6.5 -8t12.5 -14q1 -1 2.5 -3t2.5 -3q6 -8 10 -14.5t4 -10.5v-1q0 -6 -3.5 -12.5t-8.5 -11.5l-2.5 -2.5l-2.5 -2.5q-3 -4 -7 -9t-8 -11q-6 -8 -13 -15.5t-15 -8.5h-1
q-5 0 -9.5 3.5t-8.5 8.5q-1 2 -2.5 3.5t-2.5 3.5q-3 4 -8 9l-10 10q-5 7 -11 14t-9 14q-1 3 -1.5 5t-0.5 4h-1zM151 542v1q0 9 7.5 18t15.5 18q5 4 9.5 8.5t7.5 9.5q1 2 2.5 3.5l3.5 3.5q4 4 8.5 7.5t8.5 3.5q6 0 10.5 -4t7.5 -8q2 -3 3.5 -5t2.5 -4l6.5 -6.5t12.5 -13.5
q2 -3 4 -5.5t4 -5.5q5 -6 8 -12t3 -10v-1q0 -6 -3.5 -12.5t-8.5 -11.5l-2.5 -2.5l-2.5 -2.5q-3 -4 -7 -9t-8 -11q-6 -8 -13 -15.5t-15 -8.5h-1q-5 0 -9.5 3.5t-8.5 8.5q-1 2 -2.5 3.5t-2.5 3.5q-3 4 -8 9l-10 10l-12 14t-9 14q-1 3 -1.5 5t-0.5 4v0z" />
    <glyph glyph-name="eth" unicode="&#xf0;" horiz-adv-x="505" 
d="M158 594q-24 16 -50 28t-54 20q-5 2 -8.5 4.5t-3.5 8.5t4.5 10.5t9.5 4.5q14 0 29.5 -3.5t31.5 -9.5q14 -5 28 -11t26 -12q6 -3 12.5 -6.5t11.5 -6.5l87 55l4 2t4 3q4 2 8.5 4.5t8.5 2.5h1q5 0 9.5 -5t4.5 -11q-1 -5 -5 -9.5t-9 -7.5q-3 -2 -5 -3.5t-4 -2.5l-73 -45
q104 -62 175 -164t71 -227q0 -95 -66 -160t-161 -65q-84 0 -148 57t-64 143q0 87 60.5 157.5t151.5 70.5q17 0 31.5 -3t29.5 -8q7 -2 14.5 -5t14.5 -6q-27 58 -63.5 100t-86.5 80q-5 -3 -18.5 -12t-29.5 -19q-2 -1 -3.5 -2.5t-3.5 -2.5q-17 -11 -32.5 -19.5t-21.5 -8.5
q-5 0 -9 4t-5 9v0.5v1.5v1q1 5 12.5 14t25.5 18l6 4t5 4q15 9 28.5 17t18.5 11v0zM131 240q0 -18 3 -40t9 -44q14 -53 47.5 -97.5t88.5 -44.5q47 0 71.5 34.5t29.5 75.5q1 6 1.5 12.5t0.5 12.5q0 19 -2 41t-7 44q-12 59 -45.5 107.5t-96.5 48.5q-44 0 -66.5 -33t-29.5 -72
q-2 -11 -3 -22.5t-1 -22.5v0z" />
    <glyph glyph-name="ntilde" unicode="&#xf1;" horiz-adv-x="565" 
d="M480 206v-81q0 -40 10 -66t54 -34q6 0 11 -2.5t5 -9.5t-6.5 -10t-13.5 -3h-6h-6q-11 0 -22 1l-22 2q-12 2 -23 3t-22 1q-13 0 -26 -1t-25 -2q-12 -2 -23 -3t-20 -1q-4 0 -7 3t-4 7q0 3 2 5.5t5 4.5q4 2 8 4.5t9 5.5q8 7 15.5 21t7.5 41v122q0 9 -0.5 18.5t-2.5 19.5
q-6 40 -28 73t-68 33q-35 0 -63 -22t-28 -59v-163q0 -39 15.5 -63.5t58.5 -26.5q5 -1 8.5 -2.5t4.5 -6.5q0 -7 -4 -11t-12 -4q-15 0 -30 1t-29 3q-15 1 -30 2.5t-30 1.5q-10 0 -20.5 -1t-20.5 -2q-11 -2 -21 -3t-21 -1h-1.5h-0.5q-5 0 -9 1.5t-4 8.5q0 2 1.5 4t3.5 4
q4 3 8.5 5.5t10.5 7.5q8 8 15.5 23t7.5 43v172v19v11t-1 12q-1 14 -7.5 26.5t-23.5 12.5h-1h-23q-4 0 -6.5 2.5t-2.5 6.5q0 11 9 15.5t19 6.5q3 1 6 1.5t6 1.5q3 0 5.5 0.5t4.5 1.5q27 6 53 16t49 27q1 1 2.5 1.5t2.5 0.5q4 0 5.5 -2t1.5 -6v-25.5t-2 -25.5v-5.5t1 -7.5
q0 -5 2 -9.5t6 -4.5t13 10.5t26 23.5q16 13 39.5 23.5t56.5 10.5q97 0 122 -64t25 -144v0zM227 588q18 0 35 -6t33 -13q16 -8 33 -14t35 -6h2.5h2.5q13 1 24 7.5t18 17.5l1.5 1.5l0.5 0.5q1 2 2.5 3t2.5 1h1q1 0 3 -0.5t4 -1.5q1 -1 2.5 -1.5t2.5 -1.5l2 -2t1 -2
q0 -6 -3 -13.5t-8 -14.5q-8 -12 -21 -23.5t-27 -19.5q-10 -6 -19.5 -9.5t-17.5 -3.5q-18 0 -35 6t-33 13q-1 0 -2 0.5t-2 0.5q-15 7 -31 12.5t-33 5.5q-15 0 -24 -6t-14 -14q-3 -4 -5 -8t-4 -7q-2 -2 -4 -3.5t-4 -1.5h-1q-1 1 -2.5 1.5t-2.5 1.5q-3 1 -5 2.5t-3 3.5v1
q0 1 0.5 2.5t0.5 2.5l0.5 0.5t0.5 1.5t0.5 1.5t0.5 1.5q6 9 10.5 17.5t8.5 16.5q11 20 25.5 33.5t47.5 15.5v0z" />
    <glyph glyph-name="ograve" unicode="&#xf2;" horiz-adv-x="507" 
d="M33 186q0 96 66.5 162t161.5 66q85 0 148.5 -57.5t63.5 -144.5q0 -97 -65 -160.5t-162 -63.5q-85 0 -149 55t-64 143v0zM132 239q0 -18 3 -40t9 -44q14 -53 47.5 -97.5t87.5 -44.5q48 0 73 35.5t30 77.5q0 6 0.5 11.5t0.5 11.5q0 19 -2.5 41t-7.5 44q-13 58 -46.5 105.5
t-94.5 47.5q-44 0 -66.5 -33t-29.5 -72q-2 -11 -3 -22t-1 -21v0zM229 487l-79 78q-1 2 -3 3.5t-4 3.5q-4 4 -7 8.5t-3 9.5q0 8 6 13t14 6h2h2h30h3h3h2.5h2.5q11 0 20 -2t14 -13q4 -8 12 -20.5t17 -26.5q1 -3 2.5 -5t2.5 -5q11 -17 19 -33.5t8 -25.5q0 -4 -3.5 -8t-8.5 -4
q-11 3 -22 7.5t-21 9.5q-3 1 -5 2l-4 2v0z" />
    <glyph glyph-name="oacute" unicode="&#xf3;" horiz-adv-x="507" 
d="M33 186q0 96 66.5 162t161.5 66q85 0 148.5 -57.5t63.5 -144.5q0 -97 -65 -160.5t-162 -63.5q-85 0 -149 55t-64 143v0zM132 239q0 -18 3 -40t9 -44q14 -53 47.5 -97.5t87.5 -44.5q48 0 73 35.5t30 77.5q0 6 0.5 11.5t0.5 11.5q0 19 -2.5 41t-7.5 44q-13 58 -46.5 105.5
t-94.5 47.5q-44 0 -66.5 -33t-29.5 -72q-2 -11 -3 -22t-1 -21v0zM276 489q-13 -6 -25.5 -11.5t-26.5 -9.5q-5 0 -8 3.5t-3 8.5q0 9 4 17t10 16q1 3 3 5.5t3 4.5q10 16 16 29.5t11 23.5q9 16 20 25t38 10h30h1.5h1.5q8 -1 15 -6t7 -14q0 -4 -2.5 -7.5t-5.5 -6.5l-10 -10
l-79 -78v0z" />
    <glyph glyph-name="ocircumflex" unicode="&#xf4;" horiz-adv-x="507" 
d="M33 186q0 96 66.5 162t161.5 66q85 0 148.5 -57.5t63.5 -144.5q0 -97 -65 -160.5t-162 -63.5q-85 0 -149 55t-64 143v0zM132 239q0 -18 3 -40t9 -44q14 -53 47.5 -97.5t87.5 -44.5q48 0 73 35.5t30 77.5q0 6 0.5 11.5t0.5 11.5q0 19 -2.5 41t-7.5 44q-13 58 -46.5 105.5
t-94.5 47.5q-44 0 -66.5 -33t-29.5 -72q-2 -11 -3 -22t-1 -21v0zM395 497v-1q0 -4 -3 -7t-7 -5q-1 -1 -2.5 -1.5t-2.5 -0.5q-5 -2 -10.5 -4t-11.5 -4q-4 -1 -7.5 -2.5t-7.5 -2.5q-7 -3 -14 -4.5t-14 -1.5q-4 0 -14.5 8.5t-22.5 19.5q-2 1 -3.5 2.5l-2.5 2.5q-11 10 -20 19
l-12 12l-2 2l-2 2q-2 2 -4 3.5t-5 1.5q-7 0 -16.5 -11t-18.5 -25q-1 0 -1.5 -0.5t-0.5 -1.5q-9 -12 -17.5 -22t-15.5 -11q-3 0 -9.5 1.5t-13.5 4.5q-6 2 -11.5 5t-8.5 6q-2 2 -3 3.5t-1 2.5t0.5 2.5t0.5 2.5l2 4l2 4q1 0 1.5 1l0.5 1q9 10 18.5 20.5t18.5 20.5
q9 11 18.5 21.5t18.5 20.5q8 8 13 13.5t10 8.5q6 4 12.5 5.5t16.5 1.5q27 0 49 -17t42 -37q7 -8 14 -15.5t14 -14.5q2 -1 6.5 -5.5l9.5 -9.5l1.5 -1.5l0.5 -0.5q6 -6 10 -10.5t5 -6.5v0z" />
    <glyph glyph-name="otilde" unicode="&#xf5;" horiz-adv-x="507" 
d="M33 186q0 96 66.5 162t161.5 66q85 0 148.5 -57.5t63.5 -144.5q0 -97 -65 -160.5t-162 -63.5q-85 0 -149 55t-64 143v0zM132 239q0 -18 3 -40t9 -44q14 -53 47.5 -97.5t87.5 -44.5q48 0 73 35.5t30 77.5q0 6 0.5 11.5t0.5 11.5q0 19 -2.5 41t-7.5 44q-13 58 -46.5 105.5
t-94.5 47.5q-44 0 -66.5 -33t-29.5 -72q-2 -11 -3 -22t-1 -21v0zM198 588q18 0 35 -6t33 -13q16 -8 33 -14t35 -6h2.5h2.5q13 1 24 7.5t18 17.5l1.5 1.5l0.5 0.5q1 2 2.5 3t2.5 1h1q1 0 3 -0.5t4 -1.5q1 -1 2.5 -1.5t2.5 -1.5l2 -2t1 -2q0 -6 -3 -13.5t-8 -14.5
q-8 -12 -21 -23.5t-27 -19.5q-10 -6 -19.5 -9.5t-17.5 -3.5q-18 0 -35 6t-33 13q-1 0 -2 0.5t-2 0.5q-15 7 -31 12.5t-33 5.5q-15 0 -24 -6t-14 -14q-3 -4 -5 -8t-4 -7q-2 -2 -4 -3.5t-4 -1.5h-1q-1 1 -2.5 1.5t-2.5 1.5q-3 1 -5 2.5t-3 3.5v1q0 1 0.5 2.5t0.5 2.5l0.5 0.5
t0.5 1.5t0.5 1.5t0.5 1.5q6 9 10.5 17.5t8.5 16.5q11 20 25.5 33.5t47.5 15.5v0z" />
    <glyph glyph-name="odieresis" unicode="&#xf6;" horiz-adv-x="507" 
d="M33 186q0 96 66.5 162t161.5 66q85 0 148.5 -57.5t63.5 -144.5q0 -97 -65 -160.5t-162 -63.5q-85 0 -149 55t-64 143v0zM132 239q0 -18 3 -40t9 -44q14 -53 47.5 -97.5t87.5 -44.5q48 0 73 35.5t30 77.5q0 6 0.5 11.5t0.5 11.5q0 19 -2.5 41t-7.5 44q-13 58 -46.5 105.5
t-94.5 47.5q-44 0 -66.5 -33t-29.5 -72q-2 -11 -3 -22t-1 -21v0zM106 542v1q0 10 7 19t16 17l9.5 9.5t7.5 8.5q1 2 2.5 3.5l3.5 3.5q4 4 8.5 7.5t8.5 3.5q6 0 10.5 -4t7.5 -8q2 -3 3.5 -5t2.5 -4t6.5 -8t12.5 -14q1 -1 2.5 -3t2.5 -3q6 -8 10 -14.5t4 -10.5v-1
q0 -6 -3.5 -12.5t-8.5 -11.5l-2.5 -2.5l-2.5 -2.5q-3 -4 -7 -9t-8 -11q-6 -8 -13 -15.5t-15 -8.5h-1q-5 0 -9.5 3.5t-8.5 8.5q-1 2 -2.5 3.5t-2.5 3.5q-3 4 -8 9l-10 10l-12 14t-9 14q-1 3 -1.5 5t-0.5 4v0zM276 542v1q0 9 7.5 18t15.5 18q5 4 9.5 8.5t7.5 9.5q1 2 2.5 3.5
l3.5 3.5q4 4 8.5 7.5t8.5 3.5q6 0 10.5 -4t7.5 -8q2 -3 3.5 -5t2.5 -4l6.5 -6.5t12.5 -13.5q2 -3 4 -5.5t4 -5.5q5 -6 8 -12t3 -10v-1q0 -6 -3.5 -12.5t-8.5 -11.5l-2.5 -2.5l-2.5 -2.5q-3 -4 -7 -9t-8 -11q-6 -8 -13 -15.5t-15 -8.5h-1q-5 0 -9.5 3.5t-8.5 8.5
q-1 2 -2.5 3.5t-2.5 3.5q-3 4 -8 9l-10 10l-12 14t-9 14q-1 3 -1.5 5t-0.5 4v0z" />
    <glyph glyph-name="divide" unicode="&#xf7;" horiz-adv-x="500" 
d="M250 218q20 0 33.5 -13.5t13.5 -33.5q0 -19 -14 -33.5t-33 -14.5t-33.5 14.5t-14.5 33.5q0 20 14.5 33.5t33.5 13.5v0zM16 378h467v-57h-467v57v0zM250 575q20 0 34 -13.5t14 -33.5q0 -19 -14 -33.5t-34 -14.5q-19 0 -33.5 14.5t-14.5 33.5q0 20 14.5 33.5t33.5 13.5v0z
" />
    <glyph glyph-name="oslash" unicode="&#xf8;" horiz-adv-x="504" 
d="M392 376l43 47q1 1 1.5 2t1.5 1q2 2 4.5 4t4.5 2h2h2q6 -2 11 -6.5t5 -10.5q0 -4 -2.5 -7.5t-5.5 -6.5l-43 -46q25 -30 40.5 -65.5t15.5 -75.5q0 -97 -64.5 -161.5t-162.5 -64.5q-35 0 -67 10.5t-61 29.5q-4 -4 -12 -14t-18 -19q-1 -2 -2.5 -3.5l-2.5 -2.5
q-10 -12 -19.5 -21t-14.5 -10h-2h-2q-6 2 -11 6.5t-5 10.5t7.5 15.5t17.5 20.5l4.5 4.5l4.5 4.5q10 9 18.5 17t12.5 13q-27 31 -43 64t-16 75q0 96 65 160.5t161 64.5q36 0 68.5 -9t63.5 -29v0zM172 88q20 -29 44.5 -50t61.5 -21q50 0 74 36t28 79q1 5 1 9.5v9.5
q0 7 -0.5 14t-0.5 14q-2 27 -8.5 54.5t-16.5 53.5l-183 -199v0zM340 319q-17 32 -44 51.5t-64 19.5q-44 0 -66.5 -33t-29.5 -72q-2 -11 -3 -22.5t-1 -21.5q0 -8 0.5 -15.5t1.5 -15.5q2 -23 7.5 -46t15.5 -44l183 199v0z" />
    <glyph glyph-name="ugrave" unicode="&#xf9;" horiz-adv-x="542" 
d="M455 407v-284v-18q0 -41 7.5 -55t48.5 -14h6q9 0 12.5 -2t3.5 -10q0 -7 -6 -10t-13 -5q-4 0 -7.5 -0.5t-6.5 -0.5q-21 0 -40.5 -2.5t-36.5 -4.5t-31.5 -4.5t-26.5 -2.5q-4 1 -5.5 3.5t-2.5 6.5v2.5v2.5v10t1 10v10v10v2v1l-2 4t-3 2q-3 0 -14 -11t-29 -24
q-18 -14 -41 -24.5t-50 -10.5q-82 0 -114 46t-32 120q0 12 0.5 24.5t1.5 24.5q1 36 2 72.5t1 73.5q0 21 -9.5 27.5t-21.5 8.5q-2 0 -4 0.5t-5 0.5q-9 0 -15.5 2t-6.5 11q0 8 22 12t48 7q16 1 31 2.5l25 2.5q5 0 8 0.5t5 1.5t4.5 1.5t5.5 1.5q2 0 4.5 0.5t4.5 0.5h1q5 0 7 -3
t2 -8q0 -20 -1 -41l-2 -42q-1 -22 -2 -43.5t-1 -43.5v-48v-21t1 -22q2 -43 19 -78.5t70 -35.5q45 0 67 28t22 70v170v12q0 36 -7.5 48.5t-43.5 16.5q-1 0 -2.5 0.5t-2.5 0.5q-4 2 -7 4.5t-3 6.5q0 11 14.5 14t36.5 3h9h18t17 1q14 0 27 2.5t26 6.5q2 1 4.5 1.5t4.5 0.5h1
q5 0 6 -3.5t1 -8.5q-1 -2 -1 -4.5v-5.5v0zM251 487l-79 78q-1 2 -3 3.5t-4 3.5q-4 4 -7 8.5t-3 9.5q0 8 6 13t14 6h2h2h30h3h3h2.5h2.5q11 0 20 -2t14 -13q4 -8 12 -20.5t17 -26.5q1 -3 2.5 -5t2.5 -5q11 -17 19 -33.5t8 -25.5q0 -4 -3.5 -8t-8.5 -4q-11 3 -22 7.5t-21 9.5
q-3 1 -5 2l-4 2v0z" />
    <glyph glyph-name="uacute" unicode="&#xfa;" horiz-adv-x="542" 
d="M455 407v-284v-18q0 -41 7.5 -55t48.5 -14h6q9 0 12.5 -2t3.5 -10q0 -7 -6 -10t-13 -5q-4 0 -7.5 -0.5t-6.5 -0.5q-21 0 -40.5 -2.5t-36.5 -4.5t-31.5 -4.5t-26.5 -2.5q-4 1 -5.5 3.5t-2.5 6.5v2.5v2.5v10t1 10v10v10v2v1l-2 4t-3 2q-3 0 -14 -11t-29 -24
q-18 -14 -41 -24.5t-50 -10.5q-82 0 -114 46t-32 120q0 12 0.5 24.5t1.5 24.5q1 36 2 72.5t1 73.5q0 21 -9.5 27.5t-21.5 8.5q-2 0 -4 0.5t-5 0.5q-9 0 -15.5 2t-6.5 11q0 8 22 12t48 7q16 1 31 2.5l25 2.5q5 0 8 0.5t5 1.5t4.5 1.5t5.5 1.5q2 0 4.5 0.5t4.5 0.5h1q5 0 7 -3
t2 -8q0 -20 -1 -41l-2 -42q-1 -22 -2 -43.5t-1 -43.5v-48v-21t1 -22q2 -43 19 -78.5t70 -35.5q45 0 67 28t22 70v170v12q0 36 -7.5 48.5t-43.5 16.5q-1 0 -2.5 0.5t-2.5 0.5q-4 2 -7 4.5t-3 6.5q0 11 14.5 14t36.5 3h9h18t17 1q14 0 27 2.5t26 6.5q2 1 4.5 1.5t4.5 0.5h1
q5 0 6 -3.5t1 -8.5q-1 -2 -1 -4.5v-5.5v0zM297 489q-13 -6 -25.5 -11.5t-26.5 -9.5q-5 0 -8 3.5t-3 8.5q0 9 4 17t10 16q1 3 3 5.5t3 4.5q10 16 16 29.5t11 23.5q9 16 20 25t38 10h30h1.5h1.5q8 -1 15 -6t7 -14q0 -4 -2.5 -7.5t-5.5 -6.5l-10 -10l-79 -78v0z" />
    <glyph glyph-name="ucircumflex" unicode="&#xfb;" horiz-adv-x="542" 
d="M455 407v-284v-18q0 -41 7.5 -55t48.5 -14h6q9 0 12.5 -2t3.5 -10q0 -7 -6 -10t-13 -5q-4 0 -7.5 -0.5t-6.5 -0.5q-21 0 -40.5 -2.5t-36.5 -4.5t-31.5 -4.5t-26.5 -2.5q-4 1 -5.5 3.5t-2.5 6.5v2.5v2.5v10t1 10v10v10v2v1l-2 4t-3 2q-3 0 -14 -11t-29 -24
q-18 -14 -41 -24.5t-50 -10.5q-82 0 -114 46t-32 120q0 12 0.5 24.5t1.5 24.5q1 36 2 72.5t1 73.5q0 21 -9.5 27.5t-21.5 8.5q-2 0 -4 0.5t-5 0.5q-9 0 -15.5 2t-6.5 11q0 8 22 12t48 7q16 1 31 2.5l25 2.5q5 0 8 0.5t5 1.5t4.5 1.5t5.5 1.5q2 0 4.5 0.5t4.5 0.5h1q5 0 7 -3
t2 -8q0 -20 -1 -41l-2 -42q-1 -22 -2 -43.5t-1 -43.5v-48v-21t1 -22q2 -43 19 -78.5t70 -35.5q45 0 67 28t22 70v170v12q0 36 -7.5 48.5t-43.5 16.5q-1 0 -2.5 0.5t-2.5 0.5q-4 2 -7 4.5t-3 6.5q0 11 14.5 14t36.5 3h9h18t17 1q14 0 27 2.5t26 6.5q2 1 4.5 1.5t4.5 0.5h1
q5 0 6 -3.5t1 -8.5q-1 -2 -1 -4.5v-5.5v0zM417 497v-1q0 -4 -3 -7t-7 -5q-1 -1 -2.5 -1.5t-2.5 -0.5q-5 -2 -10.5 -4t-11.5 -4q-4 -1 -7.5 -2.5t-7.5 -2.5q-7 -3 -14 -4.5t-14 -1.5q-4 0 -14.5 8.5t-22.5 19.5q-2 1 -3.5 2.5l-2.5 2.5q-11 10 -20 19l-12 12l-2 2l-2 2
q-2 2 -4 3.5t-5 1.5q-7 0 -16.5 -11t-18.5 -25q-1 0 -1.5 -0.5t-0.5 -1.5q-9 -12 -17.5 -22t-15.5 -11q-3 0 -9.5 1.5t-13.5 4.5q-6 2 -11.5 5t-8.5 6q-2 2 -3 3.5t-1 2.5t0.5 2.5t0.5 2.5l2 4l2 4q1 0 1.5 1l0.5 1q9 10 18.5 20.5t18.5 20.5q9 11 18.5 21.5t18.5 20.5
q8 8 13 13.5t10 8.5q6 4 12.5 5.5t16.5 1.5q27 0 49 -17t42 -37q7 -8 14 -15.5t14 -14.5q2 -1 6.5 -5.5l9.5 -9.5l1.5 -1.5l0.5 -0.5q6 -6 10 -10.5t5 -6.5v0z" />
    <glyph glyph-name="udieresis" unicode="&#xfc;" horiz-adv-x="542" 
d="M455 407v-284v-18q0 -41 7.5 -55t48.5 -14h6q9 0 12.5 -2t3.5 -10q0 -7 -6 -10t-13 -5q-4 0 -7.5 -0.5t-6.5 -0.5q-21 0 -40.5 -2.5t-36.5 -4.5t-31.5 -4.5t-26.5 -2.5q-4 1 -5.5 3.5t-2.5 6.5v2.5v2.5v10t1 10v10v10v2v1l-2 4t-3 2q-3 0 -14 -11t-29 -24
q-18 -14 -41 -24.5t-50 -10.5q-82 0 -114 46t-32 120q0 12 0.5 24.5t1.5 24.5q1 36 2 72.5t1 73.5q0 21 -9.5 27.5t-21.5 8.5q-2 0 -4 0.5t-5 0.5q-9 0 -15.5 2t-6.5 11q0 8 22 12t48 7q16 1 31 2.5l25 2.5q5 0 8 0.5t5 1.5t4.5 1.5t5.5 1.5q2 0 4.5 0.5t4.5 0.5h1q5 0 7 -3
t2 -8q0 -20 -1 -41l-2 -42q-1 -22 -2 -43.5t-1 -43.5v-48v-21t1 -22q2 -43 19 -78.5t70 -35.5q45 0 67 28t22 70v170v12q0 36 -7.5 48.5t-43.5 16.5q-1 0 -2.5 0.5t-2.5 0.5q-4 2 -7 4.5t-3 6.5q0 11 14.5 14t36.5 3h9h18t17 1q14 0 27 2.5t26 6.5q2 1 4.5 1.5t4.5 0.5h1
q5 0 6 -3.5t1 -8.5q-1 -2 -1 -4.5v-5.5v0zM127 542v1q0 10 7 19t16 17l9.5 9.5t7.5 8.5q1 2 2.5 3.5l3.5 3.5q4 4 8.5 7.5t8.5 3.5q6 0 10.5 -4t7.5 -8q2 -3 3.5 -5t2.5 -4t6.5 -8t12.5 -14q1 -1 2.5 -3t2.5 -3q6 -8 10 -14.5t4 -10.5v-1q0 -6 -3.5 -12.5t-8.5 -11.5
l-2.5 -2.5l-2.5 -2.5q-3 -4 -7 -9t-8 -11q-6 -8 -13 -15.5t-15 -8.5h-1q-5 0 -9.5 3.5t-8.5 8.5q-1 2 -2.5 3.5t-2.5 3.5q-3 4 -8 9l-10 10l-12 14t-9 14q-1 3 -1.5 5t-0.5 4v0zM297 542v1q0 9 7.5 18t15.5 18q5 4 9.5 8.5t7.5 9.5q1 2 2.5 3.5l3.5 3.5q4 4 8.5 7.5t8.5 3.5
q6 0 10.5 -4t7.5 -8q2 -3 3.5 -5t2.5 -4l6.5 -6.5t12.5 -13.5q2 -3 4 -5.5t4 -5.5q5 -6 8 -12t3 -10v-1q0 -6 -3.5 -12.5t-8.5 -11.5l-2.5 -2.5l-2.5 -2.5q-3 -4 -7 -9t-8 -11q-6 -8 -13 -15.5t-15 -8.5h-1q-5 0 -9.5 3.5t-8.5 8.5q-1 2 -2.5 3.5t-2.5 3.5q-3 4 -8 9l-10 10
l-12 14t-9 14q-1 3 -1.5 5t-0.5 4v0z" />
    <glyph glyph-name="yacute" unicode="&#xfd;" 
 />
    <glyph glyph-name="thorn" unicode="&#xfe;" horiz-adv-x="536" 
d="M93 -57v620l1 18q0 20 -10 37t-33 17h-2h-2q-2 -1 -3 -1h-2q-5 0 -9.5 2t-4.5 9q0 4 3 7t7 4q3 0 5.5 0.5t5.5 1.5q5 1 10 1.5t9 1.5q23 4 45.5 11t41.5 21q2 1 4 3l4 4q5 4 10 7t11 3q5 0 6.5 -6t1.5 -14v-9.5v-9.5q-1 -5 -1 -9.5v-9.5v-246v-8.5v-9.5q-1 -4 -1 -8.5
v-9.5v-1.5v-1.5q0 -6 2 -11t7 -6q6 0 19 10t31 22q18 11 41 21t48 10q78 0 122.5 -54.5t44.5 -128.5v-10.5t-1 -10.5q-6 -84 -61 -153t-146 -69h-8t-9 1q-12 1 -24 3t-22 5q-14 3 -24 5.5t-13 2.5q-4 -1 -5 -3.5t-1 -6.5v-51q0 -41 14.5 -58.5t58.5 -23.5h2t2 -1
q5 -1 9.5 -4t4.5 -9q0 -5 -4.5 -9t-10.5 -5h-0.5h-1.5q-7 0 -17.5 2t-21.5 4q-6 1 -12.5 2t-12.5 2t-11.5 1.5t-11.5 0.5q-13 0 -26.5 -1t-26.5 -2t-26.5 -2t-26.5 -1q-15 0 -18.5 3t-3.5 10q0 6 3 8.5t8 4.5q2 1 5 2t6 3q8 4 14.5 15.5t6.5 37.5v20v0zM191 297v-190
q0 -27 23 -47t51 -30q12 -5 24 -7.5t22 -2.5q58 0 84.5 43t27.5 95v1.5v1.5q0 6 -0.5 11.5t-0.5 11.5q-6 61 -45.5 112.5t-107.5 51.5q-6 0 -13.5 -1t-15.5 -3q-18 -5 -33.5 -16.5t-15.5 -30.5v0z" />
    <glyph glyph-name="ydieresis" unicode="&#xff;" horiz-adv-x="425" 
d="M158 305l83 -159q1 -2 2 -4.5t3 -5.5q2 -4 5 -8t7 -4h1q2 0 4 2.5t4 6.5q1 2 2.5 4.5t2.5 5.5q3 6 5 11t3 7q4 10 8.5 20.5t9.5 21.5q14 31 25.5 64.5t11.5 67.5q0 19 -10 28.5t-22 13.5q-4 2 -8 3.5t-8 2.5q-6 2 -10 4t-5 5l-0.5 0.5t-0.5 1.5v1.5v0.5q0 4 3.5 7t7.5 3
q11 0 22 -1t22 -1q10 -1 21 -2t22 -1h14.5t15.5 1q7 0 14.5 1t14.5 2q5 0 8 -2.5t3 -7.5q0 -6 -4 -9.5t-9 -4.5q-20 -5 -31 -21.5t-18 -35.5q-3 -7 -5.5 -14t-4.5 -13l-180 -448l-0.5 -0.5t-0.5 -1.5q-3 -5 -6 -8.5t-10 -3.5h-10.5t-10.5 1q-6 0 -11.5 0.5t-10.5 0.5h-0.5
t-1.5 1q-2 0 -3.5 1.5t-1.5 3.5v0q3 11 15.5 26.5t25.5 33.5q7 8 13 16.5t11 16.5q8 13 13.5 26t5.5 25q0 8 -3 14t-6 13q0 1 -0.5 2t-1.5 2l-156 307q-1 3 -2.5 5.5t-2.5 4.5q-7 15 -16.5 28t-25.5 19q-4 2 -6 4t-3 6q0 5 4 8t9 4h0.5h1.5q11 0 23.5 -1t24.5 -1
q12 -1 24.5 -2t24.5 -1t24 1t23 3q12 1 23.5 2t23.5 1q5 -1 7 -4.5t2 -8.5v-2v-2q-1 -6 -7 -8t-13 -3h-3.5t-3.5 -1q-9 -1 -17 -6t-10 -21q0 -13 5 -23.5t11 -21.5v0zM82 542v1q0 10 7 19t16 17l9.5 9.5t7.5 8.5q1 2 2.5 3.5l3.5 3.5q4 4 8.5 7.5t8.5 3.5q6 0 10.5 -4
t7.5 -8q2 -3 3.5 -5t2.5 -4t6.5 -8t12.5 -14q1 -1 2.5 -3t2.5 -3q6 -8 10 -14.5t4 -10.5v-1q0 -6 -3.5 -12.5t-8.5 -11.5l-2.5 -2.5l-2.5 -2.5q-3 -4 -7 -9t-8 -11q-6 -8 -13 -15.5t-15 -8.5h-1q-5 0 -9.5 3.5t-8.5 8.5q-1 2 -2.5 3.5t-2.5 3.5q-3 4 -8 9l-10 10l-12 14
t-9 14q-1 3 -1.5 5t-0.5 4v0zM252 542v1q0 9 7.5 18t15.5 18q5 4 9.5 8.5t7.5 9.5q1 2 2.5 3.5l3.5 3.5q4 4 8.5 7.5t8.5 3.5q6 0 10.5 -4t7.5 -8q2 -3 3.5 -5t2.5 -4l6.5 -6.5t12.5 -13.5q2 -3 4 -5.5t4 -5.5q5 -6 8 -12t3 -10v-1q0 -6 -3.5 -12.5t-8.5 -11.5l-2.5 -2.5
l-2.5 -2.5q-3 -4 -7 -9t-8 -11q-6 -8 -13 -15.5t-15 -8.5h-1q-5 0 -9.5 3.5t-8.5 8.5q-1 2 -2.5 3.5t-2.5 3.5q-3 4 -8 9l-10 10l-12 14t-9 14q-1 3 -1.5 5t-0.5 4v0z" />
    <glyph glyph-name="Abreve" unicode="&#x102;" 
 />
    <glyph glyph-name="abreve" unicode="&#x103;" 
 />
    <glyph glyph-name="Aogonek" unicode="&#x104;" 
 />
    <glyph glyph-name="aogonek" unicode="&#x105;" 
 />
    <glyph glyph-name="Cacute" unicode="&#x106;" 
 />
    <glyph glyph-name="cacute" unicode="&#x107;" 
 />
    <glyph glyph-name="Ccaron" unicode="&#x10c;" 
 />
    <glyph glyph-name="ccaron" unicode="&#x10d;" 
 />
    <glyph glyph-name="Dcaron" unicode="&#x10e;" 
 />
    <glyph glyph-name="dcaron" unicode="&#x10f;" 
 />
    <glyph glyph-name="Dslash" unicode="&#x110;" 
 />
    <glyph glyph-name="dslash" unicode="&#x111;" 
 />
    <glyph glyph-name="Eogonek" unicode="&#x118;" 
 />
    <glyph glyph-name="eogonek" unicode="&#x119;" 
 />
    <glyph glyph-name="Ecaron" unicode="&#x11a;" 
 />
    <glyph glyph-name="ecaron" unicode="&#x11b;" 
 />
    <glyph glyph-name="Gbreve" unicode="&#x11e;" 
 />
    <glyph glyph-name="gbreve" unicode="&#x11f;" 
 />
    <glyph glyph-name="Idot" unicode="&#x130;" 
 />
    <glyph glyph-name="dotlessi" unicode="&#x131;" horiz-adv-x="286" 
d="M190 392v-277q0 -40 13.5 -63.5t56.5 -28.5h1.5h0.5q6 -1 10.5 -4t4.5 -8q0 -6 -6.5 -8.5t-13.5 -2.5h-6h-6q-13 0 -26 1t-26 3q-14 1 -27 2.5t-26 1.5q-11 0 -21.5 -1.5t-21.5 -2.5q-11 -2 -21.5 -3t-21.5 -1q-4 0 -6 1t-4 4q0 1 0.5 2t0.5 2q2 5 9 10.5t15 13.5
q9 9 16.5 24.5t7.5 39.5l-1 17v166v4v4q-1 22 -8 40.5t-35 18.5h-1.5h-1.5q-5 0 -10 1.5t-6 7.5q0 9 6.5 13t13.5 5q3 1 5.5 1.5t4.5 0.5q31 7 61 18t55 30q1 0 1.5 0.5t1.5 0.5q1 1 2 1.5t2 0.5q5 0 6.5 -2t1.5 -7v-6.5v-6.5q-1 -3 -1 -6.5v-6.5v0z" />
    <glyph glyph-name="Lacute" unicode="&#x139;" 
 />
    <glyph glyph-name="lacute" unicode="&#x13a;" 
 />
    <glyph glyph-name="Lcaron" unicode="&#x13d;" 
 />
    <glyph glyph-name="lcaron" unicode="&#x13e;" 
 />
    <glyph glyph-name="Ldot" unicode="&#x13f;" 
 />
    <glyph glyph-name="ldot" unicode="&#x140;" 
 />
    <glyph glyph-name="Lslash" unicode="&#x141;" horiz-adv-x="543" 
d="M110 316l-68 -51l-13 28l81 61v213q0 59 -21 69.5t-74 10.5v20h316v-20h-41q-47 0 -56.5 -19t-9.5 -61v-142l137 102l13 -28l-150 -113v-290q0 -38 9.5 -52.5t50.5 -14.5q125 2 174 29t76 154h20l-25 -212h-512v19q53 0 73 12t20 68v217v0z" />
    <glyph glyph-name="lslash" unicode="&#x142;" horiz-adv-x="238" 
d="M170 438l66 49l13 -28l-79 -60v-308v-25q0 -29 11 -38t38 -9v-19h-203v19q39 0 47 19t8 53v247l-56 -42l-13 29l69 52v201q0 38 -8 53.5t-47 15.5v20h154v-229v0z" />
    <glyph glyph-name="Nacute" unicode="&#x143;" 
 />
    <glyph glyph-name="nacute" unicode="&#x144;" 
 />
    <glyph glyph-name="Ncaron" unicode="&#x147;" 
 />
    <glyph glyph-name="ncaron" unicode="&#x148;" 
 />
    <glyph glyph-name="Odblacute" unicode="&#x150;" 
 />
    <glyph glyph-name="odblacute" unicode="&#x151;" 
 />
    <glyph glyph-name="OE" unicode="&#x152;" horiz-adv-x="1080" 
d="M625 79q-46 -50 -108.5 -70.5t-128.5 -20.5q-148 0 -248 88.5t-100 241.5q0 155 99 258.5t256 103.5q67 0 124.5 -22t105.5 -70q0 8 -1 15.5t-2 15.5q-2 10 -3 19t-1 18q0 7 4 10.5t11 3.5q12 0 24.5 -1t25.5 -2q12 -2 24.5 -3t24.5 -1h113l111 3q7 0 14 0.5t14 1.5
q7 0 14 0.5t14 0.5q8 0 11.5 -4t3.5 -13q0 -13 1 -26.5t3 -26.5q1 -13 2 -26.5t1 -26.5q0 -3 -0.5 -6t-0.5 -7q-2 -6 -5.5 -12t-9.5 -8q-8 0 -10.5 6t-2.5 12v1.5v1.5v1q0 48 -34 67t-76 23q-9 1 -19 1.5t-19 0.5h-12h-12q-6 -1 -12 -1h-12h-1.5h-1.5q-33 -1 -51 -8t-18 -45
l-1 -20v-106q1 -5 1 -10.5v-10.5v-4.5v-4.5q1 -15 6.5 -27t23.5 -12h22q55 0 91.5 11.5t58.5 65.5q2 5 4.5 7t6.5 3q5 0 9.5 -2t4.5 -9q0 -6 -0.5 -11.5t-0.5 -10.5q-1 -6 -1.5 -11.5t-0.5 -11.5q0 -21 1.5 -41.5t3.5 -40.5q1 -20 2.5 -40.5t1.5 -41.5q0 -5 -2.5 -9t-8.5 -4
q-7 0 -10 5t-4 12v0.5v1.5q-5 46 -31 64t-70 18h-15.5h-15.5q-8 -1 -15.5 -1h-15.5q-25 0 -33 -8.5t-10 -34.5q-1 -14 -1.5 -28t-0.5 -28q-1 -14 -1 -28v-28v-18.5t1 -18.5q0 -17 2.5 -33t8.5 -30q8 -22 20 -30t34 -8q17 0 35.5 1t37.5 4q57 8 109 34.5t77 80.5q2 3 3.5 5.5
t5.5 2.5q3 0 5.5 -3t3.5 -7q0 -2 0.5 -4t0.5 -3q0 -70 -44.5 -116t-115.5 -46q-24 0 -48 2.5t-48 4.5l-16 2l-16 2l-32 2t-32 1q-13 0 -25.5 -1t-24.5 -2q-13 -2 -25.5 -3t-25.5 -1q-5 0 -8.5 3t-3.5 7q0 9 1.5 18.5t2.5 18.5q0 1 0.5 2.5t0.5 2.5q2 8 3 16l2 16v0zM161 359
q0 -21 2 -43t6 -45q18 -93 75.5 -170.5t161.5 -77.5q117 0 168.5 85t55.5 187v9.5v9.5v14.5t-1 14.5q-8 113 -74.5 206.5t-191.5 93.5h-4.5h-4.5q-35 -2 -68.5 -17.5t-58.5 -40.5q-31 -32 -45 -74.5t-18 -87.5q-2 -16 -2.5 -32t-0.5 -32v0z" />
    <glyph glyph-name="oe" unicode="&#x153;" horiz-adv-x="770" 
d="M428 334q25 32 60 55t77 25q68 0 123 -45t62 -115q0 -7 -2.5 -13.5t-11.5 -7.5q-27 0 -54 0.5t-54 0.5t-54 0.5t-54 0.5h-14.5t-14.5 -2q-7 -1 -9 -5t-2 -10t0.5 -12t1.5 -12q7 -54 43 -99t95 -45q7 0 14.5 0.5t14.5 2.5q22 4 43 14.5t36 26.5l0.5 0.5l1.5 1.5
q2 2 4.5 3.5t4.5 1.5h1q5 0 7 -3.5t3 -7.5v-0.5v-1.5q-1 -5 -6.5 -12t-13.5 -15l-5.5 -5.5t-5.5 -4.5q-8 -8 -15.5 -14t-11.5 -9q-18 -14 -40 -23t-45 -13q-9 -2 -17.5 -3t-17.5 -1q-46 0 -85.5 21t-66.5 55q-34 -35 -77.5 -55.5t-92.5 -20.5q-88 0 -152.5 53.5t-64.5 145.5
q0 95 67 161t162 66q48 0 92.5 -21t73.5 -59v0zM131 248q0 -19 3 -42t10 -47q15 -55 48 -100t88 -45q52 0 76 38.5t26 84.5v4v4q0 20 -3 43t-9 47q-15 57 -49 104t-92 47q-42 0 -65 -31.5t-30 -69.5q-1 -9 -2 -18.5t-1 -18.5v0zM523 263h91q18 0 28 6t10 23v5.5t-1 4.5
q-4 33 -30.5 60.5t-60.5 27.5q-28 0 -49.5 -23.5t-28.5 -51.5q-2 -7 -3 -14t-1 -13q0 -11 4.5 -18t17.5 -7h23v0z" />
    <glyph glyph-name="Racute" unicode="&#x154;" 
 />
    <glyph glyph-name="racute" unicode="&#x155;" 
 />
    <glyph glyph-name="Rcaron" unicode="&#x158;" 
 />
    <glyph glyph-name="rcaron" unicode="&#x159;" 
 />
    <glyph glyph-name="Sacute" unicode="&#x15a;" 
 />
    <glyph glyph-name="sacute" unicode="&#x15b;" 
 />
    <glyph glyph-name="Scedilla" unicode="&#x15e;" 
 />
    <glyph glyph-name="scedilla" unicode="&#x15f;" 
 />
    <glyph glyph-name="Scaron" unicode="&#x160;" horiz-adv-x="508" 
d="M54 496q0 76 53.5 130t129.5 54q28 0 50.5 -6t40.5 -14q19 -7 34 -13.5t28 -6.5q5 0 9.5 2t8.5 4q0 1 0.5 1t0.5 1q5 2 9.5 4.5t11.5 2.5t9 -4.5t2 -9.5v-2v-2v-10t-1 -10q0 -18 2 -35t5 -34q3 -18 5 -35t2 -35v-2v-2q-1 -6 -3 -10t-7 -5q-6 0 -9.5 4.5t-4.5 9.5
q0 1 -0.5 2t-0.5 2q-13 65 -68.5 116.5t-123.5 51.5h-2.5h-3.5q-39 -2 -71.5 -30.5t-32.5 -69.5q0 -44 35.5 -68.5t85.5 -45.5q12 -5 24.5 -10.5t25.5 -10.5q64 -28 117.5 -72.5t53.5 -134.5q0 -84 -59 -149.5t-146 -65.5q-8 0 -15.5 0.5t-15.5 2.5q-15 2 -29 5.5t-28 7.5
q-5 2 -9.5 3.5t-9.5 2.5q-13 4 -24 6.5t-20 4.5q-18 4 -27.5 11t-11.5 26q-2 18 -6.5 35t-9.5 34q-1 2 -1.5 4t-0.5 3q-6 19 -10.5 38.5t-4.5 38.5v2.5v2.5q1 6 3 11t9 6q6 0 9 -3t4 -8q3 -10 6.5 -20.5t8.5 -20.5q26 -59 75.5 -108.5t114.5 -49.5q50 0 88.5 38t38.5 87
q0 53 -41 81t-95 52l-18 8l-18 8q-64 28 -118 70t-54 129v0zM96 852v1q0 4 3 6.5t7 4.5q1 1 2.5 1.5t2.5 0.5l28 9l6 2l6 2q6 2 11.5 4t11.5 2q5 0 9.5 -2t8.5 -6q7 -6 13 -13.5t13 -15.5q10 -12 21.5 -22.5t24.5 -13.5q3 0 9 5t13 13l3 3t3 4q6 7 11 13.5t7 9.5
q2 2 3.5 4.5t3.5 5.5q4 4 8.5 8t9.5 5q5 0 9.5 -1.5t8.5 -3.5q1 0 2 -0.5l3 -1.5q1 0 2 -0.5t2 -1.5q1 0 1.5 -0.5t1.5 -0.5t2 -0.5t2 -1.5q5 -1 8.5 -3.5t3.5 -7.5q0 -6 -13 -24t-32 -38q-7 -7 -14 -14.5t-15 -14.5q-16 -15 -31.5 -25t-26.5 -10q-15 0 -26 4.5t-22 12.5
q-3 3 -7 6t-8 7q-5 5 -17.5 15.5t-26.5 23.5l-2.5 2.5l-2.5 2.5q-15 14 -27 26t-14 18v0z" />
    <glyph glyph-name="scaron" unicode="&#x161;" horiz-adv-x="380" 
d="M61 289q0 62 44.5 93.5t101.5 31.5q8 0 19 -0.5t22 -2.5q22 -3 40 -9.5t19 -18.5q0 -9 1 -17.5t2 -16.5q0 -8 1 -16.5t1 -17.5v-2.5v-3.5q-1 -4 -2.5 -7t-6.5 -3q-7 0 -16 15t-22 33q-14 17 -32 32t-44 15h-2.5h-2.5q-22 -2 -40.5 -17.5t-18.5 -38.5q0 -26 20.5 -41.5
t49.5 -29.5q8 -3 16 -6.5t15 -7.5q39 -18 70.5 -46t31.5 -82q0 -58 -38.5 -97.5t-97.5 -39.5q-4 0 -24 2t-44 6q-26 4 -47.5 10t-21.5 14q0 6 0.5 12t0.5 12q0 5 0.5 11t0.5 12t-0.5 11.5t-0.5 11.5q0 3 -0.5 5.5t-0.5 5.5q0 8 -0.5 16.5t-0.5 17.5q0 6 3 9.5t10 3.5
q6 0 8.5 -4t3.5 -9q1 -7 3 -14t5 -14q12 -36 38.5 -66t65.5 -31q27 0 49 16t23 45q0 40 -27 59t-61 34q-4 1 -7 2.5t-6 3.5q-38 16 -69.5 40.5t-31.5 78.5v0zM40 582v1q0 4 3 6.5t7 4.5q1 1 2.5 1.5t2.5 0.5l28 9l6 2l6 2q6 2 11.5 4t11.5 2q5 0 9.5 -2t8.5 -6
q7 -6 13 -13.5t13 -15.5q10 -12 21.5 -22.5t24.5 -13.5q3 0 9 5t13 13l3 3t3 4q6 7 11 13.5t7 9.5q2 2 3.5 4.5t3.5 5.5q4 4 8.5 8t9.5 5q5 0 9.5 -1.5t8.5 -3.5q1 0 2 -0.5l3 -1.5q1 0 2 -0.5t2 -1.5q1 0 1.5 -0.5t1.5 -0.5t2 -0.5t2 -1.5q5 -1 8.5 -3.5t3.5 -7.5
q0 -6 -13 -24t-32 -38q-7 -7 -14 -14.5t-15 -14.5q-16 -15 -31.5 -25t-26.5 -10q-15 0 -26 4.5t-22 12.5q-3 3 -7 6t-8 7q-5 5 -17.5 15.5t-26.5 23.5l-2.5 2.5l-2.5 2.5q-15 14 -27 26t-14 18v0z" />
    <glyph glyph-name="Tcedilla" unicode="&#x162;" 
 />
    <glyph glyph-name="tcedilla" unicode="&#x163;" 
 />
    <glyph glyph-name="Tcaron" unicode="&#x164;" 
 />
    <glyph glyph-name="tcaron" unicode="&#x165;" 
 />
    <glyph glyph-name="Uring" unicode="&#x16e;" 
 />
    <glyph glyph-name="uring" unicode="&#x16f;" 
 />
    <glyph glyph-name="udblacute" unicode="&#x170;" 
 />
    <glyph glyph-name="Udblacute" unicode="&#x171;" 
 />
    <glyph glyph-name="Ydieresis" unicode="&#x178;" horiz-adv-x="595" 
d="M357 262v-126q0 -57 21 -83t79 -29q6 0 10.5 -2t5.5 -8q0 -12 -8 -14.5t-19 -2.5q-18 0 -36.5 1.5t-36.5 2.5q-6 1 -12.5 1.5t-12.5 0.5q-12 2 -24.5 2.5t-24.5 0.5q-19 0 -37.5 -0.5t-36.5 -2.5q-19 -1 -37.5 -2t-37.5 -3q-7 0 -9.5 2.5t-3.5 9.5q0 6 3 9.5t10 4.5
q62 11 78 41t16 86q0 69 -2 97.5t-12 49.5q-8 18 -23 41t-41 73l-74 141q-1 2 -2 3.5t-1 2.5q-17 29 -41 54t-59 29h-2h-1q-9 2 -12 4.5t-3 10.5q0 7 4.5 10.5t12.5 3.5q14 0 28.5 -1t29.5 -3q14 -1 28.5 -2.5t29.5 -1.5q18 0 35.5 1t34.5 2t34.5 2t34.5 1h2.5t2.5 -1
q5 -1 8.5 -3.5t3.5 -7.5q0 -4 -3 -7t-7 -4q-2 -1 -4 -1.5t-3 -0.5q-2 0 -4 -1t-4 -1q-11 -4 -20.5 -11t-9.5 -20q0 -15 8.5 -36.5t19.5 -44.5q3 -6 6.5 -12t6.5 -13q10 -17 18.5 -32t14.5 -26q3 -6 8 -18t11 -26q7 -12 14 -23.5t15 -18.5q3 -2 6 -3.5t6 -1.5q10 0 18 10.5
t15 23.5l4 8l4 8l17.5 30t21.5 38q3 5 6 10.5t6 10.5q15 26 25.5 51t10.5 40q0 20 -16.5 34t-35.5 20q-7 2 -14 3.5t-13 2.5h-1.5h-0.5q-5 1 -9 3.5t-4 8.5t3 10.5t9 4.5q12 0 23.5 -1t23.5 -3q12 -1 23.5 -2.5t23.5 -1.5h30.5t30.5 1q15 0 30.5 1t30.5 2h2.5h2.5
q6 0 10 -2.5t4 -8.5t-4.5 -8.5t-9.5 -4.5q-1 0 -2 -0.5t-2 -0.5q-44 -10 -67.5 -42t-41.5 -68q-2 -4 -3.5 -7.5t-3.5 -6.5q-27 -51 -55 -101.5t-59 -99.5q-4 -7 -7 -12.5t-5 -11.5q-2 -7 -2.5 -15t-0.5 -18v0zM154 807v1q0 10 7 19t16 17l9.5 9.5t7.5 8.5q1 2 2.5 3.5
l3.5 3.5q4 4 8.5 7.5t8.5 3.5q6 0 10.5 -4t7.5 -8q2 -3 3.5 -5t2.5 -4t6.5 -8t12.5 -14q1 -1 2.5 -3t2.5 -3q6 -8 10 -14.5t4 -10.5v-1q0 -6 -3.5 -12.5t-8.5 -11.5l-2.5 -2.5l-2.5 -2.5q-3 -4 -7 -9t-8 -11q-6 -8 -13 -15.5t-15 -8.5h-1q-5 0 -9.5 3.5t-8.5 8.5
q-1 2 -2.5 3.5t-2.5 3.5q-3 4 -8 9l-10 10l-12 14t-9 14q-1 3 -1.5 5t-0.5 4v0zM324 807v1q0 9 7.5 18t15.5 18q5 4 9.5 8.5t7.5 9.5q1 2 2.5 3.5l3.5 3.5q4 4 8.5 7.5t8.5 3.5q6 0 10.5 -4t7.5 -8q2 -3 3.5 -5t2.5 -4l6.5 -6.5t12.5 -13.5q2 -3 4 -5.5t4 -5.5q5 -6 8 -12
t3 -10v-1q0 -6 -3.5 -12.5t-8.5 -11.5l-2.5 -2.5l-2.5 -2.5q-3 -4 -7 -9t-8 -11q-6 -8 -13 -15.5t-15 -8.5h-1q-5 0 -9.5 3.5t-8.5 8.5q-1 2 -2.5 3.5t-2.5 3.5q-3 4 -8 9l-10 10l-12 14t-9 14q-1 3 -1.5 5t-0.5 4v0z" />
    <glyph glyph-name="Zacute" unicode="&#x179;" 
 />
    <glyph glyph-name="zacute" unicode="&#x17a;" 
 />
    <glyph glyph-name="Zdot" unicode="&#x17b;" 
 />
    <glyph glyph-name="zdot" unicode="&#x17c;" 
 />
    <glyph glyph-name="Zcaron" unicode="&#x17d;" horiz-adv-x="522" 
d="M510 148q-1 -9 -2.5 -17.5t-3.5 -17.5q-12 -46 -42.5 -83.5t-81.5 -37.5q-24 0 -48.5 2t-49.5 4q-24 2 -48.5 3.5t-49.5 1.5q-12 0 -23.5 -0.5t-22.5 -0.5q-4 0 -7.5 -0.5t-7.5 -0.5q-8 0 -15.5 -0.5t-15.5 -0.5q-11 0 -21 -1t-18 -2q-9 -2 -16 -3t-13 -1q-4 0 -7 2.5
t-3 5.5q2 5 6.5 12.5t9.5 15.5l0.5 0.5l0.5 0.5q4 6 7.5 12t5.5 11l69 125l94 177q32 59 62 119.5t52 124.5q2 2 2 5v6q-2 4 -7.5 6.5t-11.5 2.5q-4 1 -8 1h-7l-62 2q-8 0 -17 -0.5t-17 -1.5q-48 -4 -89 -26.5t-47 -77.5q-1 -5 -4 -8.5t-8 -3.5q-6 0 -9 5t-3 10q-1 3 -1 5.5
v4.5q0 10 1.5 19.5t3.5 19.5q1 10 2.5 19.5t1.5 19.5l-1 32q0 1 0.5 2t0.5 2q0 2 0.5 3.5t0.5 3.5q1 6 4 11t9 5q8 0 10.5 -0.5t4.5 -0.5h0.5t1.5 -1q3 0 11.5 -0.5t31.5 -0.5q15 0 29.5 -0.5t29.5 -0.5q15 -1 29.5 -1h29.5q30 0 59 2.5t59 5.5q29 3 58 5.5t59 2.5h1.5h1.5
q6 0 11.5 -2t6.5 -8q0 -8 -3 -15t-7 -13q0 -1 -1 -2.5t-2 -2.5q0 -1 -0.5 -2t-1.5 -2q-23 -38 -43.5 -77.5t-40.5 -78.5l-10 -20l-10 -20l-60 -117q-6 -11 -25 -46.5t-41 -77.5q0 -1 -1 -2.5t-2 -3.5q-24 -46 -44 -86t-20 -46t5 -8.5t11 -3.5h6h5l40 -2h6.5h6.5q67 2 129 28
t101 82q1 1 2 3l2 4q2 4 5 6.5t6 2.5h1q3 0 4.5 -3t2.5 -7v-5.5v-3.5v0zM120 852v1q0 4 3 6.5t7 4.5q1 1 2.5 1.5t2.5 0.5l28 9l6 2l6 2q6 2 11.5 4t11.5 2q5 0 9.5 -2t8.5 -6q7 -6 13 -13.5t13 -15.5q10 -12 21.5 -22.5t24.5 -13.5q3 0 9 5t13 13l3 3t3 4q6 7 11 13.5
t7 9.5q2 2 3.5 4.5t3.5 5.5q4 4 8.5 8t9.5 5q5 0 9.5 -1.5t8.5 -3.5q1 0 2 -0.5l3 -1.5q1 0 2 -0.5t2 -1.5q1 0 1.5 -0.5t1.5 -0.5t2 -0.5t2 -1.5q5 -1 8.5 -3.5t3.5 -7.5q0 -6 -13 -24t-32 -38q-7 -7 -14 -14.5t-15 -14.5q-16 -15 -31.5 -25t-26.5 -10q-15 0 -26 4.5
t-22 12.5q-3 3 -7 6t-8 7q-5 5 -17.5 15.5t-26.5 23.5l-2.5 2.5l-2.5 2.5q-15 14 -27 26t-14 18v0z" />
    <glyph glyph-name="zcaron" unicode="&#x17e;" horiz-adv-x="389" 
d="M332 374l-178 -245q-1 -1 -1.5 -2.5t-1.5 -3.5q-1 0 -1 -0.5v-1.5q-3 -4 -4.5 -7.5t-1.5 -8.5q0 -11 16.5 -16t36.5 -7q10 -1 19.5 -1h16.5h21h16.5t17.5 1q15 2 29.5 6.5t23.5 15.5l0.5 0.5l1.5 1.5q2 2 4 3.5t5 1.5q6 0 8 -3t2 -7q0 -9 -5.5 -22t-14.5 -27
q-10 -14 -22 -28t-26 -23q-9 -5 -17.5 -9t-16.5 -4q-6 0 -12 1t-11 3q-18 4 -35.5 6t-35.5 4t-36 3t-36 1q-11 0 -22.5 -1t-22.5 -3h-2h-2q-4 0 -8 2t-4 8q1 6 4.5 12t7.5 12l3.5 3.5t2.5 3.5l188 258q0 1 0.5 1.5t1.5 0.5q1 2 2 4.5t1 4.5t-2 3l-4 2h-2h-2h-98
q-26 0 -38.5 -9.5t-18.5 -21.5q-3 -4 -5 -8t-3 -7q-4 -7 -7.5 -11t-9.5 -5h-2h-2q-3 1 -5.5 3t-2.5 6v1q0 2 0.5 4t1.5 3q4 10 6 22.5t4 26.5v2.5v2.5q3 29 11 52.5t36 23.5q8 0 15 -0.5t15 -0.5q7 0 14.5 -0.5t14.5 -0.5q21 0 42.5 1.5t43.5 2.5q22 2 43.5 3t42.5 1
q5 0 9.5 -3t4.5 -9q0 -5 -2.5 -8.5t-6.5 -7.5v-0.5t-1 -0.5q-1 -1 -2 -2.5t-2 -2.5v0zM53 582v1q0 4 3 6.5t7 4.5q1 1 2.5 1.5t2.5 0.5l28 9l6 2l6 2q6 2 11.5 4t11.5 2q5 0 9.5 -2t8.5 -6q7 -6 13 -13.5t13 -15.5q10 -12 21.5 -22.5t24.5 -13.5q3 0 9 5t13 13l3 3t3 4
q6 7 11 13.5t7 9.5q2 2 3.5 4.5t3.5 5.5q4 4 8.5 8t9.5 5q5 0 9.5 -1.5t8.5 -3.5q1 0 2 -0.5l3 -1.5q1 0 2 -0.5t2 -1.5q1 0 1.5 -0.5t1.5 -0.5t2 -0.5t2 -1.5q5 -1 8.5 -3.5t3.5 -7.5q0 -6 -13 -24t-32 -38q-7 -7 -14 -14.5t-15 -14.5q-16 -15 -31.5 -25t-26.5 -10
q-15 0 -26 4.5t-22 12.5q-3 3 -7 6t-8 7q-5 5 -17.5 15.5t-26.5 23.5l-2.5 2.5l-2.5 2.5q-15 14 -27 26t-14 18v0z" />
    <glyph glyph-name="florin" unicode="&#x192;" horiz-adv-x="500" 
d="M240 411q1 8 2.5 16.5t3.5 16.5q5 33 14.5 66t26.5 62q32 53 86.5 93t119.5 40q5 0 9.5 -0.5t9.5 -1.5q25 -4 45.5 -20t20.5 -44q0 -21 -13 -34.5t-34 -13.5q-15 0 -27 8.5t-18 21.5q-1 3 -2.5 6t-2.5 6q-6 12 -13.5 21.5t-22.5 9.5q-33 0 -54 -43t-33 -94
q-9 -34 -14 -65.5t-9 -50.5h95q7 0 12.5 -2t5.5 -10q0 -9 -6 -12t-13 -3q-2 0 -3.5 -0.5t-3.5 -0.5h-2.5h-2.5h-86l-26 -151q-5 -28 -10.5 -57.5t-13.5 -59.5q-13 -56 -35.5 -109t-58.5 -92q-33 -35 -77 -59t-93 -24q-5 0 -10.5 0.5t-9.5 0.5q-27 4 -50 19t-23 46
q0 22 16 36t37 14q20 0 30 -11.5t19 -26.5q0 -1 0.5 -2t1.5 -2q8 -13 16.5 -23t24.5 -10q26 0 41.5 20.5t25.5 45.5q4 11 7.5 21.5l6.5 19.5q14 42 25 86.5t20 89.5q4 17 7.5 35t6.5 36l27 157h-84q-7 0 -12.5 2t-7.5 10q0 8 6 11.5t13 4.5h6h5h78v0z" />
    <glyph glyph-name="hungarumlaut" unicode="&#x2ba;" horiz-adv-x="500" 
d="M249 488q-13 -6 -25.5 -11.5t-26.5 -9.5q-5 0 -8 3.5t-3 8.5q0 10 6.5 25t16.5 31q2 4 4.5 8t4.5 8q8 13 16 25t12 19q6 11 16 13t21 2h4h4h30h1.5h1.5q8 -1 15 -6t7 -14q0 -8 -3.5 -12t-8.5 -7v0v0q-1 -1 -3 -2.5t-3 -2.5l-79 -78v0zM422 488q-12 -6 -25 -11.5t-27 -9.5
q-5 0 -8.5 4t-3.5 8q0 9 7 24.5t17 31.5l4 6l4 6q9 16 17 28.5t12 19.5q6 11 16 13t21 2h4h4h30h2h1q7 -1 13 -4.5t8 -11.5v-1.5v-1.5q-1 -5 -3.5 -9t-5.5 -7q-2 -3 -4.5 -5.5l-3.5 -3.5l-79 -78v0z" />
    <glyph glyph-name="tilde" unicode="&#x2c6;" horiz-adv-x="500" 
d="M196 587q18 0 35 -6t33 -13q16 -8 33 -14t35 -6h2.5h2.5q13 1 24 7.5t18 17.5l1.5 1.5l0.5 0.5q1 2 2.5 3t2.5 1h1q1 0 3 -0.5t4 -1.5q1 -1 2.5 -1.5t2.5 -1.5l2 -2t1 -2q0 -6 -3 -13.5t-8 -14.5q-8 -12 -21 -23.5t-27 -19.5q-10 -6 -19.5 -9.5t-17.5 -3.5q-18 0 -35 6
t-33 13q-1 0 -2 0.5t-2 0.5q-15 7 -31 12.5t-33 5.5q-15 0 -24 -6t-14 -14q-3 -4 -5 -8t-4 -7q-2 -2 -4 -3.5t-4 -1.5h-1q-1 1 -2.5 1.5t-2.5 1.5q-3 1 -5 2.5t-3 3.5v1q0 1 0.5 2.5t0.5 2.5l0.5 0.5t0.5 1.5t0.5 1.5t0.5 1.5q6 9 10.5 17.5t8.5 16.5q11 20 25.5 33.5
t47.5 15.5v0z" />
    <glyph glyph-name="caron" unicode="&#x2c7;" horiz-adv-x="500" 
d="M109 582v1q0 4 3 6.5t7 4.5q1 1 2.5 1.5t2.5 0.5l28 9l6 2l6 2q6 2 11.5 4t11.5 2q5 0 9.5 -2t8.5 -6q7 -6 13 -13.5t13 -15.5q10 -12 21.5 -22.5t24.5 -13.5q3 0 9 5t13 13l3 3t3 4q6 7 11 13.5t7 9.5q2 2 3.5 4.5t3.5 5.5q4 4 8.5 8t9.5 5q5 0 9.5 -1.5t8.5 -3.5
q1 0 2 -0.5l3 -1.5q1 0 2 -0.5t2 -1.5q1 0 1.5 -0.5t1.5 -0.5t2 -0.5t2 -1.5q5 -1 8.5 -3.5t3.5 -7.5q0 -6 -13 -24t-32 -38q-7 -7 -14 -14.5t-15 -14.5q-16 -15 -31.5 -25t-26.5 -10q-15 0 -26 4.5t-22 12.5q-3 3 -7 6t-8 7q-5 5 -17.5 15.5t-26.5 23.5l-2.5 2.5l-2.5 2.5
q-15 14 -27 26t-14 18v0z" />
    <glyph glyph-name="macron" unicode="&#x2c9;" horiz-adv-x="500" 
d="M383 556q0 -4 -0.5 -8t-2.5 -9q-3 -9 -8.5 -17t-14.5 -9q-21 0 -41.5 0.5t-40.5 1.5t-40.5 1.5t-41.5 0.5q-6 0 -12 -0.5t-11 -0.5q-6 0 -12 -0.5t-12 -0.5h-2h-2q-6 1 -11 3t-5 8q0 2 0.5 3.5t0.5 3.5q1 2 1.5 4t1.5 3q0 2 1 4t1 3t0.5 2.5t0.5 3.5v2v2q1 7 4 13t10 7
q19 0 37.5 -1t37.5 -1q18 -1 36.5 -2t37.5 -1q8 0 15 0.5t15 0.5q7 0 14.5 0.5t14.5 0.5q11 0 19.5 -2.5t8.5 -15.5v0z" />
    <glyph glyph-name="breve" unicode="&#x2d8;" horiz-adv-x="500" 
d="M254 543q28 0 49.5 8.5t32.5 35.5q0 1 0.5 1.5l0.5 0.5q2 3 4.5 5t4.5 2h1l6 -2t6 -3q5 -3 10 -8t8 -10q1 -1 1.5 -3t0.5 -4q0 -39 -29 -60.5t-63 -27.5q-9 -2 -17 -2.5t-16 -0.5q-9 0 -19.5 1t-21.5 4q-32 7 -59 27t-27 56q0 13 10 23t23 10q4 0 6 -1.5t3 -4.5l1.5 -1.5
t0.5 -1.5q10 -27 33.5 -35.5t49.5 -8.5v0z" />
    <glyph glyph-name="dotaccent" unicode="&#x2d9;" horiz-adv-x="500" 
d="M185 582q0 4 2.5 8.5t5.5 9.5q2 2 3.5 4t3.5 5q4 4 7.5 8t5.5 6l23 28q0 1 0.5 1.5t1.5 0.5q2 3 5 5t7 2q9 0 16 -6.5t13 -14.5q2 -3 4.5 -6t4.5 -6t4.5 -5.5l5.5 -5.5q6 -7 11 -14.5t7 -15.5q0 -11 -6 -19.5t-13 -16.5q-2 -2 -3.5 -4t-3.5 -4q-3 -3 -6 -7t-6 -9
q-5 -8 -12 -14t-14 -6q-4 0 -8 1.5t-6 4.5q-4 4 -10.5 11.5t-14.5 16.5q-2 2 -3.5 4t-3.5 4q-8 10 -14.5 19.5t-6.5 14.5v0z" />
    <glyph glyph-name="ring" unicode="&#x2da;" horiz-adv-x="500" 
d="M133 543q0 37 26.5 63.5t63.5 26.5t63.5 -26.5t26.5 -63.5t-26.5 -63.5t-63.5 -26.5t-63.5 26.5t-26.5 63.5v0zM166 543q0 -23 17 -40t40 -17t40 17t17 40t-17 40t-40 17t-40 -17t-17 -40v0z" />
    <glyph glyph-name="ogonek" unicode="&#x2db;" horiz-adv-x="500" 
d="M308 0q-6 -3 -13 -7t-14 -9q-17 -11 -31.5 -26t-14.5 -35q0 -15 10.5 -25.5t24.5 -10.5q19 0 37 7.5t33 18.5q1 0 1 0.5t1 1.5q1 0 2 0.5t2 0.5l1 -1q4 1 5.5 -8t1.5 -20v-5.5v-4.5v-1.5v-1.5q-3 -11 -23.5 -22t-44.5 -18q-17 -6 -33 -9t-25 -3q-4 0 -8 0.5t-7 0.5
q-25 4 -45.5 20t-20.5 44q0 36 24.5 62t54.5 43q4 3 8 5t8 3h66v0z" />
    <glyph glyph-name="circumflex" unicode="&#x2dc;" horiz-adv-x="500" 
d="M396 497v-1q0 -4 -3 -7t-7 -5q-1 -1 -2.5 -1.5t-2.5 -0.5q-5 -2 -10.5 -4t-11.5 -4q-4 -1 -7.5 -2.5t-7.5 -2.5q-7 -3 -14 -4.5t-14 -1.5q-4 0 -14.5 8.5t-22.5 19.5q-2 1 -3.5 2.5l-2.5 2.5q-11 10 -20 19l-12 12l-2 2l-2 2q-2 2 -4 3.5t-5 1.5q-7 0 -16.5 -11
t-18.5 -25q-1 0 -1.5 -0.5t-0.5 -1.5q-9 -12 -17.5 -22t-15.5 -11q-3 0 -9.5 1.5t-13.5 4.5q-6 2 -11.5 5t-8.5 6q-2 2 -3 3.5t-1 2.5t0.5 2.5t0.5 2.5l2 4l2 4q1 0 1.5 1l0.5 1q9 10 18.5 20.5t18.5 20.5q9 11 18.5 21.5t18.5 20.5q8 8 13 13.5t10 8.5q6 4 12.5 5.5
t16.5 1.5q27 0 49 -17t42 -37q7 -8 14 -15.5t14 -14.5q2 -1 6.5 -5.5l9.5 -9.5l1.5 -1.5l0.5 -0.5q6 -6 10 -10.5t5 -6.5v0z" />
    <glyph glyph-name="Gamma" unicode="&#x393;" horiz-adv-x="500" 
 />
    <glyph glyph-name="Theta" unicode="&#x398;" horiz-adv-x="500" 
 />
    <glyph glyph-name="summation" unicode="&#x3a3;" horiz-adv-x="500" 
 />
    <glyph glyph-name="Phi" unicode="&#x3a6;" horiz-adv-x="500" 
 />
    <glyph glyph-name="Omega" unicode="&#x3a9;" horiz-adv-x="500" 
 />
    <glyph glyph-name="alpha" unicode="&#x3b1;" horiz-adv-x="500" 
 />
    <glyph glyph-name="delta" unicode="&#x3b4;" horiz-adv-x="500" 
 />
    <glyph glyph-name="epsilon" unicode="&#x3b5;" horiz-adv-x="500" 
 />
    <glyph glyph-name="pi" unicode="&#x3c0;" horiz-adv-x="500" 
 />
    <glyph glyph-name="sigma" unicode="&#x3c3;" 
 />
    <glyph glyph-name="tau" unicode="&#x3c4;" horiz-adv-x="500" 
 />
    <glyph glyph-name="phi" unicode="&#x3c6;" 
 />
    <glyph glyph-name="glyph276" unicode="&#x2013;" horiz-adv-x="423" 
d="M27 256h390v-63h-390v63v0z" />
    <glyph glyph-name="emdash" unicode="&#x2014;" horiz-adv-x="650" 
d="M0 256h650v-63h-650v63v0z" />
    <glyph glyph-name="underscoredbl" unicode="&#x2017;" horiz-adv-x="500" 
 />
    <glyph glyph-name="quoteleft" unicode="&#x2018;" horiz-adv-x="249" 
d="M60 503q0 41 18 79t46 67q5 5 12 11.5t15 13.5q5 5 11 9.5t11 8.5q9 6 17.5 10t15.5 5q3 0 5.5 -1t2.5 -5v-2q-1 -6 -10.5 -15t-21.5 -22q-11 -13 -21 -30.5t-11 -41.5q0 -25 12 -44.5t33 -33.5q2 -1 3.5 -2t3.5 -2q5 -4 9 -9t4 -11t-6.5 -16.5t-16.5 -22.5
q-6 -7 -12 -13.5t-12 -11.5q-10 -8 -19 -13.5t-16 -5.5h-1q-28 4 -46 26.5t-23 48.5q-2 6 -2.5 11.5t-0.5 11.5v0z" />
    <glyph glyph-name="quoteright" unicode="&#x2019;" horiz-adv-x="249" 
d="M191 609q0 -41 -18.5 -79t-46.5 -67q-4 -5 -10.5 -11t-14.5 -13q-5 -5 -11 -9.5t-12 -8.5q-9 -6 -17.5 -10.5t-15.5 -5.5h-1h-1q-3 0 -5 1.5t-2 4.5q0 4 10 15t22 26q11 14 21 32t11 38q0 22 -10 38t-22 28q-13 12 -23 21t-10 16q0 5 2 9t5 7l29 31l6.5 6.5l7.5 7.5
q7 8 15.5 14t16.5 6q27 0 45 -21t25 -47q2 -7 3 -14.5t1 -14.5v0z" />
    <glyph glyph-name="quotesinglbase" unicode="&#x201a;" horiz-adv-x="249" 
d="M191 56q0 -41 -18.5 -78.5t-46.5 -66.5q-4 -5 -10.5 -11t-14.5 -13q-5 -5 -11 -9.5t-12 -8.5q-9 -6 -17.5 -10.5t-15.5 -5.5h-1h-1q-3 0 -5 1.5t-2 4.5q0 4 10 14.5t22 25.5q11 14 21 32.5t11 38.5q0 24 -10 39t-22 26q-9 8 -17 14.5t-12 12.5q-2 2 -3 4.5t-1 5.5
q0 6 7 16t17 21l9.5 9.5t9.5 8.5q12 11 23 18.5t16 7.5q27 0 45 -21t25 -47q2 -7 3 -14.5t1 -14.5v0z" />
    <glyph glyph-name="quotedblleft" unicode="&#x201c;" horiz-adv-x="464" 
d="M60 503q0 41 18 79t46 67q5 5 12 11.5t15 13.5q5 5 11 9.5t11 8.5q9 6 17.5 10t15.5 5q3 0 5.5 -1t2.5 -5v-2q-1 -6 -10.5 -15t-21.5 -22q-11 -13 -21 -30.5t-11 -41.5q0 -25 12 -44.5t33 -33.5q2 -1 3.5 -2t3.5 -2q5 -4 9 -9t4 -11t-6.5 -16.5t-16.5 -22.5
q-6 -7 -12 -13.5t-12 -11.5q-10 -8 -19 -13.5t-16 -5.5h-1q-28 4 -46 26.5t-23 48.5q-2 6 -2.5 11.5t-0.5 11.5v0zM275 503q0 41 18.5 79t46.5 67l11.5 11.5t14.5 13.5q5 4 10.5 8.5t11.5 8.5q9 6 17.5 10.5t15.5 5.5h1.5h0.5q3 0 5 -1.5t2 -4.5v-2q-1 -5 -4 -8.5t-7 -5.5
q-1 -1 -2.5 -2t-2.5 -2q-19 -15 -31.5 -37.5t-15.5 -46.5q-1 -2 -1 -3.5v-3.5q0 -25 11.5 -44.5t32.5 -33.5q2 -1 3.5 -2.5t3.5 -2.5q6 -4 10 -9t4 -11q0 -2 -7.5 -14.5t-19.5 -26.5q-6 -7 -13 -14.5t-14 -12.5q-8 -6 -15 -10t-14 -4h-1q-28 4 -46 26.5t-23 48.5
q-2 6 -2.5 11.5t-0.5 11.5v0z" />
    <glyph glyph-name="quotedblright" unicode="&#x201d;" horiz-adv-x="464" 
d="M191 609q0 -41 -18.5 -79t-46.5 -67q-4 -5 -10.5 -11t-14.5 -13q-5 -5 -11 -9.5t-12 -8.5q-9 -6 -17.5 -10.5t-15.5 -5.5h-1h-1q-3 0 -5 1.5t-2 4.5q0 4 10 15t22 26q11 14 21 32t11 38q0 22 -10 38t-22 28q-13 12 -23 21t-10 16q0 5 2 9t5 7l29 31l6.5 6.5l7.5 7.5
q7 8 15.5 14t16.5 6q27 0 45 -21t25 -47q2 -7 3 -14.5t1 -14.5v0zM406 609q0 -41 -18 -79t-46 -67q-5 -5 -11.5 -11t-13.5 -13l-12 -10t-12 -9q-9 -6 -17.5 -10t-15.5 -5q-3 0 -5.5 1t-2.5 5q0 5 10 15.5t22 25.5q11 15 21 32.5t11 37.5q0 24 -10 39t-22 26q-7 6 -13 10.5
t-11 9.5q-4 4 -6.5 8t-2.5 9q0 11 7 19.5t15 16.5q4 3 7.5 6t6.5 6t6 6.5t7 7.5q7 8 15.5 14t16.5 6q27 0 45 -21t25 -47q2 -7 3 -14.5t1 -14.5v0z" />
    <glyph glyph-name="quotedblbase" unicode="&#x201e;" horiz-adv-x="464" 
d="M191 51q0 -41 -18.5 -78.5t-46.5 -66.5q-4 -5 -10.5 -11t-14.5 -13q-5 -5 -11 -9.5t-12 -8.5q-9 -6 -17.5 -10.5t-15.5 -5.5h-1h-1q-3 0 -5 1.5t-2 4.5q0 4 10 14.5t22 25.5q11 14 21 32.5t11 38.5q0 24 -10 39t-22 26q-9 8 -17 14.5t-12 12.5q-2 2 -3 4.5t-1 5.5
q0 6 7 16t17 21l9.5 9.5t9.5 8.5q12 11 23 18.5t16 7.5q27 0 45 -21t25 -47q2 -7 3 -14.5t1 -14.5v0zM406 51q0 -41 -18 -78.5t-46 -66.5q-5 -5 -11.5 -11t-13.5 -13l-12 -10t-12 -9q-9 -6 -17.5 -10t-15.5 -5q-3 0 -5.5 1t-2.5 5q0 5 10 15.5t22 26.5q11 14 21 32t11 37
q0 24 -10 38.5t-22 25.5q-7 5 -12.5 9.5t-10.5 8.5q-4 5 -7 9.5t-3 9.5t1.5 9t4.5 8q5 5 12.5 13t15.5 17q2 2 4.5 4t4.5 4q11 11 21.5 19t16.5 8q27 0 45 -21t25 -47q2 -7 3 -14.5t1 -14.5v0z" />
    <glyph glyph-name="dagger" unicode="&#x2020;" horiz-adv-x="509" 
d="M289 598l-25 -122q0 -1 -0.5 -3t-1.5 -5v-2v-2v-2t1 -2h1h2.5t2.5 1h0.5h0.5q1 0 2.5 0.5t2.5 0.5l115 27q5 1 10 1.5t11 0.5q20 0 26 -12t6 -28v-10v-10q-1 -5 -1 -10v-10q-3 -10 -10 -17t-18 -7q-7 0 -13.5 1t-13.5 2q-2 1 -4.5 1.5t-4.5 0.5l-104 24q-1 1 -2.5 1
t-3.5 1h-1.5h-1.5q-2 0 -3.5 -1.5t-1.5 -3.5q0 -10 4.5 -27t9.5 -38q2 -9 4.5 -18t3.5 -19q3 -12 4.5 -24.5t1.5 -23.5q0 -10 -1 -19.5t-3 -19.5q-4 -27 -7.5 -54t-6.5 -54q-4 -36 -6 -72t-2 -72v-53v-3.5v-5.5q0 -2 -0.5 -4.5t-0.5 -4.5q-1 -7 -6.5 -9t-11.5 -2h-1.5h-1.5
q-9 0 -14.5 2.5t-7.5 12.5v33q0 51 -1 101t-9 99q-1 10 -3 19.5t-4 19.5l-2 12l-2 12q-2 15 -4 31t-2 31q0 20 4.5 38.5t9.5 36.5q1 2 1.5 4.5t0.5 4.5q5 16 8.5 32.5t3.5 33.5q0 2 -1.5 3.5t-3.5 1.5h-1.5h-1.5q-2 -1 -3.5 -1t-2.5 -1l-104 -24q-2 0 -4.5 -0.5t-4.5 -1.5
q-7 -1 -13.5 -2t-13.5 -1q-17 0 -22.5 11.5t-6.5 25.5v8v8q0 20 4 35.5t29 15.5q5 0 10.5 -0.5t10.5 -1.5l114 -27q1 0 2.5 -0.5t2.5 -0.5h0.5h0.5q1 -1 2.5 -1h2.5h1q1 1 1 2v2v2v2q-1 3 -1 5t-1 3l-24 122l-2 10t-1 10q-1 5 -1 10v10q0 26 11.5 33.5t41.5 7.5t41 -7.5
t11 -36.5v-9v-9q-1 -5 -1.5 -9.5t-1.5 -9.5v0z" />
    <glyph glyph-name="daggerdbl" unicode="&#x2021;" horiz-adv-x="509" 
d="M291 598l-26 -122v-2v-3q-1 0 -1 -1v-2v-1.5v-1.5v-2t1 -2v0h1q0 -1 0.5 -1h0.5h2t2 1h1v0q2 0 3 0.5t2 0.5l114 27q5 1 10.5 1.5t10.5 0.5q20 0 26.5 -12t6.5 -29q0 -10 -0.5 -19.5t-1.5 -19.5q-2 -10 -9 -17t-18 -7q-7 0 -13.5 1t-13.5 2q-2 1 -4.5 1.5t-4.5 0.5
l-104 24q-1 1 -2.5 1t-3.5 1h-1.5h-1.5q-2 0 -3.5 -1t-1.5 -3q0 -13 4 -28.5t9 -32.5l6 -22t5 -22q1 -7 1.5 -13t0.5 -12q0 -16 -4 -32.5t-9 -31.5q-5 -16 -9 -32t-4 -33q0 -3 1 -4t4 -1h1.5h1.5q2 1 3.5 1.5t2.5 0.5l104 24q9 2 18 3.5t18 1.5q17 0 22.5 -11.5t6.5 -25.5
v-8v-8v-1.5v-1.5q0 -18 -4.5 -33t-28.5 -15q-5 0 -10.5 1t-10.5 2l-114 26q-1 1 -2.5 1t-3.5 1h-1.5h-1.5q-2 0 -3 -1.5t-1 -3.5v-1.5v-1.5v-1.5t1 -1.5v-3v-2l25 -121q1 -4 2 -9t1 -10q1 -5 1 -10v-10q0 -27 -12 -34.5t-41 -7.5t-40.5 8t-11.5 34q0 7 0.5 13.5t1.5 13.5
q0 3 0.5 6.5t0.5 6.5l25 120q1 1 1.5 3t0.5 5v1.5v1.5q0 2 -1 3.5t-3 1.5h-2h-1q-2 -1 -3.5 -1t-2.5 -1l-115 -26q-5 -1 -10.5 -2t-10.5 -1q-19 0 -25 12.5t-7 27.5v5.5v5.5v2.5v3.5t0.5 5.5t0.5 6.5q1 13 6 24t22 11q9 0 18 -1.5t17 -3.5l105 -24q1 0 2.5 -0.5t3.5 -1.5h1
h2q2 0 3.5 1.5t1.5 3.5v1.5v0.5q0 2 -0.5 3.5t-1.5 2.5q-2 9 -4.5 18t-5.5 18q-2 9 -4.5 18t-4.5 18q-3 13 -4.5 25t-1.5 24q0 17 4 33t10 32q5 15 9 31.5t4 32.5q0 2 -1.5 3.5t-3.5 1.5h-2h-1q-2 -1 -3.5 -1t-2.5 -1l-105 -24q-2 0 -4 -0.5t-4 -1.5q-7 -1 -13.5 -2
t-13.5 -1q-17 0 -22.5 11.5t-6.5 25.5v8v8q0 20 4 35.5t28 15.5q5 0 10.5 -0.5t10.5 -1.5l115 -27q1 0 2 -0.5t3 -0.5v0h1q1 -1 2 -1h2h0.5t0.5 1h1v0q1 1 1 2v2v1.5v1.5q0 3 -0.5 5t-1.5 3l-25 122q0 3 -0.5 6.5t-0.5 6.5q-1 7 -1.5 13.5t-0.5 13.5q0 26 11.5 33.5
t40.5 7.5q35 0 44 -9.5t9 -43.5q0 -7 -0.5 -14t-2.5 -14v0z" />
    <glyph glyph-name="glyph287" unicode="&#x2022;" horiz-adv-x="600" 
d="M198 286q0 40 28 68t68 28q41 0 69.5 -28t28.5 -68t-28.5 -68t-69.5 -28q-40 0 -68 28t-28 68v0z" />
    <glyph glyph-name="ellipsis" unicode="&#x2026;" horiz-adv-x="770" 
d="M42 71q0 6 8.5 16.5t21.5 22.5l6.5 6.5t7.5 6.5q14 13 26.5 22t15.5 9q5 0 17 -8.5t25 -19.5l8 -8l8 -8q12 -12 20.5 -23.5t8.5 -16.5q0 -8 -5 -14t-10 -11l-3.5 -3.5t-3.5 -2.5q-5 -4 -10.5 -10.5t-12.5 -13.5l-7.5 -7.5t-7.5 -6.5q-6 -5 -12.5 -9t-12.5 -4t-17.5 7.5
t-24.5 18.5q-5 4 -10 8.5t-9 9.5q-11 12 -19 22.5t-8 16.5v0zM299 71q0 8 5 14t10 11q2 1 3.5 2t2.5 2q4 4 11 10.5t14 14.5q2 1 3.5 3t3.5 3q10 10 19 16.5t14 6.5t12 -4t14 -10q3 -3 6.5 -6t7.5 -7q7 -7 13 -14t9 -10l4 -4t5 -4q5 -5 10 -11t5 -14q0 -9 -5.5 -15.5
t-12.5 -11.5l-2 -2l-2 -2q-5 -4 -10.5 -10.5t-12.5 -13.5l-7.5 -7.5t-7.5 -6.5q-6 -5 -12 -8.5t-12 -4.5q-6 0 -17.5 7t-24.5 18q-6 5 -11.5 10t-10.5 10q-10 11 -17 21t-7 17v0zM555 71q0 7 5 13t10 11q2 1 3.5 2.5t3.5 2.5q5 4 10.5 10t11.5 13l5.5 5.5t5.5 4.5
q8 9 16.5 15t15.5 6q2 0 3.5 -0.5t2.5 -0.5q5 -2 10 -5.5t9 -7.5q2 -2 4 -3.5t4 -3.5l29 -30l4.5 -4.5t5.5 -4.5q5 -5 9.5 -11t4.5 -13q0 -9 -5.5 -15.5t-12.5 -11.5l-2 -2l-2 -2l-10.5 -10.5t-13.5 -14.5l-6.5 -6.5t-7.5 -6.5q-7 -5 -13 -9t-12 -4q-4 0 -16.5 8t-26.5 20
q-5 4 -10 8.5t-9 8.5q-11 11 -18.5 21t-7.5 17v0z" />
    <glyph glyph-name="perthousand" unicode="&#x2030;" horiz-adv-x="1154" 
d="M568 627l-361 -612l-3 -6q-3 -5 -8 -7t-11 -2h-2h-2q-3 1 -5 2.5t-2 4.5q0 2 1 4l2 4q1 0 1.5 0.5t0.5 1.5l375 637q1 1 1.5 2.5t1.5 3.5q2 3 4.5 6t5.5 3h3h3q5 -1 8.5 -2.5t3.5 -6.5v-1q-1 -6 -4 -11.5t-7 -11.5q-2 -2 -3.5 -4.5t-2.5 -4.5v0zM393 148q0 66 48.5 117
t115.5 51h1.5h1.5q61 -1 112.5 -43t51.5 -106q0 -69 -45 -118t-115 -49q-65 0 -118 39t-53 109v0zM471 162q0 -12 1.5 -25.5t5.5 -27.5q8 -34 28.5 -62.5t55.5 -28.5q41 0 61.5 30t25.5 66q2 8 2.5 16.5t0.5 16.5q0 12 -1.5 26.5t-4.5 28.5q-8 36 -29.5 66.5t-60.5 30.5
q-40 0 -58 -29t-24 -64q-2 -11 -2.5 -22.5t-0.5 -21.5v0zM790 148q0 66 48.5 117t115.5 51h1.5h1.5q61 -1 112.5 -43t51.5 -106q0 -69 -45 -118t-116 -49q-64 0 -117 39t-53 109v0zM867 162q0 -12 1.5 -25.5t5.5 -27.5q9 -34 29.5 -62.5t54.5 -28.5q41 0 61.5 30t26.5 66
q2 8 2.5 16.5t0.5 16.5q0 12 -1.5 26.5t-4.5 28.5q-8 36 -29.5 66.5t-60.5 30.5q-40 0 -58.5 -29t-24.5 -64q-1 -11 -2 -22.5t-1 -21.5v0zM33 499q0 67 48 117.5t116 50.5h1.5h1.5q61 -1 112.5 -42.5t51.5 -106.5q0 -68 -45 -117.5t-115 -49.5q-65 0 -118 39t-53 109v0z
M111 513q0 -12 1.5 -25t5.5 -27q8 -35 28.5 -63.5t56.5 -28.5q39 0 59.5 29.5t26.5 64.5q2 9 2.5 18t0.5 17q0 12 -1.5 26t-4.5 29q-8 36 -29.5 67t-60.5 31q-40 0 -58.5 -29.5t-23.5 -65.5q-2 -11 -2.5 -22t-0.5 -21v0z" />
    <glyph glyph-name="guilsinglleft" unicode="&#x2039;" horiz-adv-x="195" 
d="M105 205q1 -14 8.5 -33.5t17.5 -40.5l2 -4t2 -3q10 -23 19 -43.5t10 -32.5v-1.5v-0.5q-1 -4 -3 -7.5t-6 -3.5q-8 1 -24 18.5t-33 41.5l-10 14t-10 15q-17 27 -30 51t-13 33v1q2 10 13 29.5t25 41.5l4 6l4 6q12 18 23.5 34t17.5 25l4 6t5 7q4 7 10 12.5t13 5.5h1
q3 -1 5 -3t3 -5v-0.5v-1.5q0 -16 -9 -36t-20 -42l-8 -16t-7 -17q-6 -14 -10 -28t-4 -27v-1v0z" />
    </font>
</defs>
</svg>
